<?xml version="1.0" encoding="utf-8"?>
<!-- Generator: Adobe Illustrator 16.0.3, SVG Export Plug-In . SVG Version: 6.00 Build 0)  -->
<!DOCTYPE svg PUBLIC "-//W3C//DTD SVG 1.1//EN" "http://www.w3.org/Graphics/SVG/1.1/DTD/svg11.dtd">
<svg version="1.1" id="Ebene_1" xmlns="http://www.w3.org/2000/svg" xmlns:xlink="http://www.w3.org/1999/xlink" x="0px" y="0px"
	 width="320px" height="240px" viewBox="0 0 320 240" enable-background="new 0 0 320 240" xml:space="preserve">
<g>
	<g transform="matrix(-.56670765 0 0 .56670765 36.556983 -4.762413)">
		<circle fill="none" stroke="#F1F1F1" stroke-width="5" cx="-99.628" cy="185.644" r="27.508"/>
		<circle fill="none" stroke="#F1F1F1" stroke-width="5" cx="-27.704" cy="185.644" r="27.508"/>
		<circle fill="none" stroke="#F1F1F1" stroke-width="5" cx="-63.666" cy="123.49" r="27.508"/>
	</g>
	<path fill="none" stroke="#CD3232" stroke-width="5" d="M93.333,49.132l38.662,66.965l38.663-66.965H93.333z"/>
	<path fill="none" stroke="#F1F1F1" stroke-width="5" d="M223.32,116.532l-38.661-66.965l-38.662,66.965H223.32z"/>
	<path fill="none" stroke="#CD3232" stroke-width="5" d="M216.156,82.832l33.575,33.574l33.575-33.574l-33.575-33.575
		L216.156,82.832z"/>
</g>
<g transform="translate(0 -9.834071)">
	<path fill="#F1F1F1" d="M71.979,155.929c0,4.5-1.347,7.903-4.041,10.208c-2.694,2.306-6.569,3.459-11.625,3.459
		c-2.278,0-4.39-0.209-6.334-0.625l-2.625,5.458c0.084,0.472,0.625,0.917,1.625,1.333c1,0.417,2.25,0.625,3.75,0.625h11.584
		c4.222,0,7.347,0.917,9.375,2.75c2.056,1.834,3.083,4.361,3.083,7.584c0,2.916-0.819,5.458-2.458,7.625
		c-1.611,2.166-3.986,3.833-7.125,5c-3.14,1.193-6.944,1.791-11.417,1.791c-5.333,0-9.402-0.819-12.208-2.458
		c-2.778-1.639-4.167-3.972-4.167-7c0-1.472,0.5-2.931,1.5-4.375c1-1.417,2.833-3.083,5.5-5c-1.583-0.528-2.917-1.431-4-2.708
		c-1.083-1.278-1.625-2.653-1.625-4.125l6.583-7.417c-4.389-2.056-6.583-6.097-6.583-12.125c0-4.278,1.348-7.583,4.042-9.917
		c2.722-2.333,6.666-3.5,11.833-3.5c1.027,0,2.348,0.111,3.958,0.334c1.611,0.193,2.848,0.43,3.709,0.708l9.208-4.625l1.458,1.792
		l-5.791,6C71.048,148.804,71.979,151.873,71.979,155.929L71.979,155.929z M70.271,188.012c0-1.583-0.486-2.819-1.458-3.708
		c-0.973-0.89-2.444-1.333-4.417-1.333H49.229c-1.166,1-2.125,2.264-2.875,3.791c-0.722,1.556-1.083,3-1.083,4.334
		c0,2.389,0.861,4.097,2.583,5.125c1.723,1.055,4.361,1.583,7.917,1.583c4.639,0,8.208-0.861,10.708-2.583
		C69.007,193.498,70.271,191.096,70.271,188.012z M56.396,166.429c3.027,0,5.167-0.861,6.417-2.583
		c1.277-1.75,1.916-4.389,1.916-7.917c0-3.694-0.652-6.319-1.958-7.875c-1.306-1.583-3.402-2.375-6.292-2.375
		c-2.916,0-5.056,0.792-6.416,2.375c-1.361,1.583-2.042,4.208-2.042,7.875s0.667,6.333,2,8S53.479,166.429,56.396,166.429z"/>
	<path fill="#F1F1F1" d="M117.813,162.929c0,13.75-6.111,20.625-18.334,20.625c-5.889,0-10.333-1.765-13.333-5.292
		s-4.5-8.639-4.5-15.333c0-6.611,1.5-11.667,4.5-15.167s7.556-5.25,13.667-5.25c5.944,0,10.431,1.723,13.458,5.167
		C116.298,151.096,117.813,156.179,117.813,162.929L117.813,162.929z M110.313,162.929c0-6-0.875-10.347-2.625-13.042
		c-1.75-2.694-4.486-4.041-8.209-4.041c-3.639,0-6.277,1.291-7.916,3.875c-1.611,2.583-2.417,6.986-2.417,13.208
		c0,6.306,0.819,10.778,2.458,13.417c1.667,2.611,4.292,3.916,7.875,3.916c3.667,0,6.39-1.361,8.167-4.083
		S110.313,169.039,110.313,162.929z"/>
	<path fill="#F1F1F1" d="M134.646,146.721c2.083-1.195,4.292-2.195,6.625-3c2.333-0.807,4.389-1.209,6.167-1.209
		c1.916,0,3.681,0.361,5.291,1.084c1.64,0.722,2.861,1.875,3.667,3.458c2.139-1.194,4.639-2.25,7.5-3.167
		c2.889-0.916,5.278-1.375,7.167-1.375c6.666,0,10,3.848,10,11.542v25.75l5.041,1.042v1.875h-17.791v-1.875l5.833-1.042v-25
		c0-4.778-2.222-7.167-6.667-7.167c-0.722,0-1.569,0.056-2.541,0.167c-0.944,0.11-1.903,0.235-2.875,0.375
		c-0.944,0.139-1.861,0.306-2.75,0.5c-0.861,0.167-1.584,0.306-2.167,0.417c0.473,1.5,0.708,3.152,0.708,4.958v25.75l5.875,1.042
		v1.875h-18.583v-1.875l5.792-1.042v-25c0-2.306-0.598-4.069-1.792-5.292c-1.167-1.25-2.931-1.875-5.292-1.875
		c-2.444,0-5.485,0.402-9.125,1.209v30.958l5.875,1.042v1.875h-17.75v-1.875l4.959-1.042v-33.333l-4.959-1.042v-1.875h11.459
		L134.646,146.721z"/>
	<path fill="#F1F1F1" d="M226.854,162.929c0,13.75-6.11,20.625-18.333,20.625c-5.889,0-10.333-1.765-13.333-5.292
		s-4.5-8.639-4.5-15.333c0-6.611,1.5-11.667,4.5-15.167s7.556-5.25,13.666-5.25c5.945,0,10.431,1.723,13.459,5.167
		C225.34,151.096,226.854,156.179,226.854,162.929L226.854,162.929z M219.354,162.929c0-6-0.875-10.347-2.625-13.042
		c-1.75-2.694-4.485-4.041-8.208-4.041c-3.639,0-6.277,1.291-7.917,3.875c-1.61,2.583-2.416,6.986-2.416,13.208
		c0,6.306,0.819,10.778,2.458,13.417c1.667,2.611,4.292,3.916,7.875,3.916c3.667,0,6.389-1.361,8.167-4.083
		C218.465,173.457,219.354,169.039,219.354,162.929z"/>
	<path fill="#F1F1F1" d="M257.771,142.512v10.584h-1.791l-2.417-4.584c-1.389,0-3.042,0.195-4.959,0.584
		c-1.889,0.361-3.527,0.847-4.916,1.458v29.25l6.708,1.042v1.875h-18.583v-1.875l4.958-1.042v-33.333l-4.958-1.042v-1.875h11.416
		l0.375,4.875c1.667-1.39,3.917-2.722,6.75-4c2.861-1.278,5.125-1.917,6.792-1.917H257.771z"/>
	<path fill="#F1F1F1" d="M274.313,130.762c0,1.223-0.444,2.277-1.333,3.167c-0.89,0.889-1.959,1.333-3.209,1.333
		c-1.222,0-2.277-0.444-3.166-1.333c-0.89-0.89-1.334-1.944-1.334-3.167c0-1.25,0.444-2.319,1.334-3.208
		c0.889-0.889,1.944-1.333,3.166-1.333c1.25,0,2.319,0.444,3.209,1.333C273.868,128.442,274.313,129.512,274.313,130.762z
		 M273.896,179.804l6.709,1.042v1.875h-20.292v-1.875l6.667-1.042v-33.333l-5.542-1.042v-1.875h12.458V179.804z"/>
</g>
</svg>
