<?xml version="1.0" encoding="UTF-8" standalone="no"?>
<svg
   xmlns:dc="http://purl.org/dc/elements/1.1/"
   xmlns:cc="http://creativecommons.org/ns#"
   xmlns:rdf="http://www.w3.org/1999/02/22-rdf-syntax-ns#"
   xmlns:svg="http://www.w3.org/2000/svg"
   xmlns="http://www.w3.org/2000/svg"
   viewBox="0 0 188.976 245.66933"
   height="245.66933"
   width="188.976"
   xml:space="preserve"
   id="svg2"
   version="1.1"><metadata
     id="metadata8"><rdf:RDF><cc:Work
         rdf:about=""><dc:format>image/svg+xml</dc:format><dc:type
           rdf:resource="http://purl.org/dc/dcmitype/StillImage" /></cc:Work></rdf:RDF></metadata><defs
     id="defs6"><clipPath
       id="clipPath18"
       clipPathUnits="userSpaceOnUse"><path
         id="path16"
         d="M 0,184.252 H 141.732 V 0 H 0 Z" /></clipPath></defs><g
     transform="matrix(1.3333333,0,0,-1.3333333,0,245.66933)"
     id="g10"><g
       id="g12"><g
         clip-path="url(#clipPath18)"
         id="g14"><g
           transform="translate(10.229,177.166)"
           id="g20"><path
             id="path22"
             style="fill:none;stroke:#f1f1f1;stroke-width:1.02900004;stroke-linecap:butt;stroke-linejoin:miter;stroke-miterlimit:4;stroke-dasharray:none;stroke-opacity:1"
             d="m 0,0 h 22.824 c 0,-1.667 1.352,-3.018 3.018,-3.018 v -33.518 c -1.666,0 -3.018,-1.352 -3.018,-3.019 H 0 c 0,1.667 -1.352,3.019 -3.018,3.019 V -3.018 C -1.352,-3.018 0,-1.667 0,0 Z" /></g><g
           transform="translate(43.0454,177.166)"
           id="g24"><path
             id="path26"
             style="fill:none;stroke:#f1f1f1;stroke-width:1.02900004;stroke-linecap:butt;stroke-linejoin:miter;stroke-miterlimit:4;stroke-dasharray:none;stroke-opacity:1"
             d="m 0,0 h 22.824 c 0,-1.667 1.352,-3.018 3.018,-3.018 v -33.518 c -1.666,0 -3.018,-1.352 -3.018,-3.019 H 0 c 0,1.667 -1.352,3.019 -3.018,3.019 V -3.018 C -1.352,-3.018 0,-1.667 0,0 Z" /></g><g
           transform="translate(10.229,133.6572)"
           id="g28"><path
             id="path30"
             style="fill:none;stroke:#f1f1f1;stroke-width:1.02900004;stroke-linecap:butt;stroke-linejoin:miter;stroke-miterlimit:4;stroke-dasharray:none;stroke-opacity:1"
             d="m 0,0 h 22.824 c 0,-1.666 1.352,-3.017 3.018,-3.017 v -33.518 c -1.666,0 -3.018,-1.352 -3.018,-3.019 H 0 c 0,1.667 -1.352,3.019 -3.02,3.019 V -3.017 C -1.352,-3.017 0,-1.666 0,0 Z" /></g><g
           transform="translate(43.0454,133.6572)"
           id="g32"><path
             id="path34"
             style="fill:none;stroke:#f1f1f1;stroke-width:1.02900004;stroke-linecap:butt;stroke-linejoin:miter;stroke-miterlimit:4;stroke-dasharray:none;stroke-opacity:1"
             d="m 0,0 h 22.824 c 0,-1.665 1.352,-3.017 3.018,-3.017 v -33.518 c -1.666,0 -3.018,-1.352 -3.018,-3.017 H 0 c 0,1.665 -1.352,3.017 -3.018,3.017 V -3.017 C -1.352,-3.017 0,-1.665 0,0 Z" /></g><g
           transform="translate(75.8618,177.166)"
           id="g36"><path
             id="path38"
             style="fill:none;stroke:#f1f1f1;stroke-width:1.02900004;stroke-linecap:butt;stroke-linejoin:miter;stroke-miterlimit:4;stroke-dasharray:none;stroke-opacity:1"
             d="m 0,0 h 22.824 c 0,-1.666 1.352,-3.018 3.018,-3.018 v -33.518 c -1.666,0 -3.018,-1.352 -3.018,-3.018 H 0 c 0,1.666 -1.352,3.018 -3.018,3.018 V -3.018 C -1.352,-3.018 0,-1.666 0,0 Z" /></g><g
           transform="translate(108.6802,177.166)"
           id="g40"><path
             id="path42"
             style="fill:none;stroke:#f1f1f1;stroke-width:1.02900004;stroke-linecap:butt;stroke-linejoin:miter;stroke-miterlimit:4;stroke-dasharray:none;stroke-opacity:1"
             d="m 0,0 h 22.824 c 0,-1.666 1.352,-3.018 3.018,-3.018 v -33.518 c -1.666,0 -3.018,-1.352 -3.018,-3.018 H 0 c 0,1.666 -1.352,3.018 -3.02,3.018 V -3.018 C -1.352,-3.018 0,-1.666 0,0 Z" /></g><g
           transform="translate(75.8638,133.6572)"
           id="g44"><path
             id="path46"
             style="fill:none;stroke:#f1f1f1;stroke-width:1.02900004;stroke-linecap:butt;stroke-linejoin:miter;stroke-miterlimit:4;stroke-dasharray:none;stroke-opacity:1"
             d="m 0,0 h 22.822 c 0,-1.668 1.352,-3.017 3.018,-3.017 v -33.518 c -1.666,0 -3.018,-1.352 -3.018,-3.02 H 0 c 0,1.668 -1.354,3.02 -3.02,3.02 V -3.017 C -1.354,-3.017 0,-1.668 0,0 Z" /></g><g
           transform="translate(108.6802,133.6572)"
           id="g48"><path
             id="path50"
             style="fill:none;stroke:#f1f1f1;stroke-width:1.02900004;stroke-linecap:butt;stroke-linejoin:miter;stroke-miterlimit:4;stroke-dasharray:none;stroke-opacity:1"
             d="m 0,0 h 22.824 c 0,-1.665 1.352,-3.017 3.018,-3.017 v -33.518 c -1.666,0 -3.018,-1.352 -3.018,-3.017 H 0 c 0,1.665 -1.352,3.017 -3.02,3.017 V -3.017 C -1.352,-3.017 0,-1.665 0,0 Z" /></g><g
           transform="translate(10.2271,90.1494)"
           id="g52"><path
             id="path54"
             style="fill:none;stroke:#f1f1f1;stroke-width:1.02900004;stroke-linecap:butt;stroke-linejoin:miter;stroke-miterlimit:4;stroke-dasharray:none;stroke-opacity:1"
             d="m 0,0 h 22.826 c 0,-1.667 1.352,-3.018 3.018,-3.018 v -33.518 c -1.666,0 -3.018,-1.351 -3.018,-3.019 H 0 c 0,1.668 -1.35,3.019 -3.018,3.019 V -3.018 C -1.35,-3.018 0,-1.667 0,0 Z" /></g><g
           transform="translate(43.0454,90.1494)"
           id="g56"><path
             id="path58"
             style="fill:none;stroke:#f1f1f1;stroke-width:1.02900004;stroke-linecap:butt;stroke-linejoin:miter;stroke-miterlimit:4;stroke-dasharray:none;stroke-opacity:1"
             d="m 0,0 h 22.824 c 0,-1.667 1.352,-3.018 3.018,-3.018 v -33.518 c -1.666,0 -3.018,-1.351 -3.018,-3.019 H 0 c 0,1.668 -1.352,3.019 -3.018,3.019 V -3.018 C -1.352,-3.018 0,-1.667 0,0 Z" /></g><g
           transform="translate(10.229,46.6406)"
           id="g60"><path
             id="path62"
             style="fill:none;stroke:#f1f1f1;stroke-width:1.02900004;stroke-linecap:butt;stroke-linejoin:miter;stroke-miterlimit:4;stroke-dasharray:none;stroke-opacity:1"
             d="m 0,0 h 22.824 c 0,-1.667 1.352,-3.017 3.018,-3.017 v -33.519 c -1.666,0 -3.018,-1.351 -3.018,-3.018 H 0 c 0,1.667 -1.354,3.018 -3.02,3.018 V -3.017 C -1.354,-3.017 0,-1.667 0,0 Z" /></g><g
           transform="translate(43.0454,46.6406)"
           id="g64"><path
             id="path66"
             style="fill:none;stroke:#f1f1f1;stroke-width:1.02900004;stroke-linecap:butt;stroke-linejoin:miter;stroke-miterlimit:4;stroke-dasharray:none;stroke-opacity:1"
             d="m 0,0 h 22.824 c 0,-1.665 1.352,-3.017 3.018,-3.017 v -33.519 c -1.666,0 -3.018,-1.351 -3.018,-3.016 H 0 c 0,1.665 -1.352,3.016 -3.018,3.016 V -3.017 C -1.352,-3.017 0,-1.665 0,0 Z" /></g><g
           transform="translate(75.8618,90.1494)"
           id="g68"><path
             id="path70"
             style="fill:none;stroke:#f1f1f1;stroke-width:1.02900004;stroke-linecap:butt;stroke-linejoin:miter;stroke-miterlimit:4;stroke-dasharray:none;stroke-opacity:1"
             d="m 0,0 h 22.824 c 0,-1.668 1.352,-3.019 3.018,-3.019 v -33.518 c -1.666,0 -3.018,-1.353 -3.018,-3.018 H 0 c 0,1.665 -1.352,3.018 -3.018,3.018 V -3.019 C -1.352,-3.019 0,-1.668 0,0 Z" /></g><g
           transform="translate(108.6782,90.1494)"
           id="g72"><path
             id="path74"
             style="fill:none;stroke:#f1f1f1;stroke-width:1.02900004;stroke-linecap:butt;stroke-linejoin:miter;stroke-miterlimit:4;stroke-dasharray:none;stroke-opacity:1"
             d="m 0,0 h 22.824 c 0,-1.668 1.352,-3.019 3.02,-3.019 v -33.518 c -1.668,0 -3.02,-1.353 -3.02,-3.018 H 0 c 0,1.665 -1.352,3.018 -3.018,3.018 V -3.019 C -1.352,-3.019 0,-1.668 0,0 Z" /></g><g
           transform="translate(75.8618,46.6406)"
           id="g76"><path
             id="path78"
             style="fill:none;stroke:#f1f1f1;stroke-width:1.02900004;stroke-linecap:butt;stroke-linejoin:miter;stroke-miterlimit:4;stroke-dasharray:none;stroke-opacity:1"
             d="m 0,0 h 22.824 c 0,-1.667 1.352,-3.017 3.018,-3.017 v -33.519 c -1.666,0 -3.018,-1.351 -3.018,-3.018 H 0 c 0,1.667 -1.352,3.018 -3.018,3.018 V -3.017 C -1.352,-3.017 0,-1.667 0,0 Z" /></g><g
           transform="translate(108.6782,46.6406)"
           id="g80"><path
             id="path82"
             style="fill:none;stroke:#f1f1f1;stroke-width:1.02900004;stroke-linecap:butt;stroke-linejoin:miter;stroke-miterlimit:4;stroke-dasharray:none;stroke-opacity:1"
             d="m 0,0 h 22.824 c 0,-1.665 1.352,-3.017 3.02,-3.017 v -33.519 c -1.668,0 -3.02,-1.351 -3.02,-3.016 H 0 c 0,1.665 -1.352,3.016 -3.018,3.016 V -3.017 C -1.352,-3.017 0,-1.665 0,0 Z" /></g><g
           transform="translate(21.6411,164.8418)"
           id="g84"><path
             id="path86"
             style="fill:none;stroke:#49bed9;stroke-width:1.02900004;stroke-linecap:butt;stroke-linejoin:miter;stroke-miterlimit:4;stroke-dasharray:none;stroke-opacity:1"
             d="M 0,0 V -145.431" /></g><g
           transform="translate(54.4575,164.8418)"
           id="g88"><path
             id="path90"
             style="fill:none;stroke:#49bed9;stroke-width:1.02900004;stroke-linecap:butt;stroke-linejoin:miter;stroke-miterlimit:4;stroke-dasharray:none;stroke-opacity:1"
             d="M 0,0 V -145.431" /></g><g
           transform="translate(87.2739,164.8418)"
           id="g92"><path
             id="path94"
             style="fill:none;stroke:#49bed9;stroke-width:1.02900004;stroke-linecap:butt;stroke-linejoin:miter;stroke-miterlimit:4;stroke-dasharray:none;stroke-opacity:1"
             d="M 0,0 V -145.431" /></g><g
           transform="translate(120.0923,164.8418)"
           id="g96"><path
             id="path98"
             style="fill:none;stroke:#49bed9;stroke-width:1.02900004;stroke-linecap:butt;stroke-linejoin:miter;stroke-miterlimit:4;stroke-dasharray:none;stroke-opacity:1"
             d="M 0,0 V -145.431" /></g><g
           transform="translate(16.2075,157.3887)"
           id="g100"><path
             id="path102"
             style="fill:none;stroke:#b168a7;stroke-width:1.02900004;stroke-linecap:butt;stroke-linejoin:miter;stroke-miterlimit:4;stroke-dasharray:none;stroke-opacity:1"
             d="M 0,0 H 109.316" /></g><g
           transform="translate(16.2075,113.8809)"
           id="g104"><path
             id="path106"
             style="fill:none;stroke:#b168a7;stroke-width:1.02900004;stroke-linecap:butt;stroke-linejoin:miter;stroke-miterlimit:4;stroke-dasharray:none;stroke-opacity:1"
             d="M 0,0 H 109.316" /></g><g
           transform="translate(16.2075,70.3721)"
           id="g108"><path
             id="path110"
             style="fill:none;stroke:#b168a7;stroke-width:1.02900004;stroke-linecap:butt;stroke-linejoin:miter;stroke-miterlimit:4;stroke-dasharray:none;stroke-opacity:1"
             d="M 0,0 H 109.316" /></g><g
           transform="translate(16.2075,26.8643)"
           id="g112"><path
             id="path114"
             style="fill:none;stroke:#b168a7;stroke-width:1.02900004;stroke-linecap:butt;stroke-linejoin:miter;stroke-miterlimit:4;stroke-dasharray:none;stroke-opacity:1"
             d="M 0,0 H 109.316" /></g><g
           transform="translate(16.2075,164.8418)"
           id="g116"><path
             id="path118"
             style="fill:none;stroke:#f7c736;stroke-width:1.02900004;stroke-linecap:butt;stroke-linejoin:miter;stroke-miterlimit:4;stroke-dasharray:none;stroke-opacity:1"
             d="M 0,0 109.316,-145.431" /></g><g
           transform="translate(125.5239,164.8418)"
           id="g120"><path
             id="path122"
             style="fill:none;stroke:#f7c736;stroke-width:1.02900004;stroke-linecap:butt;stroke-linejoin:miter;stroke-miterlimit:4;stroke-dasharray:none;stroke-opacity:1"
             d="M 0,0 -109.316,-145.431" /></g></g></g></g></svg>