<?xml version="1.0" encoding="UTF-8" standalone="no"?>
<svg
   xmlns:dc="http://purl.org/dc/elements/1.1/"
   xmlns:cc="http://creativecommons.org/ns#"
   xmlns:rdf="http://www.w3.org/1999/02/22-rdf-syntax-ns#"
   xmlns:svg="http://www.w3.org/2000/svg"
   xmlns="http://www.w3.org/2000/svg"
   viewBox="0 0 302.36133 245.668"
   height="245.668"
   width="302.36133"
   xml:space="preserve"
   id="svg2"
   version="1.1"><metadata
     id="metadata8"><rdf:RDF><cc:Work
         rdf:about=""><dc:format>image/svg+xml</dc:format><dc:type
           rdf:resource="http://purl.org/dc/dcmitype/StillImage" /></cc:Work></rdf:RDF></metadata><defs
     id="defs6"><clipPath
       id="clipPath18"
       clipPathUnits="userSpaceOnUse"><path
         id="path16"
         d="M 0,184.251 H 226.771 V 0 H 0 Z" /></clipPath><clipPath
       id="clipPath198"
       clipPathUnits="userSpaceOnUse"><path
         id="path196"
         d="m 152.522,133.666 c -1.863,0 -3.375,-1.51 -3.375,-3.375 v 0 -32.934 c 0,-1.863 1.512,-3.375 3.375,-3.375 v 0 h 21.126 c 1.863,0 3.375,1.512 3.375,3.375 v 0 32.934 c 0,1.865 -1.512,3.375 -3.375,3.375 v 0 z" /></clipPath><radialGradient
       id="radialGradient212"
       spreadMethod="pad"
       gradientTransform="matrix(13.93632,0,0,19.842024,163.08398,113.82422)"
       gradientUnits="userSpaceOnUse"
       r="1"
       cy="0"
       cx="0"
       fy="0"
       fx="0"><stop
         id="stop208"
         offset="0"
         style="stop-opacity:1;stop-color:#ffffff" /><stop
         id="stop210"
         offset="1"
         style="stop-opacity:0;stop-color:#ffffff" /></radialGradient><mask
       id="mask214"
       height="1"
       width="1"
       y="0"
       x="0"
       maskUnits="userSpaceOnUse"><g
         id="g224"><g
           id="g222"><g
             id="g220"><g
               id="g218"><path
                 id="path216"
                 style="fill:url(#radialGradient212);stroke:none"
                 d="M -32768,32767 H 32767 V -32768 H -32768 Z" /></g></g></g></g></mask><radialGradient
       id="radialGradient234"
       spreadMethod="pad"
       gradientTransform="matrix(13.93632,0,0,19.842024,163.08398,113.82422)"
       gradientUnits="userSpaceOnUse"
       r="1"
       cy="0"
       cx="0"
       fy="0"
       fx="0"><stop
         id="stop230"
         offset="0"
         style="stop-opacity:1;stop-color:#ffffff" /><stop
         id="stop232"
         offset="1"
         style="stop-opacity:1;stop-color:#f0f1f0" /></radialGradient><clipPath
       id="clipPath244"
       clipPathUnits="userSpaceOnUse"><path
         id="path242"
         d="M 0,184.251 H 226.771 V 0 H 0 Z" /></clipPath></defs><g
     transform="matrix(1.3333333,0,0,-1.3333333,0,245.668)"
     id="g10"><g
       id="g12"><g
         clip-path="url(#clipPath18)"
         id="g14"><g
           transform="translate(53.2227,177.1089)"
           id="g20"><path
             id="path22"
             style="fill:none;stroke:#f1f1f1;stroke-width:1.02900004;stroke-linecap:butt;stroke-linejoin:miter;stroke-miterlimit:4;stroke-dasharray:none;stroke-opacity:1"
             d="m 0,0 h 22.824 c 0,-1.667 1.352,-3.018 3.018,-3.018 v -33.518 c -1.666,0 -3.018,-1.352 -3.018,-3.019 H 0 c 0,1.667 -1.352,3.019 -3.019,3.019 V -3.018 C -1.352,-3.018 0,-1.667 0,0 Z" /></g><g
           transform="translate(53.2217,133.6001)"
           id="g24"><path
             id="path26"
             style="fill:none;stroke:#f1f1f1;stroke-width:1.02900004;stroke-linecap:butt;stroke-linejoin:miter;stroke-miterlimit:4;stroke-dasharray:none;stroke-opacity:1"
             d="m 0,0 h 22.824 c 0,-1.666 1.352,-3.017 3.019,-3.017 v -33.518 c -1.667,0 -3.019,-1.352 -3.019,-3.019 H 0 c 0,1.667 -1.352,3.019 -3.019,3.019 V -3.017 C -1.352,-3.017 0,-1.666 0,0 Z" /></g><g
           transform="translate(118.8555,177.1089)"
           id="g28"><path
             id="path30"
             style="fill:none;stroke:#f1f1f1;stroke-width:1.02900004;stroke-linecap:butt;stroke-linejoin:miter;stroke-miterlimit:4;stroke-dasharray:none;stroke-opacity:1"
             d="m 0,0 h 22.824 c 0,-1.666 1.352,-3.018 3.018,-3.018 v -33.518 c -1.666,0 -3.018,-1.352 -3.018,-3.018 H 0 c 0,1.666 -1.352,3.018 -3.018,3.018 V -3.018 C -1.352,-3.018 0,-1.666 0,0 Z" /></g><g
           transform="translate(86.0381,90.0918)"
           id="g32"><path
             id="path34"
             style="fill:none;stroke:#f1f1f1;stroke-width:1.02900004;stroke-linecap:butt;stroke-linejoin:miter;stroke-miterlimit:4;stroke-dasharray:none;stroke-opacity:1"
             d="m 0,0 h 22.825 c 0,-1.666 1.352,-3.018 3.018,-3.018 v -33.517 c -1.666,0 -3.018,-1.352 -3.018,-3.02 H 0 c 0,1.668 -1.351,3.02 -3.018,3.02 V -3.018 C -1.351,-3.018 0,-1.666 0,0 Z" /></g><g
           transform="translate(53.2217,46.584)"
           id="g36"><path
             id="path38"
             style="fill:none;stroke:#f1f1f1;stroke-width:1.02900004;stroke-linecap:butt;stroke-linejoin:miter;stroke-miterlimit:4;stroke-dasharray:none;stroke-opacity:1"
             d="m 0,0 h 22.825 c 0,-1.668 1.352,-3.018 3.018,-3.018 v -33.519 c -1.666,0 -3.018,-1.35 -3.018,-3.018 H 0 c 0,1.668 -1.353,3.018 -3.019,3.018 V -3.018 C -1.353,-3.018 0,-1.668 0,0 Z" /></g><g
           transform="translate(151.6719,90.0918)"
           id="g40"><path
             id="path42"
             style="fill:none;stroke:#f1f1f1;stroke-width:1.02900004;stroke-linecap:butt;stroke-linejoin:miter;stroke-miterlimit:4;stroke-dasharray:none;stroke-opacity:1"
             d="m 0,0 h 22.824 c 0,-1.668 1.352,-3.018 3.02,-3.018 v -33.519 c -1.668,0 -3.02,-1.352 -3.02,-3.018 H 0 c 0,1.666 -1.352,3.018 -3.018,3.018 V -3.018 C -1.352,-3.018 0,-1.668 0,0 Z" /></g><g
           transform="translate(118.8555,46.584)"
           id="g44"><path
             id="path46"
             style="fill:none;stroke:#f1f1f1;stroke-width:1.02900004;stroke-linecap:butt;stroke-linejoin:miter;stroke-miterlimit:4;stroke-dasharray:none;stroke-opacity:1"
             d="m 0,0 h 22.824 c 0,-1.668 1.352,-3.018 3.018,-3.018 v -33.519 c -1.666,0 -3.018,-1.35 -3.018,-3.018 H 0 c 0,1.668 -1.352,3.018 -3.018,3.018 V -3.018 C -1.352,-3.018 0,-1.668 0,0 Z" /></g><g
           transform="translate(151.6719,46.584)"
           id="g48"><path
             id="path50"
             style="fill:none;stroke:#f1f1f1;stroke-width:1.02900004;stroke-linecap:butt;stroke-linejoin:miter;stroke-miterlimit:4;stroke-dasharray:none;stroke-opacity:1"
             d="m 0,0 h 22.824 c 0,-1.666 1.352,-3.018 3.02,-3.018 v -33.519 c -1.668,0 -3.02,-1.35 -3.02,-3.016 H 0 c 0,1.666 -1.352,3.016 -3.018,3.016 V -3.018 C -1.352,-3.018 0,-1.666 0,0 Z" /></g><g
           transform="translate(86.9556,177.1738)"
           id="g52"><path
             id="path54"
             style="fill:#222223;fill-opacity:1;fill-rule:nonzero;stroke:none"
             d="m 0,0 h 20.987 c 2.085,0 3.776,-1.69 3.776,-3.775 v -32.134 c 0,-2.086 -1.691,-3.776 -3.776,-3.776 H 0 c -2.085,0 -3.775,1.69 -3.775,3.776 V -3.775 C -3.775,-1.69 -2.085,0 0,0" /></g><g
           transform="translate(87.4805,176.0596)"
           id="g56"><path
             id="path58"
             style="fill:#f0f1f0;fill-opacity:1;fill-rule:nonzero;stroke:none"
             d="m 0,0 h 19.937 c 1.76,0 3.186,-1.427 3.186,-3.186 v -31.085 c 0,-1.758 -1.426,-3.185 -3.186,-3.185 H 0 c -1.759,0 -3.185,1.427 -3.185,3.185 V -3.186 C -3.185,-1.427 -1.759,0 0,0" /></g><g
           transform="translate(101.6919,162.7568)"
           id="g60"><path
             id="path62"
             style="fill:none;stroke:#2c2c2b;stroke-width:1;stroke-linecap:butt;stroke-linejoin:miter;stroke-miterlimit:4;stroke-dasharray:none;stroke-opacity:1"
             d="m 0,0 c -1.792,0 -3.246,-1.453 -3.246,-3.245 0,-1.793 1.454,-3.246 3.246,-3.246 1.792,0 3.245,1.453 3.245,3.246 C 3.245,-1.453 1.792,0 0,0 Z" /></g><g
           transform="translate(93.2065,162.7568)"
           id="g64"><path
             id="path66"
             style="fill:none;stroke:#2c2c2b;stroke-width:1;stroke-linecap:butt;stroke-linejoin:miter;stroke-miterlimit:4;stroke-dasharray:none;stroke-opacity:1"
             d="m 0,0 c -1.792,0 -3.246,-1.453 -3.246,-3.245 0,-1.793 1.454,-3.246 3.246,-3.246 1.792,0 3.246,1.453 3.246,3.246 C 3.246,-1.453 1.792,0 0,0 Z" /></g><g
           transform="translate(97.4492,170.0898)"
           id="g68"><path
             id="path70"
             style="fill:none;stroke:#2c2c2b;stroke-width:1;stroke-linecap:butt;stroke-linejoin:miter;stroke-miterlimit:4;stroke-dasharray:none;stroke-opacity:1"
             d="m 0,0 c -1.792,0 -3.245,-1.453 -3.245,-3.246 0,-1.792 1.453,-3.245 3.245,-3.245 1.792,0 3.245,1.453 3.245,3.245 C 3.245,-1.453 1.792,0 0,0 Z" /></g><g
           transform="translate(99.9932,150.4111)"
           id="g72"><path
             id="path74"
             style="fill:#222223;fill-opacity:1;fill-rule:nonzero;stroke:none"
             d="m 0,0 c 0,-0.582 -0.173,-1.057 -0.517,-1.424 -0.344,-0.369 -0.786,-0.604 -1.326,-0.701 v -0.049 c 0.687,-0.082 1.212,-0.305 1.572,-0.67 0.361,-0.364 0.541,-0.854 0.541,-1.468 0,-0.753 -0.266,-1.369 -0.799,-1.844 -0.532,-0.474 -1.331,-0.713 -2.396,-0.713 -0.475,0 -0.915,0.041 -1.32,0.123 -0.406,0.082 -0.777,0.205 -1.113,0.37 v 0.675 c 0.336,-0.164 0.721,-0.299 1.156,-0.406 0.433,-0.105 0.859,-0.158 1.277,-0.158 0.836,0 1.454,0.178 1.855,0.533 0.402,0.357 0.602,0.838 0.602,1.444 0,0.639 -0.238,1.096 -0.712,1.37 -0.475,0.275 -1.11,0.412 -1.905,0.412 h -0.933 v 0.613 h 0.946 c 0.68,0 1.24,0.158 1.683,0.475 0.442,0.314 0.664,0.775 0.664,1.381 0,0.516 -0.169,0.909 -0.504,1.174 -0.336,0.266 -0.782,0.399 -1.339,0.399 -0.467,0 -0.887,-0.071 -1.26,-0.209 C -4.2,1.188 -4.567,0.995 -4.927,0.75 l -0.357,0.491 c 0.336,0.261 0.729,0.478 1.18,0.65 0.45,0.174 0.958,0.26 1.523,0.26 0.819,0 1.454,-0.195 1.905,-0.584 C -0.226,1.178 0,0.657 0,0" /></g><g
           transform="translate(86.9575,133.6665)"
           id="g76"><path
             id="path78"
             style="fill:#222223;fill-opacity:1;fill-rule:nonzero;stroke:none"
             d="m 0,0 h 20.987 c 2.085,0 3.775,-1.69 3.775,-3.775 v -32.134 c 0,-2.086 -1.69,-3.776 -3.775,-3.776 H 0 c -2.085,0 -3.775,1.69 -3.775,3.776 V -3.775 C -3.775,-1.69 -2.085,0 0,0" /></g><g
           transform="translate(87.4819,132.5522)"
           id="g80"><path
             id="path82"
             style="fill:#f0f1f0;fill-opacity:1;fill-rule:nonzero;stroke:none"
             d="m 0,0 h 19.937 c 1.76,0 3.186,-1.426 3.186,-3.186 v -31.085 c 0,-1.758 -1.426,-3.185 -3.186,-3.185 H 0 c -1.759,0 -3.185,1.427 -3.185,3.185 V -3.186 C -3.185,-1.426 -1.759,0 0,0" /></g><g
           transform="translate(101.6938,119.2495)"
           id="g84"><path
             id="path86"
             style="fill:none;stroke:#2c2c2b;stroke-width:1;stroke-linecap:butt;stroke-linejoin:miter;stroke-miterlimit:4;stroke-dasharray:none;stroke-opacity:1"
             d="m 0,0 c -1.793,0 -3.246,-1.453 -3.246,-3.246 0,-1.792 1.453,-3.245 3.246,-3.245 1.792,0 3.245,1.453 3.245,3.245 C 3.245,-1.453 1.792,0 0,0 Z" /></g><g
           transform="translate(93.2085,119.2495)"
           id="g88"><path
             id="path90"
             style="fill:none;stroke:#2c2c2b;stroke-width:1;stroke-linecap:butt;stroke-linejoin:miter;stroke-miterlimit:4;stroke-dasharray:none;stroke-opacity:1"
             d="m 0,0 c -1.793,0 -3.246,-1.453 -3.246,-3.246 0,-1.792 1.453,-3.245 3.246,-3.245 1.792,0 3.245,1.453 3.245,3.245 C 3.245,-1.453 1.792,0 0,0 Z" /></g><g
           transform="translate(97.4507,126.582)"
           id="g92"><path
             id="path94"
             style="fill:none;stroke:#2c2c2b;stroke-width:1;stroke-linecap:butt;stroke-linejoin:miter;stroke-miterlimit:4;stroke-dasharray:none;stroke-opacity:1"
             d="m 0,0 c -1.792,0 -3.245,-1.453 -3.245,-3.245 0,-1.793 1.453,-3.246 3.245,-3.246 1.793,0 3.245,1.453 3.245,3.246 C 3.245,-1.453 1.793,0 0,0 Z" /></g><g
           transform="translate(94.2505,105.0459)"
           id="g96"><path
             id="path98"
             style="fill:#222223;fill-opacity:1;fill-rule:nonzero;stroke:none"
             d="m 0,0 c 0,-0.779 0.115,-1.461 0.344,-2.045 0.228,-0.586 0.582,-1.04 1.056,-1.363 0.475,-0.324 1.076,-0.486 1.805,-0.486 0.738,0 1.341,0.162 1.812,0.486 0.47,0.323 0.818,0.775 1.045,1.355 C 6.286,-1.471 6.397,-0.787 6.397,0 6.397,1.21 6.134,2.16 5.606,2.843 5.077,3.527 4.291,3.869 3.242,3.869 2.513,3.869 1.908,3.707 1.423,3.382 0.941,3.06 0.584,2.607 0.35,2.027 0.117,1.445 0,0.77 0,0 M 7.147,0 C 7.147,-0.746 7.044,-1.422 6.835,-2.027 6.626,-2.633 6.313,-3.138 5.901,-3.544 5.487,-3.949 4.974,-4.226 4.361,-4.373 L 6.274,-6.486 H 5.269 l -1.695,1.99 C 3.509,-4.503 3.447,-4.509 3.39,-4.513 3.332,-4.517 3.271,-4.521 3.205,-4.521 c -0.883,0 -1.62,0.191 -2.205,0.572 -0.584,0.381 -1.023,0.912 -1.314,1.597 -0.29,0.682 -0.436,1.471 -0.436,2.364 0,0.892 0.15,1.675 0.449,2.345 0.299,0.672 0.744,1.199 1.338,1.58 0.593,0.379 1.328,0.57 2.205,0.57 0.843,0 1.554,-0.183 2.13,-0.547 C 5.95,3.595 6.39,3.078 6.692,2.408 6.997,1.736 7.147,0.933 7.147,0" /></g><g
           transform="translate(86.9546,46.6504)"
           id="g100"><path
             id="path102"
             style="fill:#222223;fill-opacity:1;fill-rule:nonzero;stroke:none"
             d="m 0,0 h 20.987 c 2.085,0 3.775,-1.691 3.775,-3.775 V -35.91 c 0,-2.086 -1.69,-3.776 -3.775,-3.776 H 0 c -2.085,0 -3.775,1.69 -3.775,3.776 V -3.775 C -3.775,-1.691 -2.085,0 0,0" /></g><g
           transform="translate(87.479,45.5352)"
           id="g104"><path
             id="path106"
             style="fill:#f0f1f0;fill-opacity:1;fill-rule:nonzero;stroke:none"
             d="m 0,0 h 19.937 c 1.76,0 3.186,-1.426 3.186,-3.186 V -34.27 c 0,-1.759 -1.426,-3.185 -3.186,-3.185 H 0 c -1.759,0 -3.185,1.426 -3.185,3.185 V -3.186 C -3.185,-1.426 -1.759,0 0,0" /></g><g
           transform="translate(101.6909,32.2324)"
           id="g108"><path
             id="path110"
             style="fill:none;stroke:#2c2c2b;stroke-width:1;stroke-linecap:butt;stroke-linejoin:miter;stroke-miterlimit:4;stroke-dasharray:none;stroke-opacity:1"
             d="m 0,0 c -1.793,0 -3.246,-1.453 -3.246,-3.246 0,-1.791 1.453,-3.244 3.246,-3.244 1.792,0 3.245,1.453 3.245,3.244 C 3.245,-1.453 1.792,0 0,0 Z" /></g><g
           transform="translate(93.2056,32.2324)"
           id="g112"><path
             id="path114"
             style="fill:none;stroke:#2c2c2b;stroke-width:1;stroke-linecap:butt;stroke-linejoin:miter;stroke-miterlimit:4;stroke-dasharray:none;stroke-opacity:1"
             d="m 0,0 c -1.793,0 -3.246,-1.453 -3.246,-3.246 0,-1.791 1.453,-3.244 3.246,-3.244 1.792,0 3.245,1.453 3.245,3.244 C 3.245,-1.453 1.792,0 0,0 Z" /></g><g
           transform="translate(97.4478,39.5645)"
           id="g116"><path
             id="path118"
             style="fill:none;stroke:#2c2c2b;stroke-width:1;stroke-linecap:butt;stroke-linejoin:miter;stroke-miterlimit:4;stroke-dasharray:none;stroke-opacity:1"
             d="m 0,0 c -1.792,0 -3.245,-1.451 -3.245,-3.244 0,-1.793 1.453,-3.246 3.245,-3.246 1.793,0 3.245,1.453 3.245,3.246 C 3.245,-1.451 1.793,0 0,0 Z" /></g><g
           transform="translate(97.4478,21.4473)"
           id="g120"><path
             id="path122"
             style="fill:#222223;fill-opacity:1;fill-rule:nonzero;stroke:none"
             d="m 0,0 c -0.523,0 -0.958,-0.131 -1.301,-0.393 -0.344,-0.263 -0.518,-0.63 -0.518,-1.105 0,-0.484 0.176,-0.863 0.524,-1.137 0.347,-0.275 0.795,-0.513 1.346,-0.719 0.547,0.229 0.981,0.483 1.295,0.762 0.315,0.278 0.473,0.651 0.473,1.117 0,0.475 -0.164,0.84 -0.492,1.094 C 1,-0.127 0.557,0 0,0 m -2.1,-6.117 c 0,-0.516 0.182,-0.934 0.547,-1.254 0.363,-0.318 0.873,-0.481 1.53,-0.481 0.654,0 1.174,0.161 1.559,0.475 0.384,0.315 0.578,0.752 0.578,1.309 0,0.474 -0.17,0.869 -0.51,1.185 -0.34,0.315 -0.817,0.584 -1.432,0.805 l -0.27,0.098 C -0.703,-4.201 -1.19,-4.473 -1.553,-4.797 -1.918,-5.121 -2.1,-5.561 -2.1,-6.117 M 0,0.592 c 0.754,0 1.362,-0.18 1.825,-0.537 C 2.288,-0.301 2.52,-0.807 2.52,-1.463 2.52,-1.994 2.344,-2.43 1.997,-2.77 1.649,-3.109 1.206,-3.398 0.664,-3.637 1.303,-3.898 1.819,-4.213 2.211,-4.582 2.606,-4.951 2.801,-5.441 2.801,-6.057 2.801,-6.557 2.68,-6.982 2.44,-7.334 2.198,-7.686 1.866,-7.959 1.444,-8.146 1.022,-8.334 0.541,-8.43 0,-8.43 c -0.859,0 -1.542,0.209 -2.045,0.627 -0.504,0.42 -0.756,0.981 -0.756,1.686 0,0.426 0.09,0.793 0.271,1.099 0.18,0.307 0.426,0.569 0.737,0.786 0.31,0.216 0.664,0.404 1.057,0.558 -0.329,0.156 -0.626,0.33 -0.891,0.524 -0.266,0.191 -0.479,0.425 -0.639,0.699 -0.16,0.275 -0.24,0.599 -0.24,0.976 0,0.426 0.109,0.795 0.326,1.106 0.217,0.31 0.513,0.551 0.89,0.715 0.377,0.164 0.808,0.246 1.29,0.246" /></g><g
           transform="translate(152.5908,177.1743)"
           id="g124"><path
             id="path126"
             style="fill:#cf3c3c;fill-opacity:1;fill-rule:nonzero;stroke:none"
             d="m 0,0 h 20.988 c 2.084,0 3.776,-1.69 3.776,-3.775 v -32.134 c 0,-2.086 -1.692,-3.776 -3.776,-3.776 H 0 c -2.084,0 -3.775,1.69 -3.775,3.776 V -3.775 C -3.775,-1.69 -2.084,0 0,0" /></g><g
           transform="translate(153.1162,176.0601)"
           id="g128"><path
             id="path130"
             style="fill:#f0f1f0;fill-opacity:1;fill-rule:nonzero;stroke:none"
             d="m 0,0 h 19.937 c 1.76,0 3.186,-1.426 3.186,-3.186 v -31.085 c 0,-1.758 -1.426,-3.185 -3.186,-3.185 H 0 c -1.76,0 -3.186,1.427 -3.186,3.185 V -3.186 C -3.186,-1.426 -1.76,0 0,0" /></g><g
           transform="translate(155.5928,170.1587)"
           id="g132"><path
             id="path134"
             style="fill:none;stroke:#cf3c3c;stroke-width:1;stroke-linecap:butt;stroke-linejoin:miter;stroke-miterlimit:4;stroke-dasharray:none;stroke-opacity:1"
             d="M 0,0 7.492,-12.979 14.986,0 Z" /></g><g
           transform="translate(162.9014,148.9834)"
           id="g136"><path
             id="path138"
             style="fill:#cf3c3c;fill-opacity:1;fill-rule:nonzero;stroke:none"
             d="m 0,0 c 0.873,0 1.564,-0.22 2.072,-0.661 0.508,-0.44 0.762,-1.061 0.762,-1.86 0,-0.866 -0.278,-1.548 -0.84,-2.044 -0.56,-0.497 -1.321,-0.745 -2.283,-0.745 -0.448,0 -0.857,0.046 -1.229,0.134 -0.373,0.088 -0.691,0.204 -0.955,0.347 v 0.683 c 0.279,-0.167 0.614,-0.303 1.002,-0.405 0.389,-0.106 0.787,-0.157 1.194,-0.157 0.73,0 1.314,0.181 1.756,0.545 0.439,0.365 0.66,0.896 0.66,1.592 0,0.626 -0.191,1.109 -0.571,1.453 -0.38,0.346 -0.959,0.518 -1.736,0.518 -0.304,0 -0.6,-0.021 -0.889,-0.061 -0.287,-0.04 -0.552,-0.092 -0.792,-0.155 l -0.372,0.252 0.348,3.951 H 2.283 V 2.763 h -3.58 l -0.24,-2.954 c 0.168,0.03 0.381,0.07 0.635,0.118 C -0.645,-0.023 -0.344,0 0,0" /></g><g
           transform="translate(119.7744,133.665)"
           id="g140"><path
             id="path142"
             style="fill:#cf3c3c;fill-opacity:1;fill-rule:nonzero;stroke:none"
             d="m 0,0 h 20.986 c 2.086,0 3.776,-1.69 3.776,-3.775 v -32.134 c 0,-2.086 -1.69,-3.776 -3.776,-3.776 H 0 c -2.086,0 -3.775,1.69 -3.775,3.776 V -3.775 C -3.775,-1.69 -2.086,0 0,0" /></g><g
           transform="translate(120.2988,132.5508)"
           id="g144"><path
             id="path146"
             style="fill:#f0f1f0;fill-opacity:1;fill-rule:nonzero;stroke:none"
             d="m 0,0 h 19.937 c 1.759,0 3.185,-1.427 3.185,-3.186 v -31.085 c 0,-1.758 -1.426,-3.185 -3.185,-3.185 H 0 c -1.759,0 -3.185,1.427 -3.185,3.185 V -3.186 C -3.185,-1.427 -1.759,0 0,0" /></g><g
           transform="translate(122.7744,126.6494)"
           id="g148"><path
             id="path150"
             style="fill:none;stroke:#cf3c3c;stroke-width:1;stroke-linecap:butt;stroke-linejoin:miter;stroke-miterlimit:4;stroke-dasharray:none;stroke-opacity:1"
             d="M 0,0 7.493,-12.979 14.986,0 Z" /></g><g
           transform="translate(129.3828,98.4829)"
           id="g152"><path
             id="path154"
             style="fill:#cf3c3c;fill-opacity:1;fill-rule:nonzero;stroke:none"
             d="m 0,0 c -0.213,0 -0.394,0.016 -0.541,0.049 -0.147,0.033 -0.278,0.066 -0.392,0.097 v 0.639 c 0.122,-0.033 0.261,-0.064 0.417,-0.098 0.156,-0.033 0.324,-0.048 0.503,-0.048 0.917,0 1.376,0.548 1.376,1.644 v 8.721 H 2.075 V 2.308 C 2.075,1.587 1.901,1.023 1.554,0.613 1.205,0.205 0.687,0 0,0" /></g><g
           transform="translate(54.1401,90.1582)"
           id="g156"><path
             id="path158"
             style="fill:#cf3c3c;fill-opacity:1;fill-rule:nonzero;stroke:none"
             d="m 0,0 h 20.987 c 2.085,0 3.776,-1.691 3.776,-3.775 V -35.91 c 0,-2.086 -1.691,-3.776 -3.776,-3.776 H 0 c -2.085,0 -3.775,1.69 -3.775,3.776 V -3.775 C -3.775,-1.691 -2.085,0 0,0" /></g><g
           transform="translate(54.665,89.043)"
           id="g160"><path
             id="path162"
             style="fill:#f0f1f0;fill-opacity:1;fill-rule:nonzero;stroke:none"
             d="m 0,0 h 19.937 c 1.76,0 3.186,-1.426 3.186,-3.186 v -31.085 c 0,-1.758 -1.426,-3.186 -3.186,-3.186 H 0 c -1.759,0 -3.185,1.428 -3.185,3.186 V -3.186 C -3.185,-1.426 -1.759,0 0,0" /></g><g
           transform="translate(58.1157,76.6172)"
           id="g164"><path
             id="path166"
             style="fill:none;stroke:#cf3c3c;stroke-width:1;stroke-linecap:butt;stroke-linejoin:miter;stroke-miterlimit:4;stroke-dasharray:none;stroke-opacity:1"
             d="M 0,0 6.664,-6.664 13.328,0 6.664,6.664 Z" /></g><g
           transform="translate(67.1748,63.3926)"
           id="g168"><path
             id="path170"
             style="fill:#cf3c3c;fill-opacity:1;fill-rule:nonzero;stroke:none"
             d="m 0,0 c 0,-0.582 -0.172,-1.055 -0.517,-1.424 -0.342,-0.369 -0.785,-0.603 -1.326,-0.701 v -0.049 c 0.689,-0.082 1.212,-0.305 1.572,-0.67 0.361,-0.363 0.542,-0.853 0.542,-1.467 0,-0.753 -0.267,-1.367 -0.799,-1.839 -0.533,-0.477 -1.331,-0.713 -2.395,-0.713 -0.475,0 -0.915,0.041 -1.321,0.121 -0.405,0.082 -0.776,0.205 -1.111,0.369 v 0.676 c 0.335,-0.164 0.721,-0.299 1.154,-0.405 0.434,-0.107 0.861,-0.16 1.278,-0.16 0.835,0 1.453,0.178 1.855,0.533 0.401,0.356 0.601,0.836 0.601,1.442 0,0.639 -0.237,1.096 -0.713,1.371 -0.474,0.273 -1.109,0.41 -1.903,0.41 h -0.933 v 0.615 h 0.945 c 0.679,0 1.24,0.157 1.682,0.473 0.443,0.314 0.664,0.775 0.664,1.381 0,0.516 -0.168,0.908 -0.504,1.174 -0.335,0.265 -0.782,0.4 -1.338,0.4 -0.467,0 -0.887,-0.07 -1.259,-0.209 C -4.199,1.187 -4.565,0.996 -4.925,0.75 l -0.357,0.492 c 0.336,0.262 0.73,0.479 1.18,0.651 0.45,0.171 0.958,0.257 1.522,0.257 0.819,0 1.454,-0.195 1.904,-0.584 C -0.226,1.178 0,0.656 0,0" /></g><g
           transform="translate(119.7744,90.1563)"
           id="g172"><path
             id="path174"
             style="fill:#cf3c3c;fill-opacity:1;fill-rule:nonzero;stroke:none"
             d="m 0,0 h 20.986 c 2.086,0 3.776,-1.689 3.776,-3.775 v -32.133 c 0,-2.086 -1.69,-3.776 -3.776,-3.776 H 0 c -2.086,0 -3.775,1.69 -3.775,3.776 V -3.775 C -3.775,-1.689 -2.086,0 0,0" /></g><g
           transform="translate(120.2988,89.043)"
           id="g176"><path
             id="path178"
             style="fill:#f0f1f0;fill-opacity:1;fill-rule:nonzero;stroke:none"
             d="m 0,0 h 19.937 c 1.759,0 3.185,-1.428 3.185,-3.186 v -31.085 c 0,-1.758 -1.426,-3.186 -3.185,-3.186 H 0 c -1.759,0 -3.185,1.428 -3.185,3.186 V -3.186 C -3.185,-1.428 -1.759,0 0,0" /></g><g
           transform="translate(123.749,76.6172)"
           id="g180"><path
             id="path182"
             style="fill:none;stroke:#cf3c3c;stroke-width:1;stroke-linecap:butt;stroke-linejoin:miter;stroke-miterlimit:4;stroke-dasharray:none;stroke-opacity:1"
             d="M 0,0 6.664,-6.664 13.328,0 6.664,6.664 Z" /></g><g
           transform="translate(128.751,56.6484)"
           id="g184"><path
             id="path186"
             style="fill:#cf3c3c;fill-opacity:1;fill-rule:nonzero;stroke:none"
             d="m 0,0 3.611,8.135 h -4.95 v 0.64 H 4.375 V 8.26 L 0.762,0 Z" /></g><g
           transform="translate(152.5225,133.6665)"
           id="g188"><path
             id="path190"
             style="fill:#f0f1f0;fill-opacity:1;fill-rule:nonzero;stroke:none"
             d="M 0,0 H 21.125 C 22.988,0 24.5,-1.51 24.5,-3.375 V -36.31 c 0,-1.863 -1.512,-3.375 -3.375,-3.375 H 0 c -1.863,0 -3.375,1.512 -3.375,3.375 V -3.375 C -3.375,-1.51 -1.863,0 0,0" /></g></g></g><g
       id="g192"><g
         clip-path="url(#clipPath198)"
         id="g194"><g
           id="g200"><g
             id="g202" /><g
             mask="url(#mask214)"
             id="g226"><g
               id="g228"><path
                 id="path236"
                 style="fill:url(#radialGradient234);stroke:none"
                 d="m 152.522,133.666 c -1.863,0 -3.375,-1.51 -3.375,-3.375 v 0 -32.934 c 0,-1.863 1.512,-3.375 3.375,-3.375 v 0 h 21.126 c 1.863,0 3.375,1.512 3.375,3.375 v 0 32.934 c 0,1.865 -1.512,3.375 -3.375,3.375 v 0 z" /></g></g></g></g></g><g
       id="g238"><g
         clip-path="url(#clipPath244)"
         id="g240"><g
           transform="translate(157.04,112.5347)"
           id="g246"><path
             id="path248"
             style="fill:none;stroke:#222223;stroke-width:0.5;stroke-linecap:butt;stroke-linejoin:miter;stroke-miterlimit:4;stroke-dasharray:none;stroke-opacity:1"
             d="m 0,0 c 0,-0.629 0.512,-1.141 1.143,-1.141 0.628,0 1.14,0.512 1.14,1.141 0,0.631 -0.512,1.142 -1.14,1.142 C 0.512,1.142 0,0.631 0,0" /></g><g
           transform="translate(154.0557,112.5347)"
           id="g250"><path
             id="path252"
             style="fill:none;stroke:#222223;stroke-width:0.5;stroke-linecap:butt;stroke-linejoin:miter;stroke-miterlimit:4;stroke-dasharray:none;stroke-opacity:1"
             d="m 0,0 c 0,-0.629 0.512,-1.141 1.143,-1.141 0.628,0 1.14,0.512 1.14,1.141 0,0.631 -0.512,1.142 -1.14,1.142 C 0.512,1.142 0,0.631 0,0" /></g><g
           transform="translate(155.5479,115.1128)"
           id="g254"><path
             id="path256"
             style="fill:none;stroke:#222223;stroke-width:0.5;stroke-linecap:butt;stroke-linejoin:miter;stroke-miterlimit:4;stroke-dasharray:none;stroke-opacity:1"
             d="m 0,0 c 0,-0.629 0.512,-1.14 1.143,-1.14 0.628,0 1.14,0.511 1.14,1.14 0,0.631 -0.512,1.143 -1.14,1.143 C 0.512,1.143 0,0.631 0,0" /></g><g
           transform="translate(158.2061,116.2915)"
           id="g258"><path
             id="path260"
             style="fill:none;stroke:#cf3c3c;stroke-width:0.5;stroke-linecap:butt;stroke-linejoin:miter;stroke-miterlimit:4;stroke-dasharray:none;stroke-opacity:1"
             d="M 0,0 2.83,-4.902 5.659,0 Z" /></g><g
           transform="translate(167.7197,111.3569)"
           id="g262"><path
             id="path264"
             style="fill:none;stroke:#222223;stroke-width:0.5;stroke-linecap:butt;stroke-linejoin:miter;stroke-miterlimit:4;stroke-dasharray:none;stroke-opacity:1"
             d="M 0,0 -2.83,4.902 -5.659,0 Z" /></g><g
           transform="translate(167.1963,113.8237)"
           id="g266"><path
             id="path268"
             style="fill:none;stroke:#cf3c3c;stroke-width:0.52200001;stroke-linecap:butt;stroke-linejoin:miter;stroke-miterlimit:4;stroke-dasharray:none;stroke-opacity:1"
             d="M 0,0 2.457,-2.458 4.915,0 2.457,2.458 Z" /></g><g
           transform="translate(9.3145,114.7461)"
           id="g270"><path
             id="path272"
             style="fill:#222223;fill-opacity:1;fill-rule:nonzero;stroke:none"
             d="m 0,0 h 23.987 c 2.383,0 4.315,-1.931 4.315,-4.315 v -36.724 c 0,-2.385 -1.932,-4.315 -4.315,-4.315 H 0 c -2.383,0 -4.314,1.93 -4.314,4.315 V -4.315 C -4.314,-1.931 -2.383,0 0,0" /></g><g
           transform="translate(9.9141,113.4736)"
           id="g274"><path
             id="path276"
             style="fill:#f0f1f0;fill-opacity:1;fill-rule:nonzero;stroke:none"
             d="m 0,0 h 22.787 c 2.011,0 3.641,-1.632 3.641,-3.641 v -35.528 c 0,-2.008 -1.63,-3.641 -3.641,-3.641 L 0,-42.81 c -2.01,0 -3.64,1.633 -3.64,3.641 V -3.641 C -3.64,-1.632 -2.01,0 0,0" /></g><g
           transform="translate(26.1572,98.27)"
           id="g278"><path
             id="path280"
             style="fill:none;stroke:#2c2c2b;stroke-width:1;stroke-linecap:butt;stroke-linejoin:miter;stroke-miterlimit:4;stroke-dasharray:none;stroke-opacity:1"
             d="m 0,0 c -2.048,0 -3.709,-1.661 -3.709,-3.71 0,-2.05 1.661,-3.71 3.709,-3.71 2.048,0 3.709,1.66 3.709,3.71 C 3.709,-1.661 2.048,0 0,0 Z" /></g><g
           transform="translate(16.459,98.27)"
           id="g282"><path
             id="path284"
             style="fill:none;stroke:#2c2c2b;stroke-width:1;stroke-linecap:butt;stroke-linejoin:miter;stroke-miterlimit:4;stroke-dasharray:none;stroke-opacity:1"
             d="m 0,0 c -2.049,0 -3.71,-1.661 -3.71,-3.71 0,-2.05 1.661,-3.71 3.71,-3.71 2.049,0 3.71,1.66 3.71,3.71 C 3.71,-1.661 2.049,0 0,0 Z" /></g><g
           transform="translate(21.3076,106.6499)"
           id="g286"><path
             id="path288"
             style="fill:none;stroke:#2c2c2b;stroke-width:1;stroke-linecap:butt;stroke-linejoin:miter;stroke-miterlimit:4;stroke-dasharray:none;stroke-opacity:1"
             d="m 0,0 c -2.048,0 -3.708,-1.661 -3.708,-3.71 0,-2.047 1.66,-3.708 3.708,-3.708 2.049,0 3.71,1.661 3.71,3.708 C 3.71,-1.661 2.049,0 0,0 Z" /></g><g
           transform="translate(20.2959,74.5381)"
           id="g290"><path
             id="path292"
             style="fill:#2b2c2b;fill-opacity:1;fill-rule:nonzero;stroke:none"
             d="m 0,0 c -0.243,0 -0.45,0.018 -0.618,0.056 -0.169,0.038 -0.319,0.076 -0.448,0.111 v 0.73 c 0.14,-0.038 0.298,-0.074 0.477,-0.111 0.177,-0.038 0.369,-0.057 0.574,-0.057 1.049,0 1.573,0.627 1.573,1.879 v 9.968 H 2.372 V 2.638 C 2.372,1.813 2.173,1.169 1.776,0.701 1.377,0.234 0.786,0 0,0" /></g><g
           transform="translate(167.3369,113.8242)"
           id="g294"><path
             id="path296"
             style="fill:#4abed9;fill-opacity:1;fill-rule:nonzero;stroke:none"
             d="m 0,0 c 0,-2.349 -1.904,-4.252 -4.252,-4.252 -2.349,0 -4.252,1.903 -4.252,4.252 0,2.349 1.903,4.252 4.252,4.252 C -1.904,4.252 0,2.349 0,0" /></g><g
           transform="translate(167.3369,113.8242)"
           id="g298"><path
             id="path300"
             style="fill:none;stroke:#f1f1f1;stroke-width:1;stroke-linecap:butt;stroke-linejoin:miter;stroke-miterlimit:4;stroke-dasharray:none;stroke-opacity:1"
             d="m 0,0 c 0,-2.349 -1.904,-4.252 -4.252,-4.252 -2.349,0 -4.252,1.903 -4.252,4.252 0,2.349 1.903,4.252 4.252,4.252 C -1.904,4.252 0,2.349 0,0 Z" /></g><g
           transform="translate(134.5195,113.8228)"
           id="g302"><path
             id="path304"
             style="fill:#f6c735;fill-opacity:1;fill-rule:nonzero;stroke:none"
             d="m 0,0 c 0,-2.349 -1.904,-4.252 -4.252,-4.252 -2.349,0 -4.252,1.903 -4.252,4.252 0,2.349 1.903,4.252 4.252,4.252 C -1.904,4.252 0,2.349 0,0" /></g><g
           transform="translate(134.5195,113.8228)"
           id="g306"><path
             id="path308"
             style="fill:none;stroke:#f1f1f1;stroke-width:1;stroke-linecap:butt;stroke-linejoin:miter;stroke-miterlimit:4;stroke-dasharray:none;stroke-opacity:1"
             d="m 0,0 c 0,-2.349 -1.904,-4.252 -4.252,-4.252 -2.349,0 -4.252,1.903 -4.252,4.252 0,2.349 1.903,4.252 4.252,4.252 C -1.904,4.252 0,2.349 0,0 Z" /></g><g
           transform="translate(68.8862,157.3315)"
           id="g310"><path
             id="path312"
             style="fill:#b067a6;fill-opacity:1;fill-rule:nonzero;stroke:none"
             d="m 0,0 c 0,-2.349 -1.904,-4.252 -4.252,-4.252 -2.349,0 -4.252,1.903 -4.252,4.252 0,2.349 1.903,4.252 4.252,4.252 C -1.904,4.252 0,2.349 0,0" /></g><g
           transform="translate(68.8857,113.8232)"
           id="g314"><path
             id="path316"
             style="fill:#b067a6;fill-opacity:1;fill-rule:nonzero;stroke:none"
             d="m 0,0 c 0,-2.349 -1.904,-4.252 -4.252,-4.252 -2.349,0 -4.252,1.903 -4.252,4.252 0,2.349 1.903,4.252 4.252,4.252 C -1.904,4.252 0,2.349 0,0" /></g><g
           transform="translate(134.5195,157.332)"
           id="g318"><path
             id="path320"
             style="fill:#b067a6;fill-opacity:1;fill-rule:nonzero;stroke:none"
             d="m 0,0 c 0,-2.349 -1.904,-4.252 -4.252,-4.252 -2.349,0 -4.252,1.903 -4.252,4.252 0,2.349 1.903,4.252 4.252,4.252 C -1.904,4.252 0,2.349 0,0" /></g><g
           transform="translate(101.7026,70.3145)"
           id="g322"><path
             id="path324"
             style="fill:#b067a6;fill-opacity:1;fill-rule:nonzero;stroke:none"
             d="m 0,0 c 0,-2.349 -1.904,-4.252 -4.252,-4.252 -2.349,0 -4.252,1.903 -4.252,4.252 0,2.349 1.903,4.252 4.252,4.252 C -1.904,4.252 0,2.349 0,0" /></g><g
           transform="translate(68.8857,26.8066)"
           id="g326"><path
             id="path328"
             style="fill:#b067a6;fill-opacity:1;fill-rule:nonzero;stroke:none"
             d="m 0,0 c 0,-2.349 -1.904,-4.252 -4.252,-4.252 -2.349,0 -4.252,1.903 -4.252,4.252 0,2.349 1.903,4.252 4.252,4.252 C -1.904,4.252 0,2.349 0,0" /></g><g
           transform="translate(167.3369,70.3145)"
           id="g330"><path
             id="path332"
             style="fill:#b067a6;fill-opacity:1;fill-rule:nonzero;stroke:none"
             d="m 0,0 c 0,-2.349 -1.904,-4.252 -4.252,-4.252 -2.349,0 -4.252,1.903 -4.252,4.252 0,2.349 1.903,4.252 4.252,4.252 C -1.904,4.252 0,2.349 0,0" /></g><g
           transform="translate(134.5195,26.8066)"
           id="g334"><path
             id="path336"
             style="fill:#b067a6;fill-opacity:1;fill-rule:nonzero;stroke:none"
             d="m 0,0 c 0,-2.349 -1.904,-4.252 -4.252,-4.252 -2.349,0 -4.252,1.903 -4.252,4.252 0,2.349 1.903,4.252 4.252,4.252 C -1.904,4.252 0,2.349 0,0" /></g><g
           transform="translate(167.3369,26.8076)"
           id="g338"><path
             id="path340"
             style="fill:#b067a6;fill-opacity:1;fill-rule:nonzero;stroke:none"
             d="m 0,0 c 0,-2.349 -1.904,-4.252 -4.252,-4.252 -2.349,0 -4.252,1.903 -4.252,4.252 0,2.349 1.903,4.252 4.252,4.252 C -1.904,4.252 0,2.349 0,0" /></g><g
           transform="translate(101.7026,113.8242)"
           id="g342"><path
             id="path344"
             style="fill:#7889c4;fill-opacity:1;fill-rule:nonzero;stroke:none"
             d="m 0,0 c 0,-2.349 -1.904,-4.252 -4.252,-4.252 -2.349,0 -4.252,1.903 -4.252,4.252 0,2.349 1.903,4.252 4.252,4.252 C -1.904,4.252 0,2.349 0,0" /></g><g
           transform="translate(101.7026,113.8242)"
           id="g346"><path
             id="path348"
             style="fill:none;stroke:#f1f1f1;stroke-width:1;stroke-linecap:butt;stroke-linejoin:miter;stroke-miterlimit:4;stroke-dasharray:none;stroke-opacity:1"
             d="m 0,0 c 0,-2.349 -1.904,-4.252 -4.252,-4.252 -2.349,0 -4.252,1.903 -4.252,4.252 0,2.349 1.903,4.252 4.252,4.252 C -1.904,4.252 0,2.349 0,0 Z" /></g><g
           transform="translate(101.6997,26.8076)"
           id="g350"><path
             id="path352"
             style="fill:#7889c4;fill-opacity:1;fill-rule:nonzero;stroke:none"
             d="m 0,0 c 0,-2.349 -1.904,-4.252 -4.252,-4.252 -2.349,0 -4.252,1.903 -4.252,4.252 0,2.349 1.903,4.252 4.252,4.252 C -1.904,4.252 0,2.349 0,0" /></g><g
           transform="translate(101.6997,26.8076)"
           id="g354"><path
             id="path356"
             style="fill:none;stroke:#f1f1f1;stroke-width:1;stroke-linecap:butt;stroke-linejoin:miter;stroke-miterlimit:4;stroke-dasharray:none;stroke-opacity:1"
             d="m 0,0 c 0,-2.349 -1.904,-4.252 -4.252,-4.252 -2.349,0 -4.252,1.903 -4.252,4.252 0,2.349 1.903,4.252 4.252,4.252 C -1.904,4.252 0,2.349 0,0 Z" /></g><g
           transform="translate(101.6997,157.3315)"
           id="g358"><path
             id="path360"
             style="fill:#7889c4;fill-opacity:1;fill-rule:nonzero;stroke:none"
             d="m 0,0 c 0,-2.349 -1.904,-4.252 -4.252,-4.252 -2.349,0 -4.252,1.903 -4.252,4.252 0,2.349 1.903,4.252 4.252,4.252 C -1.904,4.252 0,2.349 0,0" /></g><g
           transform="translate(101.6997,157.3315)"
           id="g362"><path
             id="path364"
             style="fill:none;stroke:#f1f1f1;stroke-width:1;stroke-linecap:butt;stroke-linejoin:miter;stroke-miterlimit:4;stroke-dasharray:none;stroke-opacity:1"
             d="m 0,0 c 0,-2.349 -1.904,-4.252 -4.252,-4.252 -2.349,0 -4.252,1.903 -4.252,4.252 0,2.349 1.903,4.252 4.252,4.252 C -1.904,4.252 0,2.349 0,0 Z" /></g></g></g></g></svg>