<?xml version="1.0" encoding="UTF-8" standalone="no"?>
<svg
   xmlns:dc="http://purl.org/dc/elements/1.1/"
   xmlns:cc="http://creativecommons.org/ns#"
   xmlns:rdf="http://www.w3.org/1999/02/22-rdf-syntax-ns#"
   xmlns:svg="http://www.w3.org/2000/svg"
   xmlns="http://www.w3.org/2000/svg"
   viewBox="0 0 373 245.66933"
   height="245.66933"
   width="373"
   xml:space="preserve"
   id="svg2"
   version="1.1"><metadata
     id="metadata8"><rdf:RDF><cc:Work
         rdf:about=""><dc:format>image/svg+xml</dc:format><dc:type
           rdf:resource="http://purl.org/dc/dcmitype/StillImage" /></cc:Work></rdf:RDF></metadata><defs
     id="defs6"><clipPath
       id="clipPath18"
       clipPathUnits="userSpaceOnUse"><path
         id="path16"
         d="M 0,184.252 H 279.75 V 0 H 0 Z" /></clipPath><clipPath
       id="clipPath122"
       clipPathUnits="userSpaceOnUse"><path
         id="path120"
         d="m 250.09,133.722 c -1.865,0 -3.375,-1.51 -3.375,-3.375 v 0 -32.935 c 0,-1.863 1.51,-3.375 3.375,-3.375 v 0 h 21.123 c 1.865,0 3.375,1.512 3.375,3.375 v 0 32.935 c 0,1.865 -1.51,3.375 -3.375,3.375 v 0 z" /></clipPath><radialGradient
       id="radialGradient136"
       spreadMethod="pad"
       gradientTransform="matrix(13.937014,0,0,19.843012,260.65137,113.87695)"
       gradientUnits="userSpaceOnUse"
       r="1"
       cy="0"
       cx="0"
       fy="0"
       fx="0"><stop
         id="stop132"
         offset="0"
         style="stop-opacity:1;stop-color:#ffffff" /><stop
         id="stop134"
         offset="1"
         style="stop-opacity:0;stop-color:#ffffff" /></radialGradient><mask
       id="mask138"
       height="1"
       width="1"
       y="0"
       x="0"
       maskUnits="userSpaceOnUse"><g
         id="g148"><g
           id="g146"><g
             id="g144"><g
               id="g142"><path
                 id="path140"
                 style="fill:url(#radialGradient136);stroke:none"
                 d="M -32768,32767 H 32767 V -32768 H -32768 Z" /></g></g></g></g></mask><radialGradient
       id="radialGradient158"
       spreadMethod="pad"
       gradientTransform="matrix(13.937014,0,0,19.843012,260.65137,113.87695)"
       gradientUnits="userSpaceOnUse"
       r="1"
       cy="0"
       cx="0"
       fy="0"
       fx="0"><stop
         id="stop154"
         offset="0"
         style="stop-opacity:1;stop-color:#ffffff" /><stop
         id="stop156"
         offset="1"
         style="stop-opacity:1;stop-color:#f0f1f0" /></radialGradient><clipPath
       id="clipPath168"
       clipPathUnits="userSpaceOnUse"><path
         id="path166"
         d="M 0,184.252 H 279.75 V 0 H 0 Z" /></clipPath><clipPath
       id="clipPath204"
       clipPathUnits="userSpaceOnUse"><path
         id="path202"
         d="m 151.637,90.212 c -1.864,0 -3.375,-1.51 -3.375,-3.375 v 0 -32.933 c 0,-1.864 1.511,-3.375 3.375,-3.375 v 0 h 21.124 c 1.864,0 3.375,1.511 3.375,3.375 v 0 32.933 c 0,1.865 -1.511,3.375 -3.375,3.375 v 0 z" /></clipPath><radialGradient
       id="radialGradient218"
       spreadMethod="pad"
       gradientTransform="matrix(13.935629,0,0,19.84104,162.2002,70.373047)"
       gradientUnits="userSpaceOnUse"
       r="1"
       cy="0"
       cx="0"
       fy="0"
       fx="0"><stop
         id="stop214"
         offset="0"
         style="stop-opacity:1;stop-color:#ffffff" /><stop
         id="stop216"
         offset="1"
         style="stop-opacity:0;stop-color:#ffffff" /></radialGradient><mask
       id="mask220"
       height="1"
       width="1"
       y="0"
       x="0"
       maskUnits="userSpaceOnUse"><g
         id="g230"><g
           id="g228"><g
             id="g226"><g
               id="g224"><path
                 id="path222"
                 style="fill:url(#radialGradient218);stroke:none"
                 d="M -32768,32767 H 32767 V -32768 H -32768 Z" /></g></g></g></g></mask><radialGradient
       id="radialGradient240"
       spreadMethod="pad"
       gradientTransform="matrix(13.935629,0,0,19.84104,162.2002,70.373047)"
       gradientUnits="userSpaceOnUse"
       r="1"
       cy="0"
       cx="0"
       fy="0"
       fx="0"><stop
         id="stop236"
         offset="0"
         style="stop-opacity:1;stop-color:#ffffff" /><stop
         id="stop238"
         offset="1"
         style="stop-opacity:1;stop-color:#f0f1f0" /></radialGradient><clipPath
       id="clipPath250"
       clipPathUnits="userSpaceOnUse"><path
         id="path248"
         d="M 0,184.252 H 279.75 V 0 H 0 Z" /></clipPath><clipPath
       id="clipPath286"
       clipPathUnits="userSpaceOnUse"><path
         id="path284"
         d="m 184.453,133.721 c -1.864,0 -3.375,-1.511 -3.375,-3.375 v 0 -32.935 c 0,-1.863 1.511,-3.375 3.375,-3.375 v 0 h 21.125 c 1.863,0 3.375,1.512 3.375,3.375 v 0 32.935 c 0,1.864 -1.512,3.375 -3.375,3.375 v 0 z" /></clipPath><radialGradient
       id="radialGradient300"
       spreadMethod="pad"
       gradientTransform="matrix(13.937705,0,0,19.843994,195.0166,113.87695)"
       gradientUnits="userSpaceOnUse"
       r="1"
       cy="0"
       cx="0"
       fy="0"
       fx="0"><stop
         id="stop296"
         offset="0"
         style="stop-opacity:1;stop-color:#ffffff" /><stop
         id="stop298"
         offset="1"
         style="stop-opacity:0;stop-color:#ffffff" /></radialGradient><mask
       id="mask302"
       height="1"
       width="1"
       y="0"
       x="0"
       maskUnits="userSpaceOnUse"><g
         id="g312"><g
           id="g310"><g
             id="g308"><g
               id="g306"><path
                 id="path304"
                 style="fill:url(#radialGradient300);stroke:none"
                 d="M -32768,32767 H 32767 V -32768 H -32768 Z" /></g></g></g></g></mask><radialGradient
       id="radialGradient322"
       spreadMethod="pad"
       gradientTransform="matrix(13.937705,0,0,19.843994,195.0166,113.87695)"
       gradientUnits="userSpaceOnUse"
       r="1"
       cy="0"
       cx="0"
       fy="0"
       fx="0"><stop
         id="stop318"
         offset="0"
         style="stop-opacity:1;stop-color:#ffffff" /><stop
         id="stop320"
         offset="1"
         style="stop-opacity:1;stop-color:#f0f1f0" /></radialGradient><clipPath
       id="clipPath332"
       clipPathUnits="userSpaceOnUse"><path
         id="path330"
         d="M 0,184.252 H 279.75 V 0 H 0 Z" /></clipPath><clipPath
       id="clipPath368"
       clipPathUnits="userSpaceOnUse"><path
         id="path366"
         d="m 217.272,90.212 c -1.864,0 -3.375,-1.51 -3.375,-3.375 v 0 -32.933 c 0,-1.864 1.511,-3.375 3.375,-3.375 v 0 h 21.124 c 1.863,0 3.375,1.511 3.375,3.375 v 0 32.933 c 0,1.865 -1.512,3.375 -3.375,3.375 v 0 z" /></clipPath><radialGradient
       id="radialGradient382"
       spreadMethod="pad"
       gradientTransform="matrix(13.93632,0,0,19.842024,227.83301,70.373047)"
       gradientUnits="userSpaceOnUse"
       r="1"
       cy="0"
       cx="0"
       fy="0"
       fx="0"><stop
         id="stop378"
         offset="0"
         style="stop-opacity:1;stop-color:#ffffff" /><stop
         id="stop380"
         offset="1"
         style="stop-opacity:0;stop-color:#ffffff" /></radialGradient><mask
       id="mask384"
       height="1"
       width="1"
       y="0"
       x="0"
       maskUnits="userSpaceOnUse"><g
         id="g394"><g
           id="g392"><g
             id="g390"><g
               id="g388"><path
                 id="path386"
                 style="fill:url(#radialGradient382);stroke:none"
                 d="M -32768,32767 H 32767 V -32768 H -32768 Z" /></g></g></g></g></mask><radialGradient
       id="radialGradient404"
       spreadMethod="pad"
       gradientTransform="matrix(13.93632,0,0,19.842024,227.83301,70.373047)"
       gradientUnits="userSpaceOnUse"
       r="1"
       cy="0"
       cx="0"
       fy="0"
       fx="0"><stop
         id="stop400"
         offset="0"
         style="stop-opacity:1;stop-color:#ffffff" /><stop
         id="stop402"
         offset="1"
         style="stop-opacity:1;stop-color:#f0f1f0" /></radialGradient><clipPath
       id="clipPath414"
       clipPathUnits="userSpaceOnUse"><path
         id="path412"
         d="M 0,184.252 H 279.75 V 0 H 0 Z" /></clipPath><clipPath
       id="clipPath650"
       clipPathUnits="userSpaceOnUse"><path
         id="path648"
         d="m 108.807,133.722 c -1.864,0 -3.375,-1.51 -3.375,-3.375 v 0 -32.935 c 0,-1.863 1.511,-3.375 3.375,-3.375 v 0 h 21.124 c 1.864,0 3.375,1.512 3.375,3.375 v 0 32.935 c 0,1.865 -1.511,3.375 -3.375,3.375 v 0 z" /></clipPath><radialGradient
       id="radialGradient664"
       spreadMethod="pad"
       gradientTransform="matrix(13.937014,0,0,19.843012,119.37012,113.87695)"
       gradientUnits="userSpaceOnUse"
       r="1"
       cy="0"
       cx="0"
       fy="0"
       fx="0"><stop
         id="stop660"
         offset="0"
         style="stop-opacity:1;stop-color:#ffffff" /><stop
         id="stop662"
         offset="1"
         style="stop-opacity:0;stop-color:#ffffff" /></radialGradient><mask
       id="mask666"
       height="1"
       width="1"
       y="0"
       x="0"
       maskUnits="userSpaceOnUse"><g
         id="g676"><g
           id="g674"><g
             id="g672"><g
               id="g670"><path
                 id="path668"
                 style="fill:url(#radialGradient664);stroke:none"
                 d="M -32768,32767 H 32767 V -32768 H -32768 Z" /></g></g></g></g></mask><radialGradient
       id="radialGradient686"
       spreadMethod="pad"
       gradientTransform="matrix(13.937014,0,0,19.843012,119.37012,113.87695)"
       gradientUnits="userSpaceOnUse"
       r="1"
       cy="0"
       cx="0"
       fy="0"
       fx="0"><stop
         id="stop682"
         offset="0"
         style="stop-opacity:1;stop-color:#ffffff" /><stop
         id="stop684"
         offset="1"
         style="stop-opacity:1;stop-color:#f0f1f0" /></radialGradient><clipPath
       id="clipPath696"
       clipPathUnits="userSpaceOnUse"><path
         id="path694"
         d="M 0,184.252 H 279.75 V 0 H 0 Z" /></clipPath></defs><g
     transform="matrix(1.3333333,0,0,-1.3333333,0,245.66933)"
     id="g10"><g
       id="g12"><g
         clip-path="url(#clipPath18)"
         id="g14"><g
           transform="translate(150.7886,177.1646)"
           id="g20"><path
             id="path22"
             style="fill:none;stroke:#f1f1f1;stroke-width:1.02900004;stroke-linecap:butt;stroke-linejoin:miter;stroke-miterlimit:4;stroke-dasharray:none;stroke-opacity:1"
             d="m 0,0 h 22.824 c 0,-1.667 1.352,-3.018 3.018,-3.018 v -33.518 c -1.666,0 -3.018,-1.352 -3.018,-3.019 H 0 c 0,1.667 -1.352,3.019 -3.019,3.019 V -3.018 C -1.352,-3.018 0,-1.667 0,0 Z" /></g><g
           transform="translate(150.7876,133.6558)"
           id="g24"><path
             id="path26"
             style="fill:none;stroke:#f1f1f1;stroke-width:1.02900004;stroke-linecap:butt;stroke-linejoin:miter;stroke-miterlimit:4;stroke-dasharray:none;stroke-opacity:1"
             d="m 0,0 h 22.824 c 0,-1.666 1.352,-3.017 3.019,-3.017 v -33.518 c -1.667,0 -3.019,-1.352 -3.019,-3.019 H 0 c 0,1.667 -1.352,3.019 -3.019,3.019 V -3.017 C -1.352,-3.017 0,-1.666 0,0 Z" /></g><g
           transform="translate(216.4219,177.1646)"
           id="g28"><path
             id="path30"
             style="fill:none;stroke:#f1f1f1;stroke-width:1.02900004;stroke-linecap:butt;stroke-linejoin:miter;stroke-miterlimit:4;stroke-dasharray:none;stroke-opacity:1"
             d="m 0,0 h 22.824 c 0,-1.666 1.352,-3.018 3.018,-3.018 v -33.518 c -1.666,0 -3.018,-1.352 -3.018,-3.018 H 0 c 0,1.666 -1.352,3.018 -3.018,3.018 V -3.018 C -1.352,-3.018 0,-1.666 0,0 Z" /></g><g
           transform="translate(150.7876,46.6392)"
           id="g32"><path
             id="path34"
             style="fill:none;stroke:#f1f1f1;stroke-width:1.02900004;stroke-linecap:butt;stroke-linejoin:miter;stroke-miterlimit:4;stroke-dasharray:none;stroke-opacity:1"
             d="m 0,0 h 22.825 c 0,-1.667 1.352,-3.017 3.018,-3.017 v -33.519 c -1.666,0 -3.018,-1.351 -3.018,-3.017 H 0 c 0,1.666 -1.353,3.017 -3.019,3.017 V -3.017 C -1.353,-3.017 0,-1.667 0,0 Z" /></g><g
           transform="translate(249.2383,90.1479)"
           id="g36"><path
             id="path38"
             style="fill:none;stroke:#f1f1f1;stroke-width:1.02900004;stroke-linecap:butt;stroke-linejoin:miter;stroke-miterlimit:4;stroke-dasharray:none;stroke-opacity:1"
             d="m 0,0 h 22.824 c 0,-1.668 1.352,-3.019 3.02,-3.019 v -33.518 c -1.668,0 -3.02,-1.353 -3.02,-3.018 H 0 c 0,1.665 -1.352,3.018 -3.018,3.018 V -3.019 C -1.352,-3.019 0,-1.668 0,0 Z" /></g><g
           transform="translate(216.4219,46.6392)"
           id="g40"><path
             id="path42"
             style="fill:none;stroke:#f1f1f1;stroke-width:1.02900004;stroke-linecap:butt;stroke-linejoin:miter;stroke-miterlimit:4;stroke-dasharray:none;stroke-opacity:1"
             d="m 0,0 h 22.824 c 0,-1.667 1.352,-3.017 3.018,-3.017 v -33.519 c -1.666,0 -3.018,-1.351 -3.018,-3.017 H 0 c 0,1.666 -1.352,3.017 -3.018,3.017 V -3.017 C -1.352,-3.017 0,-1.667 0,0 Z" /></g><g
           transform="translate(249.2383,46.6392)"
           id="g44"><path
             id="path46"
             style="fill:none;stroke:#f1f1f1;stroke-width:1.02900004;stroke-linecap:butt;stroke-linejoin:miter;stroke-miterlimit:4;stroke-dasharray:none;stroke-opacity:1"
             d="m 0,0 h 22.824 c 0,-1.665 1.352,-3.017 3.02,-3.017 v -33.519 c -1.668,0 -3.02,-1.351 -3.02,-3.015 H 0 c 0,1.664 -1.352,3.015 -3.018,3.015 V -3.017 C -1.352,-3.017 0,-1.665 0,0 Z" /></g><g
           transform="translate(183.604,177.1646)"
           id="g48"><path
             id="path50"
             style="fill:none;stroke:#f1f1f1;stroke-width:1.02900004;stroke-linecap:butt;stroke-linejoin:miter;stroke-miterlimit:4;stroke-dasharray:none;stroke-opacity:1"
             d="m 0,0 h 22.824 c 0,-1.667 1.351,-3.018 3.017,-3.018 v -33.518 c -1.666,0 -3.017,-1.352 -3.017,-3.019 H 0 c 0,1.667 -1.352,3.019 -3.019,3.019 V -3.018 C -1.352,-3.018 0,-1.667 0,0 Z" /></g><g
           transform="translate(183.6035,46.6392)"
           id="g52"><path
             id="path54"
             style="fill:none;stroke:#f1f1f1;stroke-width:1.02900004;stroke-linecap:butt;stroke-linejoin:miter;stroke-miterlimit:4;stroke-dasharray:none;stroke-opacity:1"
             d="m 0,0 h 22.825 c 0,-1.667 1.352,-3.017 3.018,-3.017 v -33.519 c -1.666,0 -3.018,-1.351 -3.018,-3.017 H 0 c 0,1.666 -1.353,3.017 -3.019,3.017 V -3.017 C -1.353,-3.017 0,-1.667 0,0 Z" /></g><g
           transform="translate(184.5225,90.2124)"
           id="g56"><path
             id="path58"
             style="fill:#222223;fill-opacity:1;fill-rule:nonzero;stroke:none"
             d="m 0,0 h 20.987 c 2.086,0 3.775,-1.689 3.775,-3.775 v -32.133 c 0,-2.086 -1.689,-3.776 -3.775,-3.776 H 0 c -2.085,0 -3.775,1.69 -3.775,3.776 V -3.775 C -3.775,-1.689 -2.085,0 0,0" /></g><g
           transform="translate(185.0469,89.0991)"
           id="g60"><path
             id="path62"
             style="fill:#f0f1f0;fill-opacity:1;fill-rule:nonzero;stroke:none"
             d="m 0,0 h 19.937 c 1.76,0 3.186,-1.428 3.186,-3.186 v -31.085 c 0,-1.758 -1.426,-3.186 -3.186,-3.186 H 0 c -1.759,0 -3.185,1.428 -3.185,3.186 V -3.186 C -3.185,-1.428 -1.759,0 0,0" /></g><g
           transform="translate(199.2588,75.7964)"
           id="g64"><path
             id="path66"
             style="fill:none;stroke:#2c2c2b;stroke-width:1;stroke-linecap:butt;stroke-linejoin:miter;stroke-miterlimit:4;stroke-dasharray:none;stroke-opacity:1"
             d="m 0,0 c -1.793,0 -3.246,-1.453 -3.246,-3.246 0,-1.793 1.453,-3.246 3.246,-3.246 1.792,0 3.245,1.453 3.245,3.246 C 3.245,-1.453 1.792,0 0,0 Z" /></g><g
           transform="translate(190.7734,75.7964)"
           id="g68"><path
             id="path70"
             style="fill:none;stroke:#2c2c2b;stroke-width:1;stroke-linecap:butt;stroke-linejoin:miter;stroke-miterlimit:4;stroke-dasharray:none;stroke-opacity:1"
             d="m 0,0 c -1.793,0 -3.246,-1.453 -3.246,-3.246 0,-1.793 1.453,-3.246 3.246,-3.246 1.792,0 3.245,1.453 3.245,3.246 C 3.245,-1.453 1.792,0 0,0 Z" /></g><g
           transform="translate(195.0156,83.1284)"
           id="g72"><path
             id="path74"
             style="fill:none;stroke:#2c2c2b;stroke-width:1;stroke-linecap:butt;stroke-linejoin:miter;stroke-miterlimit:4;stroke-dasharray:none;stroke-opacity:1"
             d="m 0,0 c -1.792,0 -3.245,-1.453 -3.245,-3.246 0,-1.791 1.453,-3.244 3.245,-3.244 1.793,0 3.245,1.453 3.245,3.244 C 3.245,-1.453 1.793,0 0,0 Z" /></g><g
           transform="translate(194.1313,55.0308)"
           id="g76"><path
             id="path78"
             style="fill:#1d1d1d;fill-opacity:1;fill-rule:nonzero;stroke:none"
             d="m 0,0 c -0.213,0 -0.394,0.016 -0.541,0.049 -0.147,0.033 -0.278,0.064 -0.393,0.097 v 0.637 c 0.123,-0.031 0.262,-0.062 0.418,-0.096 0.156,-0.035 0.324,-0.048 0.503,-0.048 0.917,0 1.376,0.547 1.376,1.644 v 8.721 H 2.075 V 2.307 C 2.075,1.588 1.901,1.021 1.554,0.611 1.205,0.205 0.687,0 0,0" /></g><g
           transform="translate(250.1582,177.23)"
           id="g80"><path
             id="path82"
             style="fill:#cf3c3c;fill-opacity:1;fill-rule:nonzero;stroke:none"
             d="m 0,0 h 20.986 c 2.086,0 3.776,-1.69 3.776,-3.775 v -32.134 c 0,-2.086 -1.69,-3.776 -3.776,-3.776 H 0 c -2.086,0 -3.775,1.69 -3.775,3.776 V -3.775 C -3.775,-1.69 -2.086,0 0,0" /></g><g
           transform="translate(250.6836,176.1157)"
           id="g84"><path
             id="path86"
             style="fill:#f0f1f0;fill-opacity:1;fill-rule:nonzero;stroke:none"
             d="m 0,0 h 19.937 c 1.758,0 3.186,-1.426 3.186,-3.186 v -31.085 c 0,-1.758 -1.428,-3.185 -3.186,-3.185 H 0 c -1.76,0 -3.186,1.427 -3.186,3.185 V -3.186 C -3.186,-1.426 -1.76,0 0,0" /></g><g
           transform="translate(253.1582,170.2144)"
           id="g88"><path
             id="path90"
             style="fill:none;stroke:#cf3c3c;stroke-width:1;stroke-linecap:butt;stroke-linejoin:miter;stroke-miterlimit:4;stroke-dasharray:none;stroke-opacity:1"
             d="M 0,0 7.494,-12.979 14.986,0 Z" /></g><g
           transform="translate(260.4687,149.0386)"
           id="g92"><path
             id="path94"
             style="fill:#cf3c3c;fill-opacity:1;fill-rule:nonzero;stroke:none"
             d="m 0,0 c 0.873,0 1.562,-0.22 2.072,-0.661 0.506,-0.439 0.762,-1.06 0.762,-1.86 0,-0.865 -0.279,-1.547 -0.842,-2.043 -0.558,-0.497 -1.32,-0.746 -2.281,-0.746 -0.449,0 -0.857,0.046 -1.231,0.134 -0.371,0.088 -0.691,0.204 -0.955,0.348 v 0.684 c 0.28,-0.168 0.614,-0.304 1.004,-0.407 0.387,-0.105 0.785,-0.157 1.194,-0.157 0.728,0 1.312,0.182 1.754,0.546 0.439,0.366 0.662,0.896 0.662,1.591 0,0.627 -0.192,1.11 -0.573,1.454 -0.379,0.346 -0.957,0.517 -1.736,0.517 -0.303,0 -0.598,-0.021 -0.887,-0.061 -0.289,-0.04 -0.554,-0.092 -0.793,-0.154 l -0.371,0.252 0.346,3.95 H 2.281 V 2.764 h -3.578 l -0.242,-2.955 c 0.17,0.03 0.381,0.07 0.637,0.118 C -0.645,-0.023 -0.344,0 0,0" /></g><g
           transform="translate(215.9912,136.271)"
           id="g96"><path
             id="path98"
             style="fill:#cf3c3c;fill-opacity:1;fill-rule:nonzero;stroke:none"
             d="m 0,0 h 23.686 c 2.352,0 4.26,-1.908 4.26,-4.26 v -36.265 c 0,-2.354 -1.908,-4.26 -4.26,-4.26 H 0 c -2.353,0 -4.261,1.906 -4.261,4.26 V -4.26 C -4.261,-1.908 -2.353,0 0,0" /></g><g
           transform="translate(216.584,135.0137)"
           id="g100"><path
             id="path102"
             style="fill:#f0f1f0;fill-opacity:1;fill-rule:nonzero;stroke:none"
             d="m 0,0 h 22.5 c 1.986,0 3.595,-1.61 3.595,-3.595 v -35.08 c 0,-1.985 -1.609,-3.596 -3.595,-3.596 H 0 c -1.986,0 -3.595,1.611 -3.595,3.596 v 35.08 C -3.595,-1.61 -1.986,0 0,0" /></g><g
           transform="translate(219.377,128.354)"
           id="g104"><path
             id="path106"
             style="fill:none;stroke:#cf3c3c;stroke-width:1;stroke-linecap:butt;stroke-linejoin:miter;stroke-miterlimit:4;stroke-dasharray:none;stroke-opacity:1"
             d="M 0,0 8.457,-14.647 16.912,0 Z" /></g><g
           transform="translate(224.2246,104.5229)"
           id="g108"><path
             id="path110"
             style="fill:#cf3c3c;fill-opacity:1;fill-rule:nonzero;stroke:none"
             d="m 0,0 c 0,-0.879 0.13,-1.649 0.388,-2.308 0.258,-0.661 0.657,-1.174 1.191,-1.538 0.536,-0.366 1.215,-0.549 2.037,-0.549 0.833,0 1.514,0.183 2.045,0.549 0.531,0.364 0.924,0.875 1.18,1.529 C 7.094,-1.66 7.22,-0.888 7.22,0 7.22,1.366 6.922,2.437 6.327,3.208 5.729,3.98 4.842,4.366 3.658,4.366 2.836,4.366 2.152,4.183 1.605,3.817 1.062,3.453 0.659,2.942 0.395,2.287 0.132,1.63 0,0.868 0,0 M 8.066,0 C 8.066,-0.842 7.949,-1.605 7.714,-2.288 7.478,-2.971 7.125,-3.542 6.66,-4 6.192,-4.457 5.613,-4.77 4.921,-4.935 L 7.081,-7.32 H 5.945 L 4.032,-5.074 C 3.96,-5.083 3.89,-5.089 3.825,-5.093 3.759,-5.098 3.691,-5.102 3.616,-5.102 c -0.996,0 -1.827,0.216 -2.487,0.645 -0.659,0.43 -1.155,1.03 -1.483,1.803 -0.327,0.769 -0.493,1.66 -0.493,2.667 0,1.007 0.17,1.891 0.507,2.647 C -0.002,3.418 0.5,4.013 1.171,4.443 1.84,4.871 2.668,5.086 3.658,5.086 4.61,5.086 5.412,4.879 6.062,4.469 6.715,4.057 7.211,3.473 7.553,2.717 7.896,1.959 8.066,1.053 8.066,0" /></g><g
           transform="translate(250.0898,133.7222)"
           id="g112"><path
             id="path114"
             style="fill:#f0f1f0;fill-opacity:1;fill-rule:nonzero;stroke:none"
             d="m 0,0 h 21.123 c 1.865,0 3.375,-1.51 3.375,-3.375 V -36.31 c 0,-1.863 -1.51,-3.375 -3.375,-3.375 H 0 c -1.865,0 -3.375,1.512 -3.375,3.375 V -3.375 C -3.375,-1.51 -1.865,0 0,0" /></g></g></g><g
       id="g116"><g
         clip-path="url(#clipPath122)"
         id="g118"><g
           id="g124"><g
             id="g126" /><g
             mask="url(#mask138)"
             id="g150"><g
               id="g152"><path
                 id="path160"
                 style="fill:url(#radialGradient158);stroke:none"
                 d="m 250.09,133.722 c -1.865,0 -3.375,-1.51 -3.375,-3.375 v 0 -32.935 c 0,-1.863 1.51,-3.375 3.375,-3.375 v 0 h 21.123 c 1.865,0 3.375,1.512 3.375,3.375 v 0 32.935 c 0,1.865 -1.51,3.375 -3.375,3.375 v 0 z" /></g></g></g></g></g><g
       id="g162"><g
         clip-path="url(#clipPath168)"
         id="g164"><g
           transform="translate(254.6074,112.5903)"
           id="g170"><path
             id="path172"
             style="fill:none;stroke:#222223;stroke-width:0.5;stroke-linecap:butt;stroke-linejoin:miter;stroke-miterlimit:4;stroke-dasharray:none;stroke-opacity:1"
             d="m 0,0 c 0,-0.629 0.51,-1.141 1.141,-1.141 0.629,0 1.14,0.512 1.14,1.141 0,0.631 -0.511,1.142 -1.14,1.142 C 0.51,1.142 0,0.631 0,0" /></g><g
           transform="translate(251.623,112.5903)"
           id="g174"><path
             id="path176"
             style="fill:none;stroke:#222223;stroke-width:0.5;stroke-linecap:butt;stroke-linejoin:miter;stroke-miterlimit:4;stroke-dasharray:none;stroke-opacity:1"
             d="m 0,0 c 0,-0.629 0.51,-1.141 1.143,-1.141 0.628,0 1.138,0.512 1.138,1.141 0,0.631 -0.51,1.142 -1.138,1.142 C 0.51,1.142 0,0.631 0,0" /></g><g
           transform="translate(253.1152,115.1685)"
           id="g178"><path
             id="path180"
             style="fill:none;stroke:#222223;stroke-width:0.5;stroke-linecap:butt;stroke-linejoin:miter;stroke-miterlimit:4;stroke-dasharray:none;stroke-opacity:1"
             d="m 0,0 c 0,-0.629 0.51,-1.14 1.143,-1.14 0.628,0 1.138,0.511 1.138,1.14 0,0.631 -0.51,1.143 -1.138,1.143 C 0.51,1.143 0,0.631 0,0" /></g><g
           transform="translate(255.7715,116.3472)"
           id="g182"><path
             id="path184"
             style="fill:none;stroke:#cf3c3c;stroke-width:0.5;stroke-linecap:butt;stroke-linejoin:miter;stroke-miterlimit:4;stroke-dasharray:none;stroke-opacity:1"
             d="M 0,0 2.83,-4.902 5.66,0 Z" /></g><g
           transform="translate(265.2871,111.4126)"
           id="g186"><path
             id="path188"
             style="fill:none;stroke:#222223;stroke-width:0.5;stroke-linecap:butt;stroke-linejoin:miter;stroke-miterlimit:4;stroke-dasharray:none;stroke-opacity:1"
             d="M 0,0 -2.832,4.902 -5.66,0 Z" /></g><g
           transform="translate(264.7637,113.8794)"
           id="g190"><path
             id="path192"
             style="fill:none;stroke:#cf3c3c;stroke-width:0.52200001;stroke-linecap:butt;stroke-linejoin:miter;stroke-miterlimit:4;stroke-dasharray:none;stroke-opacity:1"
             d="M 0,0 2.455,-2.458 4.914,0 2.455,2.458 Z" /></g><g
           transform="translate(151.6372,90.2124)"
           id="g194"><path
             id="path196"
             style="fill:#f0f1f0;fill-opacity:1;fill-rule:nonzero;stroke:none"
             d="m 0,0 h 21.124 c 1.864,0 3.375,-1.51 3.375,-3.375 v -32.934 c 0,-1.864 -1.511,-3.375 -3.375,-3.375 H 0 c -1.864,0 -3.375,1.511 -3.375,3.375 V -3.375 C -3.375,-1.51 -1.864,0 0,0" /></g></g></g><g
       id="g198"><g
         clip-path="url(#clipPath204)"
         id="g200"><g
           id="g206"><g
             id="g208" /><g
             mask="url(#mask220)"
             id="g232"><g
               id="g234"><path
                 id="path242"
                 style="fill:url(#radialGradient240);stroke:none"
                 d="m 151.637,90.212 c -1.864,0 -3.375,-1.51 -3.375,-3.375 v 0 -32.933 c 0,-1.864 1.511,-3.375 3.375,-3.375 v 0 h 21.124 c 1.864,0 3.375,1.511 3.375,3.375 v 0 32.933 c 0,1.865 -1.511,3.375 -3.375,3.375 v 0 z" /></g></g></g></g></g><g
       id="g244"><g
         clip-path="url(#clipPath250)"
         id="g246"><g
           transform="translate(156.1548,69.0815)"
           id="g252"><path
             id="path254"
             style="fill:none;stroke:#222223;stroke-width:0.5;stroke-linecap:butt;stroke-linejoin:miter;stroke-miterlimit:4;stroke-dasharray:none;stroke-opacity:1"
             d="m 0,0 c 0,-0.63 0.511,-1.141 1.142,-1.141 0.629,0 1.14,0.511 1.14,1.141 0,0.631 -0.511,1.142 -1.14,1.142 C 0.511,1.142 0,0.631 0,0" /></g><g
           transform="translate(153.1704,69.0815)"
           id="g256"><path
             id="path258"
             style="fill:none;stroke:#222223;stroke-width:0.5;stroke-linecap:butt;stroke-linejoin:miter;stroke-miterlimit:4;stroke-dasharray:none;stroke-opacity:1"
             d="m 0,0 c 0,-0.63 0.511,-1.141 1.143,-1.141 0.628,0 1.139,0.511 1.139,1.141 0,0.631 -0.511,1.142 -1.139,1.142 C 0.511,1.142 0,0.631 0,0" /></g><g
           transform="translate(154.6626,71.6597)"
           id="g260"><path
             id="path262"
             style="fill:none;stroke:#222223;stroke-width:0.5;stroke-linecap:butt;stroke-linejoin:miter;stroke-miterlimit:4;stroke-dasharray:none;stroke-opacity:1"
             d="m 0,0 c 0,-0.629 0.511,-1.141 1.143,-1.141 0.628,0 1.139,0.512 1.139,1.141 0,0.631 -0.511,1.143 -1.139,1.143 C 0.511,1.143 0,0.631 0,0" /></g><g
           transform="translate(157.3198,72.8374)"
           id="g264"><path
             id="path266"
             style="fill:none;stroke:#cf3c3c;stroke-width:0.5;stroke-linecap:butt;stroke-linejoin:miter;stroke-miterlimit:4;stroke-dasharray:none;stroke-opacity:1"
             d="M 0,0 2.83,-4.902 5.659,0 Z" /></g><g
           transform="translate(166.8345,67.9038)"
           id="g268"><path
             id="path270"
             style="fill:none;stroke:#222223;stroke-width:0.5;stroke-linecap:butt;stroke-linejoin:miter;stroke-miterlimit:4;stroke-dasharray:none;stroke-opacity:1"
             d="M 0,0 -2.831,4.902 -5.66,0 Z" /></g><g
           transform="translate(166.311,70.3706)"
           id="g272"><path
             id="path274"
             style="fill:none;stroke:#cf3c3c;stroke-width:0.52200001;stroke-linecap:butt;stroke-linejoin:miter;stroke-miterlimit:4;stroke-dasharray:none;stroke-opacity:1"
             d="M 0,0 2.456,-2.458 4.914,0 2.456,2.458 Z" /></g><g
           transform="translate(184.4536,133.7207)"
           id="g276"><path
             id="path278"
             style="fill:#f0f1f0;fill-opacity:1;fill-rule:nonzero;stroke:none"
             d="M 0,0 H 21.125 C 22.988,0 24.5,-1.51 24.5,-3.375 V -36.31 c 0,-1.863 -1.512,-3.375 -3.375,-3.375 H 0 c -1.864,0 -3.375,1.512 -3.375,3.375 V -3.375 C -3.375,-1.51 -1.864,0 0,0" /></g></g></g><g
       id="g280"><g
         clip-path="url(#clipPath286)"
         id="g282"><g
           id="g288"><g
             id="g290" /><g
             mask="url(#mask302)"
             id="g314"><g
               id="g316"><path
                 id="path324"
                 style="fill:url(#radialGradient322);stroke:none"
                 d="m 184.453,133.721 c -1.864,0 -3.375,-1.511 -3.375,-3.375 v 0 -32.935 c 0,-1.863 1.511,-3.375 3.375,-3.375 v 0 h 21.125 c 1.863,0 3.375,1.512 3.375,3.375 v 0 32.935 c 0,1.864 -1.512,3.375 -3.375,3.375 v 0 z" /></g></g></g></g></g><g
       id="g326"><g
         clip-path="url(#clipPath332)"
         id="g328"><g
           transform="translate(188.9712,112.5889)"
           id="g334"><path
             id="path336"
             style="fill:none;stroke:#222223;stroke-width:0.5;stroke-linecap:butt;stroke-linejoin:miter;stroke-miterlimit:4;stroke-dasharray:none;stroke-opacity:1"
             d="m 0,0 c 0,-0.629 0.511,-1.141 1.142,-1.141 0.629,0 1.14,0.512 1.14,1.141 0,0.631 -0.511,1.142 -1.14,1.142 C 0.511,1.142 0,0.631 0,0" /></g><g
           transform="translate(185.9868,112.5889)"
           id="g338"><path
             id="path340"
             style="fill:none;stroke:#222223;stroke-width:0.5;stroke-linecap:butt;stroke-linejoin:miter;stroke-miterlimit:4;stroke-dasharray:none;stroke-opacity:1"
             d="m 0,0 c 0,-0.629 0.511,-1.141 1.143,-1.141 0.628,0 1.139,0.512 1.139,1.141 0,0.631 -0.511,1.142 -1.139,1.142 C 0.511,1.142 0,0.631 0,0" /></g><g
           transform="translate(187.479,115.167)"
           id="g342"><path
             id="path344"
             style="fill:none;stroke:#222223;stroke-width:0.5;stroke-linecap:butt;stroke-linejoin:miter;stroke-miterlimit:4;stroke-dasharray:none;stroke-opacity:1"
             d="m 0,0 c 0,-0.629 0.511,-1.14 1.143,-1.14 0.628,0 1.139,0.511 1.139,1.14 0,0.631 -0.511,1.143 -1.139,1.143 C 0.511,1.143 0,0.631 0,0" /></g><g
           transform="translate(190.1362,116.3457)"
           id="g346"><path
             id="path348"
             style="fill:none;stroke:#cf3c3c;stroke-width:0.5;stroke-linecap:butt;stroke-linejoin:miter;stroke-miterlimit:4;stroke-dasharray:none;stroke-opacity:1"
             d="M 0,0 2.83,-4.902 5.659,0 Z" /></g><g
           transform="translate(199.6509,111.4111)"
           id="g350"><path
             id="path352"
             style="fill:none;stroke:#222223;stroke-width:0.5;stroke-linecap:butt;stroke-linejoin:miter;stroke-miterlimit:4;stroke-dasharray:none;stroke-opacity:1"
             d="M 0,0 -2.831,4.902 -5.66,0 Z" /></g><g
           transform="translate(199.1274,113.8779)"
           id="g354"><path
             id="path356"
             style="fill:none;stroke:#cf3c3c;stroke-width:0.52200001;stroke-linecap:butt;stroke-linejoin:miter;stroke-miterlimit:4;stroke-dasharray:none;stroke-opacity:1"
             d="M 0,0 2.456,-2.458 4.914,0 2.456,2.458 Z" /></g><g
           transform="translate(217.2715,90.2124)"
           id="g358"><path
             id="path360"
             style="fill:#f0f1f0;fill-opacity:1;fill-rule:nonzero;stroke:none"
             d="M 0,0 H 21.125 C 22.988,0 24.5,-1.51 24.5,-3.375 v -32.934 c 0,-1.864 -1.512,-3.375 -3.375,-3.375 H 0 c -1.863,0 -3.375,1.511 -3.375,3.375 V -3.375 C -3.375,-1.51 -1.863,0 0,0" /></g></g></g><g
       id="g362"><g
         clip-path="url(#clipPath368)"
         id="g364"><g
           id="g370"><g
             id="g372" /><g
             mask="url(#mask384)"
             id="g396"><g
               id="g398"><path
                 id="path406"
                 style="fill:url(#radialGradient404);stroke:none"
                 d="m 217.272,90.212 c -1.864,0 -3.375,-1.51 -3.375,-3.375 v 0 -32.933 c 0,-1.864 1.511,-3.375 3.375,-3.375 v 0 h 21.124 c 1.863,0 3.375,1.511 3.375,3.375 v 0 32.933 c 0,1.865 -1.512,3.375 -3.375,3.375 v 0 z" /></g></g></g></g></g><g
       id="g408"><g
         clip-path="url(#clipPath414)"
         id="g410"><g
           transform="translate(221.7891,69.0815)"
           id="g416"><path
             id="path418"
             style="fill:none;stroke:#222223;stroke-width:0.5;stroke-linecap:butt;stroke-linejoin:miter;stroke-miterlimit:4;stroke-dasharray:none;stroke-opacity:1"
             d="m 0,0 c 0,-0.63 0.512,-1.141 1.143,-1.141 0.628,0 1.14,0.511 1.14,1.141 0,0.631 -0.512,1.142 -1.14,1.142 C 0.512,1.142 0,0.631 0,0" /></g><g
           transform="translate(218.8047,69.0815)"
           id="g420"><path
             id="path422"
             style="fill:none;stroke:#222223;stroke-width:0.5;stroke-linecap:butt;stroke-linejoin:miter;stroke-miterlimit:4;stroke-dasharray:none;stroke-opacity:1"
             d="m 0,0 c 0,-0.63 0.512,-1.141 1.143,-1.141 0.628,0 1.14,0.511 1.14,1.141 0,0.631 -0.512,1.142 -1.14,1.142 C 0.512,1.142 0,0.631 0,0" /></g><g
           transform="translate(220.2969,71.6597)"
           id="g424"><path
             id="path426"
             style="fill:none;stroke:#222223;stroke-width:0.5;stroke-linecap:butt;stroke-linejoin:miter;stroke-miterlimit:4;stroke-dasharray:none;stroke-opacity:1"
             d="m 0,0 c 0,-0.629 0.512,-1.141 1.143,-1.141 0.628,0 1.14,0.512 1.14,1.141 0,0.631 -0.512,1.143 -1.14,1.143 C 0.512,1.143 0,0.631 0,0" /></g><g
           transform="translate(222.9551,72.8374)"
           id="g428"><path
             id="path430"
             style="fill:none;stroke:#cf3c3c;stroke-width:0.5;stroke-linecap:butt;stroke-linejoin:miter;stroke-miterlimit:4;stroke-dasharray:none;stroke-opacity:1"
             d="M 0,0 2.83,-4.902 5.658,0 Z" /></g><g
           transform="translate(232.4687,67.9038)"
           id="g432"><path
             id="path434"
             style="fill:none;stroke:#222223;stroke-width:0.5;stroke-linecap:butt;stroke-linejoin:miter;stroke-miterlimit:4;stroke-dasharray:none;stroke-opacity:1"
             d="M 0,0 -2.83,4.902 -5.66,0 Z" /></g><g
           transform="translate(231.9453,70.3706)"
           id="g436"><path
             id="path438"
             style="fill:none;stroke:#cf3c3c;stroke-width:0.52200001;stroke-linecap:butt;stroke-linejoin:miter;stroke-miterlimit:4;stroke-dasharray:none;stroke-opacity:1"
             d="M 0,0 2.457,-2.458 4.914,0 2.457,2.458 Z" /></g><g
           transform="translate(260.6523,157.9219)"
           id="g440"><path
             id="path442"
             style="fill:none;stroke:#49bed9;stroke-width:1.02900004;stroke-linecap:butt;stroke-linejoin:miter;stroke-miterlimit:4;stroke-dasharray:none;stroke-opacity:1"
             d="M 0,0 -65.637,-88.087" /></g><g
           transform="translate(195.0156,157.9219)"
           id="g444"><path
             id="path446"
             style="fill:none;stroke:#49bed9;stroke-width:1.02900004;stroke-linecap:butt;stroke-linejoin:miter;stroke-miterlimit:4;stroke-dasharray:none;stroke-opacity:1"
             d="M 0,0 65.637,-88.087" /></g><g
           transform="translate(184.5225,133.7187)"
           id="g448"><path
             id="path450"
             style="fill:#222223;fill-opacity:1;fill-rule:nonzero;stroke:none"
             d="m 0,0 h 20.987 c 2.085,0 3.776,-1.69 3.776,-3.775 v -32.134 c 0,-2.086 -1.691,-3.776 -3.776,-3.776 H 0 c -2.085,0 -3.775,1.69 -3.775,3.776 V -3.775 C -3.775,-1.69 -2.085,0 0,0" /></g><g
           transform="translate(185.0479,132.6045)"
           id="g452"><path
             id="path454"
             style="fill:#f0f1f0;fill-opacity:1;fill-rule:nonzero;stroke:none"
             d="m 0,0 h 19.937 c 1.759,0 3.185,-1.427 3.185,-3.186 v -31.085 c 0,-1.758 -1.426,-3.185 -3.185,-3.185 H 0 c -1.76,0 -3.186,1.427 -3.186,3.185 V -3.186 C -3.186,-1.427 -1.76,0 0,0" /></g><g
           transform="translate(199.2588,119.3018)"
           id="g456"><path
             id="path458"
             style="fill:none;stroke:#2c2c2b;stroke-width:1;stroke-linecap:butt;stroke-linejoin:miter;stroke-miterlimit:4;stroke-dasharray:none;stroke-opacity:1"
             d="m 0,0 c -1.792,0 -3.245,-1.453 -3.245,-3.245 0,-1.793 1.453,-3.246 3.245,-3.246 1.793,0 3.245,1.453 3.245,3.246 C 3.245,-1.453 1.793,0 0,0 Z" /></g><g
           transform="translate(190.7734,119.3018)"
           id="g460"><path
             id="path462"
             style="fill:none;stroke:#2c2c2b;stroke-width:1;stroke-linecap:butt;stroke-linejoin:miter;stroke-miterlimit:4;stroke-dasharray:none;stroke-opacity:1"
             d="m 0,0 c -1.792,0 -3.245,-1.453 -3.245,-3.245 0,-1.793 1.453,-3.246 3.245,-3.246 1.793,0 3.246,1.453 3.246,3.246 C 3.246,-1.453 1.793,0 0,0 Z" /></g><g
           transform="translate(195.0166,126.6348)"
           id="g464"><path
             id="path466"
             style="fill:none;stroke:#2c2c2b;stroke-width:1;stroke-linecap:butt;stroke-linejoin:miter;stroke-miterlimit:4;stroke-dasharray:none;stroke-opacity:1"
             d="m 0,0 c -1.793,0 -3.245,-1.453 -3.245,-3.246 0,-1.792 1.452,-3.245 3.245,-3.245 1.792,0 3.245,1.453 3.245,3.245 C 3.245,-1.453 1.792,0 0,0 Z" /></g><g
           transform="translate(197.5605,106.9561)"
           id="g468"><path
             id="path470"
             style="fill:#222223;fill-opacity:1;fill-rule:nonzero;stroke:none"
             d="m 0,0 c 0,-0.582 -0.173,-1.057 -0.517,-1.424 -0.344,-0.369 -0.787,-0.604 -1.327,-0.701 v -0.049 c 0.688,-0.082 1.212,-0.305 1.573,-0.67 0.361,-0.364 0.541,-0.854 0.541,-1.468 0,-0.753 -0.266,-1.369 -0.799,-1.844 -0.533,-0.474 -1.331,-0.713 -2.396,-0.713 -0.475,0 -0.915,0.041 -1.32,0.123 -0.406,0.082 -0.777,0.205 -1.113,0.37 v 0.675 c 0.336,-0.164 0.72,-0.299 1.156,-0.406 0.433,-0.105 0.859,-0.158 1.277,-0.158 0.835,0 1.453,0.178 1.855,0.533 0.401,0.357 0.602,0.838 0.602,1.444 0,0.639 -0.238,1.096 -0.713,1.37 -0.474,0.275 -1.109,0.412 -1.904,0.412 h -0.933 v 0.613 h 0.946 c 0.679,0 1.24,0.158 1.682,0.475 0.443,0.314 0.664,0.775 0.664,1.381 0,0.516 -0.169,0.909 -0.503,1.174 -0.336,0.266 -0.783,0.399 -1.339,0.399 -0.467,0 -0.887,-0.071 -1.26,-0.209 C -4.2,1.188 -4.567,0.995 -4.928,0.75 l -0.356,0.491 c 0.336,0.261 0.728,0.478 1.18,0.65 0.45,0.174 0.958,0.26 1.523,0.26 0.818,0 1.453,-0.195 1.904,-0.584 C -0.226,1.178 0,0.657 0,0" /></g><g
           transform="translate(151.707,90.2114)"
           id="g472"><path
             id="path474"
             style="fill:#cf3c3c;fill-opacity:1;fill-rule:nonzero;stroke:none"
             d="m 0,0 h 20.987 c 2.085,0 3.776,-1.691 3.776,-3.775 v -32.136 c 0,-2.084 -1.691,-3.775 -3.776,-3.775 H 0 c -2.085,0 -3.775,1.691 -3.775,3.775 V -3.775 C -3.775,-1.691 -2.085,0 0,0" /></g><g
           transform="translate(152.2324,89.0962)"
           id="g476"><path
             id="path478"
             style="fill:#f0f1f0;fill-opacity:1;fill-rule:nonzero;stroke:none"
             d="m 0,0 h 19.937 c 1.759,0 3.186,-1.426 3.186,-3.186 V -34.27 c 0,-1.76 -1.427,-3.186 -3.186,-3.186 H 0 c -1.76,0 -3.186,1.426 -3.186,3.186 V -3.186 C -3.186,-1.426 -1.76,0 0,0" /></g><g
           transform="translate(155.6826,76.6714)"
           id="g480"><path
             id="path482"
             style="fill:none;stroke:#cf3c3c;stroke-width:1;stroke-linecap:butt;stroke-linejoin:miter;stroke-miterlimit:4;stroke-dasharray:none;stroke-opacity:1"
             d="M 0,0 6.664,-6.664 13.328,0 6.664,6.664 Z" /></g><g
           transform="translate(164.7422,63.4468)"
           id="g484"><path
             id="path486"
             style="fill:#cf3c3c;fill-opacity:1;fill-rule:nonzero;stroke:none"
             d="m 0,0 c 0,-0.582 -0.172,-1.055 -0.517,-1.424 -0.342,-0.369 -0.785,-0.603 -1.326,-0.701 v -0.049 c 0.689,-0.081 1.212,-0.304 1.572,-0.669 0.361,-0.364 0.542,-0.854 0.542,-1.467 0,-0.754 -0.267,-1.369 -0.799,-1.842 -0.533,-0.476 -1.331,-0.713 -2.396,-0.713 -0.474,0 -0.915,0.041 -1.32,0.121 -0.405,0.082 -0.777,0.205 -1.111,0.369 v 0.676 c 0.334,-0.164 0.72,-0.299 1.154,-0.404 0.433,-0.107 0.86,-0.16 1.277,-0.16 0.836,0 1.454,0.178 1.856,0.533 0.401,0.357 0.601,0.838 0.601,1.443 0,0.639 -0.237,1.096 -0.713,1.371 -0.474,0.274 -1.109,0.411 -1.903,0.411 h -0.934 v 0.614 h 0.946 c 0.679,0 1.24,0.157 1.682,0.473 0.443,0.314 0.664,0.775 0.664,1.381 0,0.516 -0.168,0.907 -0.504,1.173 -0.335,0.265 -0.782,0.4 -1.338,0.4 -0.467,0 -0.887,-0.07 -1.259,-0.209 -0.373,-0.14 -0.739,-0.332 -1.1,-0.578 l -0.356,0.492 c 0.336,0.262 0.729,0.479 1.179,0.651 0.451,0.171 0.958,0.257 1.523,0.257 0.819,0 1.454,-0.195 1.904,-0.584 C -0.226,1.177 0,0.656 0,0" /></g><g
           transform="translate(217.3408,90.2104)"
           id="g488"><path
             id="path490"
             style="fill:#cf3c3c;fill-opacity:1;fill-rule:nonzero;stroke:none"
             d="m 0,0 h 20.987 c 2.085,0 3.776,-1.689 3.776,-3.775 v -32.133 c 0,-2.086 -1.691,-3.775 -3.776,-3.775 H 0 c -2.085,0 -3.775,1.689 -3.775,3.775 V -3.775 C -3.775,-1.689 -2.085,0 0,0" /></g><g
           transform="translate(217.8662,89.0972)"
           id="g492"><path
             id="path494"
             style="fill:#f0f1f0;fill-opacity:1;fill-rule:nonzero;stroke:none"
             d="m 0,0 h 19.937 c 1.759,0 3.185,-1.428 3.185,-3.186 v -31.085 c 0,-1.758 -1.426,-3.186 -3.185,-3.186 H 0 c -1.76,0 -3.186,1.428 -3.186,3.186 V -3.186 C -3.186,-1.428 -1.76,0 0,0" /></g><g
           transform="translate(221.3164,76.6714)"
           id="g496"><path
             id="path498"
             style="fill:none;stroke:#cf3c3c;stroke-width:1;stroke-linecap:butt;stroke-linejoin:miter;stroke-miterlimit:4;stroke-dasharray:none;stroke-opacity:1"
             d="M 0,0 6.664,-6.664 13.328,0 6.664,6.664 Z" /></g><g
           transform="translate(226.3184,56.7012)"
           id="g500"><path
             id="path502"
             style="fill:#cf3c3c;fill-opacity:1;fill-rule:nonzero;stroke:none"
             d="m 0,0 3.611,8.135 h -4.95 V 8.776 H 4.374 V 8.26 L 0.761,0 Z" /></g><g
           transform="translate(9.5083,177.1646)"
           id="g504"><path
             id="path506"
             style="fill:none;stroke:#f1f1f1;stroke-width:1.02900004;stroke-linecap:butt;stroke-linejoin:miter;stroke-miterlimit:4;stroke-dasharray:none;stroke-opacity:1"
             d="m 0,0 h 22.824 c 0,-1.667 1.352,-3.018 3.018,-3.018 v -33.518 c -1.666,0 -3.018,-1.352 -3.018,-3.019 H 0 c 0,1.667 -1.352,3.019 -3.019,3.019 V -3.018 C -1.352,-3.018 0,-1.667 0,0 Z" /></g><g
           transform="translate(9.5063,133.6558)"
           id="g508"><path
             id="path510"
             style="fill:none;stroke:#f1f1f1;stroke-width:1.02900004;stroke-linecap:butt;stroke-linejoin:miter;stroke-miterlimit:4;stroke-dasharray:none;stroke-opacity:1"
             d="m 0,0 h 22.824 c 0,-1.666 1.352,-3.017 3.019,-3.017 v -33.518 c -1.667,0 -3.019,-1.352 -3.019,-3.019 H 0 c 0,1.667 -1.352,3.019 -3.019,3.019 V -3.017 C -1.352,-3.017 0,-1.666 0,0 Z" /></g><g
           transform="translate(75.1401,177.1646)"
           id="g512"><path
             id="path514"
             style="fill:none;stroke:#f1f1f1;stroke-width:1.02900004;stroke-linecap:butt;stroke-linejoin:miter;stroke-miterlimit:4;stroke-dasharray:none;stroke-opacity:1"
             d="m 0,0 h 22.824 c 0,-1.666 1.352,-3.018 3.018,-3.018 v -33.518 c -1.666,0 -3.018,-1.352 -3.018,-3.018 H 0 c 0,1.666 -1.352,3.018 -3.018,3.018 V -3.018 C -1.352,-3.018 0,-1.666 0,0 Z" /></g><g
           transform="translate(42.3228,90.1479)"
           id="g516"><path
             id="path518"
             style="fill:none;stroke:#f1f1f1;stroke-width:1.02900004;stroke-linecap:butt;stroke-linejoin:miter;stroke-miterlimit:4;stroke-dasharray:none;stroke-opacity:1"
             d="m 0,0 h 22.825 c 0,-1.667 1.352,-3.018 3.018,-3.018 v -33.518 c -1.666,0 -3.018,-1.351 -3.018,-3.019 H 0 c 0,1.668 -1.351,3.019 -3.018,3.019 V -3.018 C -1.351,-3.018 0,-1.667 0,0 Z" /></g><g
           transform="translate(9.5063,46.6392)"
           id="g520"><path
             id="path522"
             style="fill:none;stroke:#f1f1f1;stroke-width:1.02900004;stroke-linecap:butt;stroke-linejoin:miter;stroke-miterlimit:4;stroke-dasharray:none;stroke-opacity:1"
             d="m 0,0 h 22.825 c 0,-1.667 1.352,-3.017 3.018,-3.017 v -33.519 c -1.666,0 -3.018,-1.351 -3.018,-3.017 H 0 c 0,1.666 -1.353,3.017 -3.019,3.017 V -3.017 C -1.353,-3.017 0,-1.667 0,0 Z" /></g><g
           transform="translate(107.9565,90.1479)"
           id="g524"><path
             id="path526"
             style="fill:none;stroke:#f1f1f1;stroke-width:1.02900004;stroke-linecap:butt;stroke-linejoin:miter;stroke-miterlimit:4;stroke-dasharray:none;stroke-opacity:1"
             d="m 0,0 h 22.824 c 0,-1.668 1.352,-3.019 3.02,-3.019 v -33.518 c -1.668,0 -3.02,-1.353 -3.02,-3.018 H 0 c 0,1.665 -1.352,3.018 -3.018,3.018 V -3.019 C -1.352,-3.019 0,-1.668 0,0 Z" /></g><g
           transform="translate(75.1401,46.6392)"
           id="g528"><path
             id="path530"
             style="fill:none;stroke:#f1f1f1;stroke-width:1.02900004;stroke-linecap:butt;stroke-linejoin:miter;stroke-miterlimit:4;stroke-dasharray:none;stroke-opacity:1"
             d="m 0,0 h 22.824 c 0,-1.667 1.352,-3.017 3.018,-3.017 v -33.519 c -1.666,0 -3.018,-1.351 -3.018,-3.017 H 0 c 0,1.666 -1.352,3.017 -3.018,3.017 V -3.017 C -1.352,-3.017 0,-1.667 0,0 Z" /></g><g
           transform="translate(107.9565,46.6392)"
           id="g532"><path
             id="path534"
             style="fill:none;stroke:#f1f1f1;stroke-width:1.02900004;stroke-linecap:butt;stroke-linejoin:miter;stroke-miterlimit:4;stroke-dasharray:none;stroke-opacity:1"
             d="m 0,0 h 22.824 c 0,-1.665 1.352,-3.017 3.02,-3.017 v -33.519 c -1.668,0 -3.02,-1.351 -3.02,-3.015 H 0 c 0,1.664 -1.352,3.015 -3.018,3.015 V -3.017 C -1.352,-3.017 0,-1.665 0,0 Z" /></g><g
           transform="translate(42.3223,177.1646)"
           id="g536"><path
             id="path538"
             style="fill:none;stroke:#f1f1f1;stroke-width:1.02900004;stroke-linecap:butt;stroke-linejoin:miter;stroke-miterlimit:4;stroke-dasharray:none;stroke-opacity:1"
             d="m 0,0 h 22.824 c 0,-1.667 1.352,-3.018 3.018,-3.018 v -33.518 c -1.666,0 -3.018,-1.352 -3.018,-3.019 H 0 c 0,1.667 -1.352,3.019 -3.019,3.019 V -3.018 C -1.352,-3.018 0,-1.667 0,0 Z" /></g><g
           transform="translate(42.3218,46.6392)"
           id="g540"><path
             id="path542"
             style="fill:none;stroke:#f1f1f1;stroke-width:1.02900004;stroke-linecap:butt;stroke-linejoin:miter;stroke-miterlimit:4;stroke-dasharray:none;stroke-opacity:1"
             d="m 0,0 h 22.825 c 0,-1.667 1.352,-3.017 3.018,-3.017 v -33.519 c -1.666,0 -3.018,-1.351 -3.018,-3.017 H 0 c 0,1.666 -1.353,3.017 -3.019,3.017 V -3.017 C -1.353,-3.017 0,-1.667 0,0 Z" /></g><g
           transform="translate(43.2397,133.7207)"
           id="g544"><path
             id="path546"
             style="fill:#222223;fill-opacity:1;fill-rule:nonzero;stroke:none"
             d="m 0,0 h 20.987 c 2.085,0 3.776,-1.69 3.776,-3.775 v -32.134 c 0,-2.086 -1.691,-3.776 -3.776,-3.776 H 0 c -2.085,0 -3.775,1.69 -3.775,3.776 V -3.775 C -3.775,-1.69 -2.085,0 0,0" /></g><g
           transform="translate(43.7651,132.6064)"
           id="g548"><path
             id="path550"
             style="fill:#f0f1f0;fill-opacity:1;fill-rule:nonzero;stroke:none"
             d="m 0,0 h 19.937 c 1.759,0 3.185,-1.427 3.185,-3.186 v -31.085 c 0,-1.758 -1.426,-3.185 -3.185,-3.185 H 0 c -1.76,0 -3.186,1.427 -3.186,3.185 V -3.186 C -3.186,-1.427 -1.76,0 0,0" /></g><g
           transform="translate(57.9761,119.3037)"
           id="g552"><path
             id="path554"
             style="fill:none;stroke:#2c2c2b;stroke-width:1;stroke-linecap:butt;stroke-linejoin:miter;stroke-miterlimit:4;stroke-dasharray:none;stroke-opacity:1"
             d="m 0,0 c -1.792,0 -3.245,-1.453 -3.245,-3.245 0,-1.793 1.453,-3.246 3.245,-3.246 1.793,0 3.245,1.453 3.245,3.246 C 3.245,-1.453 1.793,0 0,0 Z" /></g><g
           transform="translate(49.4907,119.3037)"
           id="g556"><path
             id="path558"
             style="fill:none;stroke:#2c2c2b;stroke-width:1;stroke-linecap:butt;stroke-linejoin:miter;stroke-miterlimit:4;stroke-dasharray:none;stroke-opacity:1"
             d="m 0,0 c -1.792,0 -3.245,-1.453 -3.245,-3.245 0,-1.793 1.453,-3.246 3.245,-3.246 1.793,0 3.246,1.453 3.246,3.246 C 3.246,-1.453 1.793,0 0,0 Z" /></g><g
           transform="translate(53.7339,126.6367)"
           id="g560"><path
             id="path562"
             style="fill:none;stroke:#2c2c2b;stroke-width:1;stroke-linecap:butt;stroke-linejoin:miter;stroke-miterlimit:4;stroke-dasharray:none;stroke-opacity:1"
             d="m 0,0 c -1.793,0 -3.245,-1.453 -3.245,-3.246 0,-1.792 1.452,-3.245 3.245,-3.245 1.792,0 3.245,1.453 3.245,3.245 C 3.245,-1.453 1.792,0 0,0 Z" /></g><g
           transform="translate(56.2778,106.958)"
           id="g564"><path
             id="path566"
             style="fill:#222223;fill-opacity:1;fill-rule:nonzero;stroke:none"
             d="m 0,0 c 0,-0.582 -0.173,-1.057 -0.517,-1.424 -0.344,-0.369 -0.787,-0.604 -1.327,-0.701 v -0.049 c 0.688,-0.082 1.212,-0.305 1.573,-0.67 0.361,-0.364 0.541,-0.854 0.541,-1.468 0,-0.753 -0.266,-1.369 -0.799,-1.844 -0.533,-0.474 -1.331,-0.713 -2.396,-0.713 -0.475,0 -0.915,0.041 -1.32,0.123 -0.406,0.082 -0.777,0.205 -1.113,0.37 v 0.675 c 0.336,-0.164 0.72,-0.299 1.156,-0.406 0.433,-0.105 0.859,-0.158 1.277,-0.158 0.835,0 1.453,0.178 1.855,0.533 0.401,0.357 0.602,0.838 0.602,1.444 0,0.639 -0.238,1.096 -0.713,1.37 -0.474,0.275 -1.109,0.412 -1.904,0.412 h -0.933 v 0.613 h 0.946 c 0.679,0 1.24,0.158 1.682,0.475 0.443,0.314 0.664,0.775 0.664,1.381 0,0.516 -0.169,0.909 -0.503,1.174 -0.336,0.266 -0.783,0.399 -1.339,0.399 -0.467,0 -0.887,-0.071 -1.26,-0.209 C -4.2,1.188 -4.567,0.995 -4.928,0.75 l -0.356,0.491 c 0.336,0.261 0.728,0.478 1.18,0.65 0.45,0.174 0.958,0.26 1.523,0.26 0.818,0 1.453,-0.195 1.904,-0.584 C -0.226,1.178 0,0.657 0,0" /></g><g
           transform="translate(43.2407,90.2134)"
           id="g568"><path
             id="path570"
             style="fill:#222223;fill-opacity:1;fill-rule:nonzero;stroke:none"
             d="m 0,0 h 20.987 c 2.085,0 3.775,-1.69 3.775,-3.774 v -32.135 c 0,-2.086 -1.69,-3.776 -3.775,-3.776 H 0 c -2.085,0 -3.775,1.69 -3.775,3.776 V -3.774 C -3.775,-1.69 -2.085,0 0,0" /></g><g
           transform="translate(43.7651,89.0991)"
           id="g572"><path
             id="path574"
             style="fill:#f0f1f0;fill-opacity:1;fill-rule:nonzero;stroke:none"
             d="m 0,0 h 19.937 c 1.76,0 3.186,-1.426 3.186,-3.186 v -31.085 c 0,-1.758 -1.426,-3.185 -3.186,-3.185 H 0 c -1.759,0 -3.185,1.427 -3.185,3.185 V -3.186 C -3.185,-1.426 -1.759,0 0,0" /></g><g
           transform="translate(57.9771,75.7964)"
           id="g576"><path
             id="path578"
             style="fill:none;stroke:#2c2c2b;stroke-width:1;stroke-linecap:butt;stroke-linejoin:miter;stroke-miterlimit:4;stroke-dasharray:none;stroke-opacity:1"
             d="m 0,0 c -1.793,0 -3.246,-1.453 -3.246,-3.246 0,-1.792 1.453,-3.244 3.246,-3.244 1.792,0 3.245,1.452 3.245,3.244 C 3.245,-1.453 1.792,0 0,0 Z" /></g><g
           transform="translate(49.4917,75.7964)"
           id="g580"><path
             id="path582"
             style="fill:none;stroke:#2c2c2b;stroke-width:1;stroke-linecap:butt;stroke-linejoin:miter;stroke-miterlimit:4;stroke-dasharray:none;stroke-opacity:1"
             d="m 0,0 c -1.793,0 -3.246,-1.453 -3.246,-3.246 0,-1.792 1.453,-3.244 3.246,-3.244 1.792,0 3.245,1.452 3.245,3.244 C 3.245,-1.453 1.792,0 0,0 Z" /></g><g
           transform="translate(53.7339,83.1284)"
           id="g584"><path
             id="path586"
             style="fill:none;stroke:#2c2c2b;stroke-width:1;stroke-linecap:butt;stroke-linejoin:miter;stroke-miterlimit:4;stroke-dasharray:none;stroke-opacity:1"
             d="m 0,0 c -1.792,0 -3.245,-1.452 -3.245,-3.244 0,-1.793 1.453,-3.246 3.245,-3.246 1.793,0 3.245,1.453 3.245,3.246 C 3.245,-1.452 1.793,0 0,0 Z" /></g><g
           transform="translate(53.7339,65.0112)"
           id="g588"><path
             id="path590"
             style="fill:#222223;fill-opacity:1;fill-rule:nonzero;stroke:none"
             d="m 0,0 c -0.523,0 -0.958,-0.131 -1.302,-0.393 -0.344,-0.263 -0.517,-0.63 -0.517,-1.105 0,-0.484 0.175,-0.863 0.523,-1.137 0.348,-0.275 0.796,-0.513 1.347,-0.719 0.547,0.229 0.98,0.483 1.295,0.762 0.314,0.278 0.472,0.651 0.472,1.117 0,0.475 -0.164,0.84 -0.492,1.094 C 1,-0.127 0.557,0 0,0 m -2.101,-6.118 c 0,-0.516 0.182,-0.934 0.547,-1.254 0.364,-0.318 0.874,-0.48 1.531,-0.48 0.654,0 1.173,0.16 1.558,0.474 0.385,0.315 0.578,0.752 0.578,1.309 0,0.474 -0.17,0.869 -0.509,1.185 -0.34,0.315 -0.817,0.584 -1.432,0.805 l -0.27,0.098 C -0.703,-4.202 -1.19,-4.474 -1.554,-4.798 -1.919,-5.122 -2.101,-5.562 -2.101,-6.118 M 0,0.591 c 0.754,0 1.361,-0.18 1.824,-0.536 C 2.287,-0.301 2.52,-0.807 2.52,-1.463 2.52,-1.994 2.344,-2.43 1.996,-2.77 1.648,-3.109 1.205,-3.398 0.664,-3.637 c 0.639,-0.261 1.154,-0.577 1.547,-0.946 0.394,-0.369 0.59,-0.859 0.59,-1.475 0,-0.5 -0.121,-0.925 -0.362,-1.277 C 2.197,-7.687 1.865,-7.959 1.443,-8.146 1.021,-8.334 0.541,-8.43 0,-8.43 c -0.859,0 -1.542,0.209 -2.046,0.627 -0.504,0.419 -0.756,0.98 -0.756,1.685 0,0.426 0.09,0.793 0.272,1.099 0.179,0.307 0.426,0.569 0.736,0.786 0.311,0.216 0.664,0.405 1.058,0.559 -0.329,0.156 -0.626,0.33 -0.892,0.524 -0.266,0.191 -0.478,0.425 -0.639,0.699 -0.16,0.275 -0.24,0.599 -0.24,0.976 0,0.426 0.11,0.795 0.326,1.106 0.217,0.31 0.514,0.55 0.891,0.714 0.377,0.164 0.808,0.246 1.29,0.246" /></g><g
           transform="translate(108.8755,177.23)"
           id="g592"><path
             id="path594"
             style="fill:#cf3c3c;fill-opacity:1;fill-rule:nonzero;stroke:none"
             d="m 0,0 h 20.987 c 2.085,0 3.776,-1.69 3.776,-3.775 v -32.134 c 0,-2.086 -1.691,-3.776 -3.776,-3.776 H 0 c -2.085,0 -3.775,1.69 -3.775,3.776 V -3.775 C -3.775,-1.69 -2.085,0 0,0" /></g><g
           transform="translate(109.4009,176.1157)"
           id="g596"><path
             id="path598"
             style="fill:#f0f1f0;fill-opacity:1;fill-rule:nonzero;stroke:none"
             d="m 0,0 h 19.937 c 1.759,0 3.186,-1.426 3.186,-3.186 v -31.085 c 0,-1.758 -1.427,-3.185 -3.186,-3.185 H 0 c -1.76,0 -3.186,1.427 -3.186,3.185 V -3.186 C -3.186,-1.426 -1.76,0 0,0" /></g><g
           transform="translate(111.8765,170.2144)"
           id="g600"><path
             id="path602"
             style="fill:none;stroke:#cf3c3c;stroke-width:1;stroke-linecap:butt;stroke-linejoin:miter;stroke-miterlimit:4;stroke-dasharray:none;stroke-opacity:1"
             d="M 0,0 7.493,-12.979 14.986,0 Z" /></g><g
           transform="translate(119.186,149.0391)"
           id="g604"><path
             id="path606"
             style="fill:#cf3c3c;fill-opacity:1;fill-rule:nonzero;stroke:none"
             d="m 0,0 c 0.873,0 1.563,-0.22 2.072,-0.661 0.508,-0.44 0.762,-1.061 0.762,-1.86 0,-0.866 -0.278,-1.548 -0.84,-2.044 -0.56,-0.497 -1.321,-0.745 -2.283,-0.745 -0.448,0 -0.857,0.046 -1.23,0.134 -0.372,0.088 -0.691,0.204 -0.955,0.347 v 0.683 c 0.28,-0.167 0.614,-0.303 1.003,-0.405 0.388,-0.106 0.786,-0.157 1.194,-0.157 0.73,0 1.314,0.181 1.755,0.545 0.439,0.365 0.661,0.896 0.661,1.592 0,0.626 -0.191,1.109 -0.572,1.453 -0.379,0.346 -0.958,0.518 -1.735,0.518 -0.304,0 -0.601,-0.021 -0.889,-0.061 -0.288,-0.04 -0.553,-0.092 -0.792,-0.155 l -0.373,0.252 0.348,3.951 H 2.282 V 2.763 h -3.579 l -0.24,-2.954 c 0.168,0.03 0.38,0.07 0.635,0.118 C -0.645,-0.023 -0.344,0 0,0" /></g><g
           transform="translate(10.4243,90.2134)"
           id="g608"><path
             id="path610"
             style="fill:#cf3c3c;fill-opacity:1;fill-rule:nonzero;stroke:none"
             d="m 0,0 h 20.987 c 2.085,0 3.776,-1.691 3.776,-3.775 V -35.91 c 0,-2.085 -1.691,-3.776 -3.776,-3.776 H 0 c -2.085,0 -3.775,1.691 -3.775,3.776 V -3.775 C -3.775,-1.691 -2.085,0 0,0" /></g><g
           transform="translate(10.9497,89.0981)"
           id="g612"><path
             id="path614"
             style="fill:#f0f1f0;fill-opacity:1;fill-rule:nonzero;stroke:none"
             d="m 0,0 h 19.937 c 1.759,0 3.186,-1.426 3.186,-3.186 v -31.085 c 0,-1.758 -1.427,-3.185 -3.186,-3.185 H 0 c -1.76,0 -3.186,1.427 -3.186,3.185 V -3.186 C -3.186,-1.426 -1.76,0 0,0" /></g><g
           transform="translate(14.3999,76.6733)"
           id="g616"><path
             id="path618"
             style="fill:none;stroke:#cf3c3c;stroke-width:1;stroke-linecap:butt;stroke-linejoin:miter;stroke-miterlimit:4;stroke-dasharray:none;stroke-opacity:1"
             d="M 0,0 6.664,-6.664 13.328,0 6.664,6.664 Z" /></g><g
           transform="translate(23.4595,63.4487)"
           id="g620"><path
             id="path622"
             style="fill:#cf3c3c;fill-opacity:1;fill-rule:nonzero;stroke:none"
             d="m 0,0 c 0,-0.582 -0.172,-1.055 -0.517,-1.424 -0.342,-0.369 -0.785,-0.603 -1.326,-0.701 v -0.049 c 0.689,-0.082 1.212,-0.305 1.572,-0.67 0.361,-0.363 0.542,-0.853 0.542,-1.467 0,-0.753 -0.267,-1.368 -0.799,-1.84 -0.533,-0.477 -1.331,-0.713 -2.396,-0.713 -0.474,0 -0.915,0.041 -1.32,0.121 -0.405,0.082 -0.777,0.205 -1.111,0.369 v 0.676 c 0.334,-0.164 0.72,-0.299 1.154,-0.405 0.433,-0.107 0.86,-0.16 1.277,-0.16 0.836,0 1.454,0.178 1.856,0.534 0.401,0.356 0.601,0.836 0.601,1.442 0,0.639 -0.237,1.096 -0.713,1.371 -0.474,0.273 -1.109,0.41 -1.903,0.41 h -0.934 v 0.615 h 0.946 c 0.679,0 1.24,0.157 1.682,0.473 0.443,0.314 0.664,0.775 0.664,1.381 0,0.516 -0.168,0.907 -0.504,1.173 -0.335,0.265 -0.782,0.4 -1.338,0.4 -0.467,0 -0.887,-0.07 -1.259,-0.209 -0.373,-0.14 -0.739,-0.332 -1.1,-0.578 l -0.356,0.492 c 0.336,0.262 0.729,0.479 1.179,0.651 0.451,0.171 0.958,0.257 1.523,0.257 0.819,0 1.454,-0.195 1.904,-0.584 C -0.226,1.177 0,0.656 0,0" /></g><g
           transform="translate(76.0581,90.2124)"
           id="g624"><path
             id="path626"
             style="fill:#cf3c3c;fill-opacity:1;fill-rule:nonzero;stroke:none"
             d="m 0,0 h 20.987 c 2.085,0 3.776,-1.689 3.776,-3.775 v -32.133 c 0,-2.086 -1.691,-3.776 -3.776,-3.776 H 0 c -2.085,0 -3.775,1.69 -3.775,3.776 V -3.775 C -3.775,-1.689 -2.085,0 0,0" /></g><g
           transform="translate(76.5835,89.0991)"
           id="g628"><path
             id="path630"
             style="fill:#f0f1f0;fill-opacity:1;fill-rule:nonzero;stroke:none"
             d="m 0,0 h 19.937 c 1.759,0 3.185,-1.428 3.185,-3.186 v -31.085 c 0,-1.758 -1.426,-3.186 -3.185,-3.186 H 0 c -1.76,0 -3.186,1.428 -3.186,3.186 V -3.186 C -3.186,-1.428 -1.76,0 0,0" /></g><g
           transform="translate(80.0337,76.6733)"
           id="g632"><path
             id="path634"
             style="fill:none;stroke:#cf3c3c;stroke-width:1;stroke-linecap:butt;stroke-linejoin:miter;stroke-miterlimit:4;stroke-dasharray:none;stroke-opacity:1"
             d="M 0,0 6.664,-6.664 13.328,0 6.664,6.664 Z" /></g><g
           transform="translate(85.0356,56.7036)"
           id="g636"><path
             id="path638"
             style="fill:#cf3c3c;fill-opacity:1;fill-rule:nonzero;stroke:none"
             d="m 0,0 3.611,8.135 h -4.95 v 0.64 H 4.374 V 8.26 L 0.761,0 Z" /></g><g
           transform="translate(108.8071,133.7222)"
           id="g640"><path
             id="path642"
             style="fill:#f0f1f0;fill-opacity:1;fill-rule:nonzero;stroke:none"
             d="m 0,0 h 21.124 c 1.864,0 3.375,-1.51 3.375,-3.375 V -36.31 c 0,-1.863 -1.511,-3.375 -3.375,-3.375 H 0 c -1.864,0 -3.375,1.512 -3.375,3.375 V -3.375 C -3.375,-1.51 -1.864,0 0,0" /></g></g></g><g
       id="g644"><g
         clip-path="url(#clipPath650)"
         id="g646"><g
           id="g652"><g
             id="g654" /><g
             mask="url(#mask666)"
             id="g678"><g
               id="g680"><path
                 id="path688"
                 style="fill:url(#radialGradient686);stroke:none"
                 d="m 108.807,133.722 c -1.864,0 -3.375,-1.51 -3.375,-3.375 v 0 -32.935 c 0,-1.863 1.511,-3.375 3.375,-3.375 v 0 h 21.124 c 1.864,0 3.375,1.512 3.375,3.375 v 0 32.935 c 0,1.865 -1.511,3.375 -3.375,3.375 v 0 z" /></g></g></g></g></g><g
       id="g690"><g
         clip-path="url(#clipPath696)"
         id="g692"><g
           transform="translate(113.3247,112.5903)"
           id="g698"><path
             id="path700"
             style="fill:none;stroke:#222223;stroke-width:0.5;stroke-linecap:butt;stroke-linejoin:miter;stroke-miterlimit:4;stroke-dasharray:none;stroke-opacity:1"
             d="m 0,0 c 0,-0.629 0.511,-1.141 1.143,-1.141 0.628,0 1.139,0.512 1.139,1.141 0,0.631 -0.511,1.142 -1.139,1.142 C 0.511,1.142 0,0.631 0,0" /></g><g
           transform="translate(110.3403,112.5903)"
           id="g702"><path
             id="path704"
             style="fill:none;stroke:#222223;stroke-width:0.5;stroke-linecap:butt;stroke-linejoin:miter;stroke-miterlimit:4;stroke-dasharray:none;stroke-opacity:1"
             d="m 0,0 c 0,-0.629 0.512,-1.141 1.143,-1.141 0.628,0 1.14,0.512 1.14,1.141 0,0.631 -0.512,1.142 -1.14,1.142 C 0.512,1.142 0,0.631 0,0" /></g><g
           transform="translate(111.8325,115.1685)"
           id="g706"><path
             id="path708"
             style="fill:none;stroke:#222223;stroke-width:0.5;stroke-linecap:butt;stroke-linejoin:miter;stroke-miterlimit:4;stroke-dasharray:none;stroke-opacity:1"
             d="m 0,0 c 0,-0.629 0.512,-1.14 1.143,-1.14 0.628,0 1.14,0.511 1.14,1.14 0,0.631 -0.512,1.143 -1.14,1.143 C 0.512,1.143 0,0.631 0,0" /></g><g
           transform="translate(114.4897,116.3472)"
           id="g710"><path
             id="path712"
             style="fill:none;stroke:#cf3c3c;stroke-width:0.5;stroke-linecap:butt;stroke-linejoin:miter;stroke-miterlimit:4;stroke-dasharray:none;stroke-opacity:1"
             d="M 0,0 2.831,-4.902 5.66,0 Z" /></g><g
           transform="translate(124.0044,111.4126)"
           id="g714"><path
             id="path716"
             style="fill:none;stroke:#222223;stroke-width:0.5;stroke-linecap:butt;stroke-linejoin:miter;stroke-miterlimit:4;stroke-dasharray:none;stroke-opacity:1"
             d="M 0,0 -2.83,4.902 -5.659,0 Z" /></g><g
           transform="translate(123.481,113.8794)"
           id="g718"><path
             id="path720"
             style="fill:none;stroke:#cf3c3c;stroke-width:0.52200001;stroke-linecap:butt;stroke-linejoin:miter;stroke-miterlimit:4;stroke-dasharray:none;stroke-opacity:1"
             d="M 0,0 2.457,-2.458 4.915,0 2.457,2.458 Z" /></g><g
           transform="translate(74.5596,136.5557)"
           id="g722"><path
             id="path724"
             style="fill:#222223;fill-opacity:1;fill-rule:nonzero;stroke:none"
             d="m 0,0 h 23.986 c 2.383,0 4.313,-1.932 4.313,-4.315 V -41.04 c 0,-2.384 -1.93,-4.314 -4.313,-4.314 H 0 c -2.383,0 -4.315,1.93 -4.315,4.314 V -4.315 C -4.315,-1.932 -2.383,0 0,0" /></g><g
           transform="translate(75.1587,135.2822)"
           id="g726"><path
             id="path728"
             style="fill:#f0f1f0;fill-opacity:1;fill-rule:nonzero;stroke:none"
             d="m 0,0 h 22.786 c 2.011,0 3.641,-1.631 3.641,-3.641 v -35.526 c 0,-2.01 -1.63,-3.641 -3.641,-3.641 H 0 c -2.01,0 -3.64,1.631 -3.64,3.641 V -3.641 C -3.64,-1.631 -2.01,0 0,0" /></g><g
           transform="translate(91.4014,120.0786)"
           id="g730"><path
             id="path732"
             style="fill:none;stroke:#2c2c2b;stroke-width:1;stroke-linecap:butt;stroke-linejoin:miter;stroke-miterlimit:4;stroke-dasharray:none;stroke-opacity:1"
             d="m 0,0 c -2.049,0 -3.71,-1.661 -3.71,-3.709 0,-2.049 1.661,-3.709 3.71,-3.709 2.048,0 3.708,1.66 3.708,3.709 C 3.708,-1.661 2.048,0 0,0 Z" /></g><g
           transform="translate(81.7036,120.0786)"
           id="g734"><path
             id="path736"
             style="fill:none;stroke:#2c2c2b;stroke-width:1;stroke-linecap:butt;stroke-linejoin:miter;stroke-miterlimit:4;stroke-dasharray:none;stroke-opacity:1"
             d="m 0,0 c -2.049,0 -3.71,-1.661 -3.71,-3.709 0,-2.049 1.661,-3.709 3.71,-3.709 2.048,0 3.708,1.66 3.708,3.709 C 3.708,-1.661 2.048,0 0,0 Z" /></g><g
           transform="translate(86.5518,128.4585)"
           id="g738"><path
             id="path740"
             style="fill:none;stroke:#2c2c2b;stroke-width:1;stroke-linecap:butt;stroke-linejoin:miter;stroke-miterlimit:4;stroke-dasharray:none;stroke-opacity:1"
             d="m 0,0 c -2.048,0 -3.709,-1.66 -3.709,-3.709 0,-2.048 1.661,-3.708 3.709,-3.708 2.049,0 3.709,1.66 3.709,3.708 C 3.709,-1.66 2.049,0 0,0 Z" /></g><g
           transform="translate(85.541,96.3467)"
           id="g742"><path
             id="path744"
             style="fill:#1d1d1d;fill-opacity:1;fill-rule:nonzero;stroke:none"
             d="m 0,0 c -0.243,0 -0.45,0.018 -0.618,0.056 -0.169,0.038 -0.319,0.075 -0.449,0.111 v 0.729 c 0.141,-0.037 0.299,-0.073 0.478,-0.111 0.177,-0.038 0.369,-0.056 0.575,-0.056 1.048,0 1.572,0.627 1.572,1.88 v 9.967 H 2.372 V 2.638 C 2.372,1.814 2.173,1.169 1.776,0.7 1.377,0.234 0.786,0 0,0" /></g><g
           transform="translate(86.5518,157.9219)"
           id="g746"><path
             id="path748"
             style="fill:none;stroke:#49bed9;stroke-width:1.02900004;stroke-linecap:butt;stroke-linejoin:miter;stroke-miterlimit:4;stroke-dasharray:none;stroke-opacity:1"
             d="M 0,0 V -88.087" /></g><g
           transform="translate(53.5879,113.8779)"
           id="g750"><path
             id="path752"
             style="fill:none;stroke:#49bed9;stroke-width:1.02900004;stroke-linecap:butt;stroke-linejoin:miter;stroke-miterlimit:4;stroke-dasharray:none;stroke-opacity:1"
             d="M 0,0 65.928,0.001" /></g><path
           id="path754"
           style="fill:#ffffff;fill-opacity:1;fill-rule:nonzero;stroke:#49bed9;stroke-width:1;stroke-linecap:butt;stroke-linejoin:miter;stroke-miterlimit:4;stroke-dasharray:none;stroke-opacity:1"
           d="M 57.977,108.278 H 49.49 v 11.501 h 8.487 z" /><g
           transform="translate(48.0713,113.8853)"
           id="g756"><path
             id="path758"
             style="fill:#4dbed8;fill-opacity:1;fill-rule:nonzero;stroke:none"
             d="M 0,0 C 0,0 0.214,0.366 0.634,0.828 0.848,1.053 1.107,1.306 1.418,1.521 1.73,1.725 2.082,1.93 2.454,1.977 2.818,2.063 3.186,2.004 3.496,1.881 3.658,1.849 3.796,1.741 3.929,1.657 4.058,1.562 4.193,1.516 4.29,1.398 4.463,1.229 4.607,1.087 4.708,0.988 4.781,0.925 4.812,0.873 4.812,0.873 L 4.174,0.229 C 4.38,0.058 4.605,-0.102 4.856,-0.258 5.088,-0.448 5.335,-0.643 5.606,-0.83 5.887,-1.008 6.148,-1.226 6.437,-1.432 6.725,-1.638 7.033,-1.843 7.361,-2.049 7.375,-1.674 7.368,-1.299 7.34,-0.925 7.312,-0.552 7.276,-0.178 7.164,0.177 7.063,0.536 6.947,0.894 6.8,1.243 6.614,1.583 6.405,1.92 6.175,2.245 L 5.537,1.602 c 0,0 -0.043,0.049 -0.146,0.117 C 5.25,1.819 5.049,1.961 4.807,2.132 4.679,2.242 4.477,2.299 4.297,2.386 4.109,2.466 3.921,2.563 3.687,2.583 3.251,2.678 2.741,2.666 2.31,2.489 1.86,2.349 1.503,2.054 1.203,1.78 0.907,1.496 0.683,1.193 0.502,0.93 0.152,0.394 0,0 0,0" /></g><path
           id="path760"
           style="fill:#ffffff;fill-opacity:1;fill-rule:nonzero;stroke:#49bed9;stroke-width:1;stroke-linecap:butt;stroke-linejoin:miter;stroke-miterlimit:4;stroke-dasharray:none;stroke-opacity:1"
           d="m 90.795,63.91 h -8.487 v 11.501 h 8.487 z" /><g
           transform="translate(80.8906,69.5176)"
           id="g762"><path
             id="path764"
             style="fill:#4dbed8;fill-opacity:1;fill-rule:nonzero;stroke:none"
             d="M 0,0 C 0,0 0.214,0.366 0.634,0.828 0.848,1.053 1.107,1.306 1.418,1.521 1.73,1.725 2.082,1.93 2.454,1.977 2.818,2.063 3.186,2.004 3.496,1.881 3.658,1.849 3.796,1.741 3.929,1.657 4.058,1.562 4.193,1.516 4.29,1.398 4.463,1.229 4.607,1.087 4.708,0.988 4.781,0.925 4.812,0.873 4.812,0.873 L 4.174,0.229 C 4.38,0.058 4.605,-0.102 4.856,-0.258 5.088,-0.448 5.335,-0.643 5.606,-0.83 5.887,-1.008 6.148,-1.226 6.437,-1.432 6.725,-1.638 7.033,-1.843 7.361,-2.049 7.375,-1.674 7.368,-1.299 7.34,-0.925 7.312,-0.552 7.276,-0.178 7.164,0.177 7.063,0.536 6.947,0.894 6.8,1.243 6.614,1.583 6.405,1.92 6.175,2.245 L 5.537,1.602 c 0,0 -0.043,0.049 -0.146,0.117 C 5.25,1.819 5.049,1.961 4.807,2.132 4.679,2.242 4.477,2.299 4.297,2.386 4.109,2.466 3.921,2.563 3.687,2.583 3.251,2.678 2.741,2.666 2.31,2.489 1.86,2.349 1.503,2.054 1.203,1.78 0.907,1.496 0.683,1.193 0.502,0.93 0.152,0.394 0,0 0,0" /></g><path
           id="path766"
           style="fill:#ffffff;fill-opacity:1;fill-rule:nonzero;stroke:#49bed9;stroke-width:1;stroke-linecap:butt;stroke-linejoin:miter;stroke-miterlimit:4;stroke-dasharray:none;stroke-opacity:1"
           d="m 199.968,65.04 h -8.487 v 11.501 h 8.487 z" /><g
           transform="translate(190.0635,70.6475)"
           id="g768"><path
             id="path770"
             style="fill:#4dbed8;fill-opacity:1;fill-rule:nonzero;stroke:none"
             d="M 0,0 C 0,0 0.214,0.366 0.634,0.828 0.848,1.053 1.107,1.306 1.418,1.521 1.73,1.725 2.082,1.93 2.454,1.977 2.818,2.063 3.186,2.004 3.496,1.881 3.658,1.849 3.796,1.741 3.929,1.657 4.058,1.562 4.193,1.516 4.29,1.398 4.463,1.229 4.607,1.087 4.708,0.988 4.781,0.925 4.812,0.873 4.812,0.873 L 4.174,0.229 C 4.38,0.058 4.605,-0.102 4.856,-0.258 5.088,-0.448 5.335,-0.643 5.606,-0.83 5.887,-1.008 6.148,-1.226 6.437,-1.432 6.725,-1.638 7.033,-1.843 7.361,-2.049 7.375,-1.674 7.368,-1.299 7.34,-0.925 7.312,-0.552 7.276,-0.178 7.164,0.177 7.063,0.536 6.947,0.894 6.8,1.243 6.614,1.583 6.405,1.92 6.175,2.245 L 5.537,1.602 c 0,0 -0.043,0.049 -0.146,0.117 C 5.25,1.819 5.049,1.961 4.807,2.132 4.679,2.242 4.477,2.299 4.297,2.386 4.109,2.466 3.921,2.563 3.687,2.583 3.251,2.678 2.741,2.666 2.31,2.489 1.86,2.349 1.503,2.054 1.203,1.78 0.907,1.496 0.683,1.193 0.502,0.93 0.152,0.394 0,0 0,0" /></g><path
           id="path772"
           style="fill:#ffffff;fill-opacity:1;fill-rule:nonzero;stroke:#49bed9;stroke-width:1;stroke-linecap:butt;stroke-linejoin:miter;stroke-miterlimit:4;stroke-dasharray:none;stroke-opacity:1"
           d="m 265.604,152.738 h -8.487 v 11.501 h 8.487 z" /><g
           transform="translate(255.6992,158.3457)"
           id="g774"><path
             id="path776"
             style="fill:#4dbed8;fill-opacity:1;fill-rule:nonzero;stroke:none"
             d="M 0,0 C 0,0 0.215,0.366 0.634,0.828 0.848,1.053 1.107,1.306 1.418,1.521 1.73,1.725 2.082,1.93 2.454,1.977 2.818,2.063 3.186,2.004 3.496,1.881 3.658,1.849 3.796,1.741 3.929,1.657 4.058,1.562 4.193,1.516 4.29,1.398 4.463,1.229 4.607,1.087 4.708,0.988 4.781,0.925 4.812,0.873 4.812,0.873 L 4.174,0.23 c 0.206,-0.172 0.431,-0.332 0.681,-0.488 0.234,-0.19 0.48,-0.385 0.751,-0.572 0.281,-0.178 0.542,-0.395 0.831,-0.601 0.288,-0.207 0.596,-0.412 0.924,-0.618 0.014,0.375 0.006,0.75 -0.02,1.124 C 7.312,-0.552 7.276,-0.178 7.164,0.177 7.063,0.536 6.947,0.894 6.8,1.243 6.614,1.583 6.405,1.92 6.176,2.245 L 5.537,1.602 c 0,0 -0.043,0.049 -0.145,0.117 C 5.25,1.819 5.049,1.961 4.807,2.132 4.679,2.242 4.478,2.299 4.297,2.386 4.109,2.466 3.922,2.563 3.688,2.583 3.251,2.678 2.741,2.666 2.31,2.489 1.86,2.349 1.504,2.054 1.203,1.78 0.907,1.496 0.683,1.193 0.502,0.93 0.152,0.394 0,0 0,0" /></g></g></g></g></svg>