<?xml version="1.0" encoding="UTF-8" standalone="no"?>
<svg
   xmlns:dc="http://purl.org/dc/elements/1.1/"
   xmlns:cc="http://creativecommons.org/ns#"
   xmlns:rdf="http://www.w3.org/1999/02/22-rdf-syntax-ns#"
   xmlns:svg="http://www.w3.org/2000/svg"
   xmlns="http://www.w3.org/2000/svg"
   viewBox="0 0 232.66667 87.333336"
   height="87.333336"
   width="232.66667"
   xml:space="preserve"
   id="svg2"
   version="1.1"><metadata
     id="metadata8"><rdf:RDF><cc:Work
         rdf:about=""><dc:format>image/svg+xml</dc:format><dc:type
           rdf:resource="http://purl.org/dc/dcmitype/StillImage" /></cc:Work></rdf:RDF></metadata><defs
     id="defs6"><clipPath
       id="clipPath18"
       clipPathUnits="userSpaceOnUse"><path
         id="path16"
         d="M 0,65.5 H 174.5 V 0 H 0 Z" /></clipPath><clipPath
       id="clipPath38"
       clipPathUnits="userSpaceOnUse"><path
         id="path36"
         d="m 24.105,37.33 c -1.761,0 -3.186,-0.9 -3.186,-2.01 v 0 -19.619 c 0,-1.111 1.425,-2.01 3.186,-2.01 v 0 h 19.937 c 1.759,0 3.185,0.899 3.185,2.01 v 0 19.619 c 0,1.11 -1.426,2.01 -3.185,2.01 v 0 z" /></clipPath><radialGradient
       id="radialGradient52"
       spreadMethod="pad"
       gradientTransform="matrix(13.152931,0,0,11.819073,34.073242,25.511719)"
       gradientUnits="userSpaceOnUse"
       r="1"
       cy="0"
       cx="0"
       fy="0"
       fx="0"><stop
         id="stop48"
         offset="0"
         style="stop-opacity:1;stop-color:#ffffff" /><stop
         id="stop50"
         offset="1"
         style="stop-opacity:0;stop-color:#ffffff" /></radialGradient><mask
       id="mask54"
       height="1"
       width="1"
       y="0"
       x="0"
       maskUnits="userSpaceOnUse"><g
         id="g64"><g
           id="g62"><g
             id="g60"><g
               id="g58"><path
                 id="path56"
                 style="fill:url(#radialGradient52);stroke:none"
                 d="M -32768,32767 H 32767 V -32768 H -32768 Z" /></g></g></g></g></mask><radialGradient
       id="radialGradient74"
       spreadMethod="pad"
       gradientTransform="matrix(13.152931,0,0,11.819073,34.073242,25.511719)"
       gradientUnits="userSpaceOnUse"
       r="1"
       cy="0"
       cx="0"
       fy="0"
       fx="0"><stop
         id="stop70"
         offset="0"
         style="stop-opacity:1;stop-color:#ffffff" /><stop
         id="stop72"
         offset="1"
         style="stop-opacity:1;stop-color:#efefef" /></radialGradient><clipPath
       id="clipPath84"
       clipPathUnits="userSpaceOnUse"><path
         id="path82"
         d="M 0,65.5 H 174.5 V 0 H 0 Z" /></clipPath><clipPath
       id="clipPath164"
       clipPathUnits="userSpaceOnUse"><path
         id="path162"
         d="m 141.11,48.163 -5.397,-30.614 c -0.306,-1.732 0.851,-3.385 2.584,-3.689 v 0 l 19.635,-3.463 c 1.733,-0.305 3.384,0.851 3.69,2.584 v 0 l 5.397,30.612 c 0.306,1.734 -0.85,3.385 -2.584,3.69 v 0 l -19.634,3.464 c -0.187,0.032 -0.373,0.048 -0.557,0.048 v 0 c -1.517,0 -2.861,-1.087 -3.134,-2.632" /></clipPath><radialGradient
       id="radialGradient178"
       spreadMethod="pad"
       gradientTransform="matrix(12.954986,-2.2842357,3.252321,18.445133,151.36719,30.572266)"
       gradientUnits="userSpaceOnUse"
       r="1"
       cy="0"
       cx="0"
       fy="0"
       fx="0"><stop
         id="stop174"
         offset="0"
         style="stop-opacity:1;stop-color:#ffffff" /><stop
         id="stop176"
         offset="1"
         style="stop-opacity:0;stop-color:#ffffff" /></radialGradient><mask
       id="mask180"
       height="1"
       width="1"
       y="0"
       x="0"
       maskUnits="userSpaceOnUse"><g
         id="g190"><g
           id="g188"><g
             id="g186"><g
               id="g184"><path
                 id="path182"
                 style="fill:url(#radialGradient178);stroke:none"
                 d="M -32768,32767 H 32767 V -32768 H -32768 Z" /></g></g></g></g></mask><radialGradient
       id="radialGradient200"
       spreadMethod="pad"
       gradientTransform="matrix(12.954986,-2.2842357,3.252321,18.445133,151.36719,30.572266)"
       gradientUnits="userSpaceOnUse"
       r="1"
       cy="0"
       cx="0"
       fy="0"
       fx="0"><stop
         id="stop196"
         offset="0"
         style="stop-opacity:1;stop-color:#ffffff" /><stop
         id="stop198"
         offset="1"
         style="stop-opacity:1;stop-color:#efefef" /></radialGradient><clipPath
       id="clipPath210"
       clipPathUnits="userSpaceOnUse"><path
         id="path208"
         d="M 0,65.5 H 174.5 V 0 H 0 Z" /></clipPath><clipPath
       id="clipPath254"
       clipPathUnits="userSpaceOnUse"><path
         id="path252"
         d="m 131.398,50.3 c -1.76,0 -3.186,-1.426 -3.186,-3.185 v 0 -31.086 c 0,-1.758 1.426,-3.186 3.186,-3.186 v 0 h 19.937 c 1.759,0 3.185,1.428 3.185,3.186 v 0 31.086 c 0,1.759 -1.426,3.185 -3.185,3.185 v 0 z" /></clipPath><radialGradient
       id="radialGradient268"
       spreadMethod="pad"
       gradientTransform="matrix(13.154316,0,0,18.728634,141.36621,31.570312)"
       gradientUnits="userSpaceOnUse"
       r="1"
       cy="0"
       cx="0"
       fy="0"
       fx="0"><stop
         id="stop264"
         offset="0"
         style="stop-opacity:1;stop-color:#ffffff" /><stop
         id="stop266"
         offset="1"
         style="stop-opacity:0;stop-color:#ffffff" /></radialGradient><mask
       id="mask270"
       height="1"
       width="1"
       y="0"
       x="0"
       maskUnits="userSpaceOnUse"><g
         id="g280"><g
           id="g278"><g
             id="g276"><g
               id="g274"><path
                 id="path272"
                 style="fill:url(#radialGradient268);stroke:none"
                 d="M -32768,32767 H 32767 V -32768 H -32768 Z" /></g></g></g></g></mask><radialGradient
       id="radialGradient290"
       spreadMethod="pad"
       gradientTransform="matrix(13.154316,0,0,18.728634,141.36621,31.570312)"
       gradientUnits="userSpaceOnUse"
       r="1"
       cy="0"
       cx="0"
       fy="0"
       fx="0"><stop
         id="stop286"
         offset="0"
         style="stop-opacity:1;stop-color:#ffffff" /><stop
         id="stop288"
         offset="1"
         style="stop-opacity:1;stop-color:#efefef" /></radialGradient><clipPath
       id="clipPath300"
       clipPathUnits="userSpaceOnUse"><path
         id="path298"
         d="M 0,65.5 H 174.5 V 0 H 0 Z" /></clipPath><clipPath
       id="clipPath344"
       clipPathUnits="userSpaceOnUse"><path
         id="path342"
         d="m 137.931,50.746 -19.633,-3.463 c -1.734,-0.305 -2.89,-1.956 -2.584,-3.69 v 0 l 5.397,-30.612 c 0.306,-1.733 1.958,-2.889 3.691,-2.584 v 0 l 19.634,3.462 c 1.733,0.305 2.89,1.958 2.584,3.69 v 0 l -5.398,30.613 c -0.273,1.546 -1.617,2.633 -3.133,2.633 v 0 c -0.184,0 -0.37,-0.016 -0.558,-0.049" /></clipPath><radialGradient
       id="radialGradient358"
       spreadMethod="pad"
       gradientTransform="matrix(12.954304,2.2841156,-3.2521501,18.444164,131.36523,30.566406)"
       gradientUnits="userSpaceOnUse"
       r="1"
       cy="0"
       cx="0"
       fy="0"
       fx="0"><stop
         id="stop354"
         offset="0"
         style="stop-opacity:1;stop-color:#ffffff" /><stop
         id="stop356"
         offset="1"
         style="stop-opacity:0;stop-color:#ffffff" /></radialGradient><mask
       id="mask360"
       height="1"
       width="1"
       y="0"
       x="0"
       maskUnits="userSpaceOnUse"><g
         id="g370"><g
           id="g368"><g
             id="g366"><g
               id="g364"><path
                 id="path362"
                 style="fill:url(#radialGradient358);stroke:none"
                 d="M -32768,32767 H 32767 V -32768 H -32768 Z" /></g></g></g></g></mask><radialGradient
       id="radialGradient380"
       spreadMethod="pad"
       gradientTransform="matrix(12.954304,2.2841156,-3.2521501,18.444164,131.36523,30.566406)"
       gradientUnits="userSpaceOnUse"
       r="1"
       cy="0"
       cx="0"
       fy="0"
       fx="0"><stop
         id="stop376"
         offset="0"
         style="stop-opacity:1;stop-color:#ffffff" /><stop
         id="stop378"
         offset="1"
         style="stop-opacity:1;stop-color:#efefef" /></radialGradient><clipPath
       id="clipPath390"
       clipPathUnits="userSpaceOnUse"><path
         id="path388"
         d="M 0,65.5 H 174.5 V 0 H 0 Z" /></clipPath><clipPath
       id="clipPath434"
       clipPathUnits="userSpaceOnUse"><path
         id="path432"
         d="m 124.329,47.579 -18.736,-6.818 c -1.653,-0.601 -2.505,-2.429 -1.902,-4.084 v 0 L 114.323,7.468 c 0.601,-1.652 2.428,-2.505 4.081,-1.904 v 0 l 18.735,6.818 c 1.654,0.602 2.506,2.43 1.904,4.084 v 0 l -10.632,29.209 c -0.47,1.294 -1.691,2.098 -2.993,2.098 v 0 c -0.361,0 -0.73,-0.063 -1.089,-0.194" /></clipPath><radialGradient
       id="radialGradient448"
       spreadMethod="pad"
       gradientTransform="matrix(12.361232,4.4990859,-6.4054542,17.599106,121.36621,26.570312)"
       gradientUnits="userSpaceOnUse"
       r="1"
       cy="0"
       cx="0"
       fy="0"
       fx="0"><stop
         id="stop444"
         offset="0"
         style="stop-opacity:1;stop-color:#ffffff" /><stop
         id="stop446"
         offset="1"
         style="stop-opacity:0;stop-color:#ffffff" /></radialGradient><mask
       id="mask450"
       height="1"
       width="1"
       y="0"
       x="0"
       maskUnits="userSpaceOnUse"><g
         id="g460"><g
           id="g458"><g
             id="g456"><g
               id="g454"><path
                 id="path452"
                 style="fill:url(#radialGradient448);stroke:none"
                 d="M -32768,32767 H 32767 V -32768 H -32768 Z" /></g></g></g></g></mask><radialGradient
       id="radialGradient470"
       spreadMethod="pad"
       gradientTransform="matrix(12.361232,4.4990859,-6.4054542,17.599106,121.36621,26.570312)"
       gradientUnits="userSpaceOnUse"
       r="1"
       cy="0"
       cx="0"
       fy="0"
       fx="0"><stop
         id="stop466"
         offset="0"
         style="stop-opacity:1;stop-color:#ffffff" /><stop
         id="stop468"
         offset="1"
         style="stop-opacity:1;stop-color:#efefef" /></radialGradient><clipPath
       id="clipPath480"
       clipPathUnits="userSpaceOnUse"><path
         id="path478"
         d="M 0,65.5 H 174.5 V 0 H 0 Z" /></clipPath></defs><g
     transform="matrix(1.3333333,0,0,-1.3333333,0,87.333333)"
     id="g10"><g
       id="g12"><g
         clip-path="url(#clipPath18)"
         id="g14"><g
           transform="translate(24.8125,13.7417)"
           id="g20"><path
             id="path22"
             style="fill:#efefef;fill-opacity:1;fill-rule:nonzero;stroke:none"
             d="m 0,0 c -1.431,0 -2.686,0.706 -2.686,1.511 v 19.618 c 0,0.819 1.23,1.511 2.686,1.511 h 19.937 c 1.456,0 2.685,-0.692 2.685,-1.511 V 1.511 C 22.622,0.706 21.368,0 19.937,0 Z" /></g><g
           transform="translate(44.75,36.8818)"
           id="g24"><path
             id="path26"
             style="fill:#c6c6c5;fill-opacity:1;fill-rule:nonzero;stroke:none"
             d="m 0,0 h -19.937 c -1.76,0 -3.186,-0.9 -3.186,-2.011 v -19.618 c 0,-1.11 1.426,-2.011 3.186,-2.011 H 0 c 1.759,0 3.185,0.901 3.185,2.011 V -2.011 C 3.185,-0.9 1.759,0 0,0 m 0,-1 c 1.313,0 2.185,-0.608 2.185,-1.011 V -21.629 C 2.185,-22.032 1.313,-22.64 0,-22.64 h -19.937 c -1.314,0 -2.186,0.608 -2.186,1.011 v 19.618 c 0,0.403 0.872,1.011 2.186,1.011 L 0,-1" /></g><g
           transform="translate(24.1045,37.3301)"
           id="g28"><path
             id="path30"
             style="fill:#efefef;fill-opacity:1;fill-rule:nonzero;stroke:none"
             d="m 0,0 h 19.937 c 1.759,0 3.185,-0.9 3.185,-2.01 v -19.619 c 0,-1.111 -1.426,-2.011 -3.185,-2.011 L 0,-23.64 c -1.76,0 -3.186,0.9 -3.186,2.011 V -2.01 C -3.186,-0.9 -1.76,0 0,0" /></g></g></g><g
       id="g32"><g
         clip-path="url(#clipPath38)"
         id="g34"><g
           id="g40"><g
             id="g42" /><g
             mask="url(#mask54)"
             id="g66"><g
               id="g68"><path
                 id="path76"
                 style="fill:url(#radialGradient74);stroke:none"
                 d="m 24.105,37.33 c -1.761,0 -3.186,-0.9 -3.186,-2.01 v 0 -19.619 c 0,-1.111 1.425,-2.01 3.186,-2.01 v 0 h 19.937 c 1.759,0 3.185,0.899 3.185,2.01 v 0 19.619 c 0,1.11 -1.426,2.01 -3.185,2.01 v 0 z" /></g></g></g></g></g><g
       id="g78"><g
         clip-path="url(#clipPath84)"
         id="g80"><g
           transform="translate(28.3682,24.7417)"
           id="g86"><path
             id="path88"
             style="fill:none;stroke:#0c0d0d;stroke-width:0.5;stroke-linecap:butt;stroke-linejoin:miter;stroke-miterlimit:4;stroke-dasharray:none;stroke-opacity:1"
             d="m 0,0 c 0,-0.375 0.482,-0.679 1.077,-0.679 0.595,0 1.077,0.304 1.077,0.679 0,0.376 -0.482,0.681 -1.077,0.681 C 0.482,0.681 0,0.376 0,0" /></g><g
           transform="translate(25.5518,24.7417)"
           id="g90"><path
             id="path92"
             style="fill:none;stroke:#0c0d0d;stroke-width:0.5;stroke-linecap:butt;stroke-linejoin:miter;stroke-miterlimit:4;stroke-dasharray:none;stroke-opacity:1"
             d="m 0,0 c 0,-0.375 0.482,-0.679 1.077,-0.679 0.595,0 1.077,0.304 1.077,0.679 0,0.376 -0.482,0.681 -1.077,0.681 C 0.482,0.681 0,0.376 0,0" /></g><g
           transform="translate(26.96,26.2773)"
           id="g94"><path
             id="path96"
             style="fill:none;stroke:#0c0d0d;stroke-width:0.5;stroke-linecap:butt;stroke-linejoin:miter;stroke-miterlimit:4;stroke-dasharray:none;stroke-opacity:1"
             d="m 0,0 c 0,-0.375 0.482,-0.679 1.077,-0.679 0.595,0 1.077,0.304 1.077,0.679 0,0.376 -0.482,0.681 -1.077,0.681 C 0.482,0.681 0,0.376 0,0" /></g><g
           transform="translate(29.4668,26.98)"
           id="g98"><path
             id="path100"
             style="fill:none;stroke:#ce3232;stroke-width:0.5;stroke-linecap:butt;stroke-linejoin:miter;stroke-miterlimit:4;stroke-dasharray:none;stroke-opacity:1"
             d="M 0,0 2.672,-2.92 5.343,0 Z" /></g><g
           transform="translate(38.4482,24.04)"
           id="g102"><path
             id="path104"
             style="fill:none;stroke:#0c0d0d;stroke-width:0.5;stroke-linecap:butt;stroke-linejoin:miter;stroke-miterlimit:4;stroke-dasharray:none;stroke-opacity:1"
             d="M 0,0 -2.672,2.92 -5.343,0 Z" /></g><g
           transform="translate(37.9531,25.5098)"
           id="g106"><path
             id="path108"
             style="fill:none;stroke:#ce3232;stroke-width:0.52200001;stroke-linecap:butt;stroke-linejoin:miter;stroke-miterlimit:4;stroke-dasharray:none;stroke-opacity:1"
             d="M 0,0 2.319,-1.464 4.639,0 2.319,1.464 Z" /></g><g
           transform="translate(29.5342,47.6597)"
           id="g110"><path
             id="path112"
             style="fill:#0c0d0d;fill-opacity:1;fill-rule:nonzero;stroke:none"
             d="m 0,0 h 19.785 c 1.966,0 3.559,-0.955 3.559,-2.134 v -18.157 c 0,-1.178 -1.593,-2.133 -3.559,-2.133 H 0 c -1.966,0 -3.559,0.955 -3.559,2.133 V -2.134 C -3.559,-0.955 -1.966,0 0,0" /></g><g
           transform="translate(30.0283,47.0303)"
           id="g114"><path
             id="path116"
             style="fill:#efefef;fill-opacity:1;fill-rule:nonzero;stroke:none"
             d="m 0,0 h 18.796 c 1.659,0 3.003,-0.806 3.003,-1.8 v -17.566 c 0,-0.993 -1.344,-1.8 -3.003,-1.8 H 0 c -1.658,0 -3.002,0.807 -3.002,1.8 V -1.8 C -3.002,-0.806 -1.658,0 0,0" /></g><g
           transform="translate(43.4268,39.5132)"
           id="g118"><path
             id="path120"
             style="fill:none;stroke:#1d1e1c;stroke-width:1;stroke-linecap:butt;stroke-linejoin:miter;stroke-miterlimit:4;stroke-dasharray:none;stroke-opacity:1"
             d="m 0,0 c -1.689,0 -3.06,-0.821 -3.06,-1.834 0,-1.014 1.371,-1.834 3.06,-1.834 1.689,0 3.059,0.82 3.059,1.834 C 3.059,-0.821 1.689,0 0,0 Z" /></g><g
           transform="translate(35.4268,39.5132)"
           id="g122"><path
             id="path124"
             style="fill:none;stroke:#1d1e1c;stroke-width:1;stroke-linecap:butt;stroke-linejoin:miter;stroke-miterlimit:4;stroke-dasharray:none;stroke-opacity:1"
             d="m 0,0 c -1.69,0 -3.06,-0.821 -3.06,-1.834 0,-1.014 1.37,-1.834 3.06,-1.834 1.69,0 3.06,0.82 3.06,1.834 C 3.06,-0.821 1.69,0 0,0 Z" /></g><g
           transform="translate(39.4263,43.6563)"
           id="g126"><path
             id="path128"
             style="fill:none;stroke:#1d1e1c;stroke-width:1;stroke-linecap:butt;stroke-linejoin:miter;stroke-miterlimit:4;stroke-dasharray:none;stroke-opacity:1"
             d="m 0,0 c -1.689,0 -3.059,-0.821 -3.059,-1.834 0,-1.012 1.37,-1.833 3.059,-1.833 1.69,0 3.06,0.821 3.06,1.833 C 3.06,-0.821 1.69,0 0,0 Z" /></g><g
           transform="translate(39.2573,31.729)"
           id="g130"><path
             id="path132"
             style="fill:#0c0d0d;fill-opacity:1;fill-rule:nonzero;stroke:none"
             d="m 0,0 c 0.822,0 1.473,-0.124 1.953,-0.373 0.479,-0.248 0.718,-0.6 0.718,-1.05 0,-0.49 -0.262,-0.875 -0.792,-1.156 -0.53,-0.28 -1.246,-0.42 -2.15,-0.42 -0.424,0 -0.809,0.025 -1.163,0.075 -0.349,0.049 -0.649,0.115 -0.899,0.196 v 0.387 c 0.266,-0.096 0.579,-0.173 0.946,-0.231 0.366,-0.058 0.742,-0.089 1.128,-0.089 0.685,0 1.236,0.104 1.652,0.308 0.414,0.208 0.623,0.508 0.623,0.901 0,0.354 -0.18,0.625 -0.538,0.82 -0.358,0.196 -0.904,0.294 -1.637,0.294 -0.288,0 -0.565,-0.014 -0.839,-0.035 -0.27,-0.024 -0.519,-0.051 -0.745,-0.088 l -0.354,0.143 0.33,2.233 H 2.151 V 1.562 h -3.374 l -0.226,-1.67 c 0.159,0.018 0.357,0.039 0.599,0.067 C -0.609,-0.013 -0.325,0 0,0" /></g><g
           transform="translate(44.2461,36.2373)"
           id="g134"><path
             id="path136"
             style="fill:#43bcd7;fill-opacity:1;fill-rule:nonzero;stroke:none"
             d="m 0,0 c 0,-1.42 -1.904,-2.571 -4.252,-2.571 -2.349,0 -4.252,1.151 -4.252,2.571 0,1.42 1.903,2.572 4.252,2.572 C -1.904,2.572 0,1.42 0,0" /></g><g
           transform="translate(44.2461,36.2373)"
           id="g138"><path
             id="path140"
             style="fill:none;stroke:#f0f0f0;stroke-width:1;stroke-linecap:butt;stroke-linejoin:miter;stroke-miterlimit:4;stroke-dasharray:none;stroke-opacity:1"
             d="m 0,0 c 0,-1.42 -1.904,-2.571 -4.252,-2.571 -2.349,0 -4.252,1.151 -4.252,2.571 0,1.42 1.903,2.572 4.252,2.572 C -1.904,2.572 0,1.42 0,0 Z" /></g><g
           transform="translate(41.0269,36.606)"
           id="g142"><path
             id="path144"
             style="fill:#58c4dc;fill-opacity:1;fill-rule:nonzero;stroke:none"
             d="m 0,0 c 0,0 -0.113,0.642 -0.312,1.765 -0.263,1.316 -0.656,3.359 -1.36,5.202 -0.359,0.909 -0.759,1.684 -1.296,2.365 -0.136,0.17 -0.289,0.329 -0.475,0.472 -0.18,0.135 -0.443,0.273 -0.737,0.213 C -4.73,9.854 -4.969,9.429 -5.232,9.042 -5.721,8.229 -6.135,7.24 -6.461,5.869 -6.782,4.512 -7.02,2.946 -7.206,1.39 -7.37,0.022 -7.479,-1.037 -7.585,-2.198 -7.68,-3.335 -7.773,-4.455 -7.863,-5.539 c -0.162,-2.166 -0.283,-4.188 -0.38,-5.92 -0.095,-1.838 -0.159,-3.063 -0.159,-3.063 l -1.677,0.081 2.428,-4.678 2.828,4.424 -1.677,0.081 c 0,0 0.063,1.219 0.158,3.05 0.096,1.724 0.217,3.734 0.378,5.883 0.089,1.073 0.181,2.182 0.275,3.308 0.098,1.102 0.231,2.339 0.339,3.263 0.187,1.457 0.369,2.93 0.81,4.242 0.126,0.307 0.245,0.674 0.56,0.813 0.168,0.05 0.321,-0.076 0.42,-0.194 0.104,-0.125 0.187,-0.263 0.258,-0.405 0.281,-0.568 0.448,-1.147 0.598,-1.677 0.29,-1.066 0.465,-1.971 0.586,-2.604 0.151,-0.865 0.237,-1.36 0.237,-1.36 z" /></g><g
           transform="translate(145.8008,49.7466)"
           id="g146"><path
             id="path148"
             style="fill:#efefef;fill-opacity:1;fill-rule:nonzero;stroke:none"
             d="m 0,0 19.635,-3.463 c 1.733,-0.306 2.889,-1.957 2.584,-3.69 l -5.398,-30.613 c -0.305,-1.732 -1.957,-2.889 -3.69,-2.584 l -19.635,3.463 c -1.733,0.305 -2.89,1.957 -2.584,3.69 L -3.69,-2.584 C -3.385,-0.852 -1.733,0.305 0,0" /></g><g
           transform="translate(145.8008,49.7466)"
           id="g150"><path
             id="path152"
             style="fill:none;stroke:#c6c6c5;stroke-width:1;stroke-linecap:butt;stroke-linejoin:miter;stroke-miterlimit:4;stroke-dasharray:none;stroke-opacity:1"
             d="m 0,0 19.635,-3.463 c 1.733,-0.306 2.889,-1.957 2.584,-3.69 l -5.398,-30.613 c -0.305,-1.732 -1.957,-2.889 -3.69,-2.584 l -19.635,3.463 c -1.733,0.305 -2.89,1.957 -2.584,3.69 L -3.69,-2.584 C -3.385,-0.852 -1.733,0.305 0,0 Z" /></g><g
           transform="translate(144.8008,50.7466)"
           id="g154"><path
             id="path156"
             style="fill:#efefef;fill-opacity:1;fill-rule:nonzero;stroke:none"
             d="m 0,0 19.635,-3.463 c 1.733,-0.306 2.889,-1.957 2.584,-3.69 l -5.398,-30.613 c -0.305,-1.732 -1.957,-2.889 -3.69,-2.584 l -19.635,3.463 c -1.733,0.305 -2.89,1.957 -2.584,3.69 L -3.69,-2.584 C -3.385,-0.852 -1.733,0.305 0,0" /></g></g></g><g
       id="g158"><g
         clip-path="url(#clipPath164)"
         id="g160"><g
           id="g166"><g
             id="g168" /><g
             mask="url(#mask180)"
             id="g192"><g
               id="g194"><path
                 id="path202"
                 style="fill:url(#radialGradient200);stroke:none"
                 d="m 141.11,48.163 -5.397,-30.614 c -0.306,-1.732 0.851,-3.385 2.584,-3.689 v 0 l 19.635,-3.463 c 1.733,-0.305 3.384,0.851 3.69,2.584 v 0 l 5.397,30.612 c 0.306,1.734 -0.85,3.385 -2.584,3.69 v 0 l -19.634,3.464 c -0.187,0.032 -0.373,0.048 -0.557,0.048 v 0 c -1.517,0 -2.861,-1.087 -3.134,-2.632" /></g></g></g></g></g><g
       id="g204"><g
         clip-path="url(#clipPath210)"
         id="g206"><g
           transform="translate(145.5361,30.3638)"
           id="g212"><path
             id="path214"
             style="fill:none;stroke:#0c0d0d;stroke-width:0.5;stroke-linecap:butt;stroke-linejoin:miter;stroke-miterlimit:4;stroke-dasharray:none;stroke-opacity:1"
             d="M 0,0 C -0.103,-0.586 0.289,-1.145 0.875,-1.248 1.46,-1.351 2.02,-0.96 2.122,-0.374 2.226,0.212 1.834,0.771 1.249,0.874 0.662,0.978 0.104,0.586 0,0" /></g><g
           transform="translate(142.7627,30.853)"
           id="g216"><path
             id="path218"
             style="fill:none;stroke:#0c0d0d;stroke-width:0.5;stroke-linecap:butt;stroke-linejoin:miter;stroke-miterlimit:4;stroke-dasharray:none;stroke-opacity:1"
             d="M 0,0 C -0.104,-0.586 0.288,-1.145 0.875,-1.248 1.459,-1.352 2.019,-0.96 2.121,-0.374 2.225,0.212 1.834,0.771 1.249,0.874 0.662,0.977 0.104,0.586 0,0" /></g><g
           transform="translate(144.5723,33.0054)"
           id="g220"><path
             id="path222"
             style="fill:none;stroke:#0c0d0d;stroke-width:0.5;stroke-linecap:butt;stroke-linejoin:miter;stroke-miterlimit:4;stroke-dasharray:none;stroke-opacity:1"
             d="M 0,0 C -0.104,-0.586 0.288,-1.145 0.875,-1.248 1.459,-1.351 2.019,-0.96 2.122,-0.374 2.225,0.212 1.833,0.771 1.249,0.873 0.662,0.977 0.103,0.586 0,0" /></g><g
           transform="translate(147.2354,33.6646)"
           id="g224"><path
             id="path226"
             style="fill:none;stroke:#ce3232;stroke-width:0.5;stroke-linecap:butt;stroke-linejoin:miter;stroke-miterlimit:4;stroke-dasharray:none;stroke-opacity:1"
             d="M 0,0 1.827,-5.021 5.26,-0.928 Z" /></g><g
           transform="translate(155.2705,27.519)"
           id="g228"><path
             id="path230"
             style="fill:none;stroke:#0c0d0d;stroke-width:0.5;stroke-linecap:butt;stroke-linejoin:miter;stroke-miterlimit:4;stroke-dasharray:none;stroke-opacity:1"
             d="M 0,0 -1.828,5.021 -5.261,0.928 Z" /></g><g
           transform="translate(155.1885,29.8979)"
           id="g232"><path
             id="path234"
             style="fill:none;stroke:#ce3232;stroke-width:0.52200001;stroke-linecap:butt;stroke-linejoin:miter;stroke-miterlimit:4;stroke-dasharray:none;stroke-opacity:1"
             d="M 0,0 1.88,-2.688 4.568,-0.806 2.686,1.882 Z" /></g><g
           transform="translate(132.3979,49.3003)"
           id="g236"><path
             id="path238"
             style="fill:#efefef;fill-opacity:1;fill-rule:nonzero;stroke:none"
             d="m 0,0 h 19.937 c 1.76,0 3.186,-1.427 3.186,-3.186 v -31.085 c 0,-1.758 -1.426,-3.186 -3.186,-3.186 H 0 c -1.76,0 -3.186,1.428 -3.186,3.186 V -3.186 C -3.186,-1.427 -1.76,0 0,0" /></g><g
           transform="translate(132.3979,49.3003)"
           id="g240"><path
             id="path242"
             style="fill:none;stroke:#c6c6c5;stroke-width:1;stroke-linecap:butt;stroke-linejoin:miter;stroke-miterlimit:4;stroke-dasharray:none;stroke-opacity:1"
             d="m 0,0 h 19.937 c 1.76,0 3.186,-1.427 3.186,-3.186 v -31.085 c 0,-1.758 -1.426,-3.186 -3.186,-3.186 H 0 c -1.76,0 -3.186,1.428 -3.186,3.186 V -3.186 C -3.186,-1.427 -1.76,0 0,0 Z" /></g><g
           transform="translate(131.3979,50.3003)"
           id="g244"><path
             id="path246"
             style="fill:#efefef;fill-opacity:1;fill-rule:nonzero;stroke:none"
             d="m 0,0 h 19.937 c 1.76,0 3.186,-1.427 3.186,-3.186 v -31.085 c 0,-1.758 -1.426,-3.186 -3.186,-3.186 H 0 c -1.76,0 -3.186,1.428 -3.186,3.186 V -3.186 C -3.186,-1.427 -1.76,0 0,0" /></g></g></g><g
       id="g248"><g
         clip-path="url(#clipPath254)"
         id="g250"><g
           id="g256"><g
             id="g258" /><g
             mask="url(#mask270)"
             id="g282"><g
               id="g284"><path
                 id="path292"
                 style="fill:url(#radialGradient290);stroke:none"
                 d="m 131.398,50.3 c -1.76,0 -3.186,-1.426 -3.186,-3.185 v 0 -31.086 c 0,-1.758 1.426,-3.186 3.186,-3.186 v 0 h 19.937 c 1.759,0 3.185,1.428 3.185,3.186 v 0 31.086 c 0,1.759 -1.426,3.185 -3.185,3.185 v 0 z" /></g></g></g></g></g><g
       id="g294"><g
         clip-path="url(#clipPath300)"
         id="g296"><g
           transform="translate(135.6616,30.355)"
           id="g302"><path
             id="path304"
             style="fill:none;stroke:#0c0d0d;stroke-width:0.5;stroke-linecap:butt;stroke-linejoin:miter;stroke-miterlimit:4;stroke-dasharray:none;stroke-opacity:1"
             d="m 0,0 c 0,-0.595 0.482,-1.077 1.077,-1.077 0.595,0 1.077,0.482 1.077,1.077 0,0.595 -0.482,1.077 -1.077,1.077 C 0.482,1.077 0,0.595 0,0" /></g><g
           transform="translate(132.8452,30.355)"
           id="g306"><path
             id="path308"
             style="fill:none;stroke:#0c0d0d;stroke-width:0.5;stroke-linecap:butt;stroke-linejoin:miter;stroke-miterlimit:4;stroke-dasharray:none;stroke-opacity:1"
             d="m 0,0 c 0,-0.595 0.482,-1.077 1.077,-1.077 0.595,0 1.077,0.482 1.077,1.077 0,0.595 -0.482,1.077 -1.077,1.077 C 0.482,1.077 0,0.595 0,0" /></g><g
           transform="translate(134.2534,32.7886)"
           id="g310"><path
             id="path312"
             style="fill:none;stroke:#0c0d0d;stroke-width:0.5;stroke-linecap:butt;stroke-linejoin:miter;stroke-miterlimit:4;stroke-dasharray:none;stroke-opacity:1"
             d="m 0,0 c 0,-0.595 0.482,-1.077 1.077,-1.077 0.595,0 1.077,0.482 1.077,1.077 0,0.595 -0.482,1.077 -1.077,1.077 C 0.482,1.077 0,0.595 0,0" /></g><g
           transform="translate(136.7603,33.8999)"
           id="g314"><path
             id="path316"
             style="fill:none;stroke:#ce3232;stroke-width:0.5;stroke-linecap:butt;stroke-linejoin:miter;stroke-miterlimit:4;stroke-dasharray:none;stroke-opacity:1"
             d="M 0,0 2.672,-4.627 5.342,0 Z" /></g><g
           transform="translate(145.7412,29.2437)"
           id="g318"><path
             id="path320"
             style="fill:none;stroke:#0c0d0d;stroke-width:0.5;stroke-linecap:butt;stroke-linejoin:miter;stroke-miterlimit:4;stroke-dasharray:none;stroke-opacity:1"
             d="M 0,0 -2.672,4.627 -5.342,0 Z" /></g><g
           transform="translate(145.2471,31.5718)"
           id="g322"><path
             id="path324"
             style="fill:none;stroke:#ce3232;stroke-width:0.52200001;stroke-linecap:butt;stroke-linejoin:miter;stroke-miterlimit:4;stroke-dasharray:none;stroke-opacity:1"
             d="M 0,0 2.318,-2.32 4.639,0 2.318,2.32 Z" /></g><g
           transform="translate(119.2979,46.2837)"
           id="g326"><path
             id="path328"
             style="fill:#efefef;fill-opacity:1;fill-rule:nonzero;stroke:none"
             d="m 0,0 19.634,3.462 c 1.732,0.306 3.385,-0.851 3.69,-2.584 l 5.398,-30.612 c 0.305,-1.733 -0.851,-3.385 -2.583,-3.691 L 6.504,-36.887 c -1.733,-0.305 -3.385,0.852 -3.691,2.584 L -2.584,-3.69 C -2.89,-1.957 -1.733,-0.306 0,0" /></g><g
           transform="translate(119.2979,46.2837)"
           id="g330"><path
             id="path332"
             style="fill:none;stroke:#c6c6c5;stroke-width:1;stroke-linecap:butt;stroke-linejoin:miter;stroke-miterlimit:4;stroke-dasharray:none;stroke-opacity:1"
             d="m 0,0 19.634,3.462 c 1.732,0.306 3.385,-0.851 3.69,-2.584 l 5.398,-30.612 c 0.305,-1.733 -0.851,-3.385 -2.583,-3.691 L 6.504,-36.887 c -1.733,-0.305 -3.385,0.852 -3.691,2.584 L -2.584,-3.69 C -2.89,-1.957 -1.733,-0.306 0,0 Z" /></g><g
           transform="translate(118.2979,47.2837)"
           id="g334"><path
             id="path336"
             style="fill:#efefef;fill-opacity:1;fill-rule:nonzero;stroke:none"
             d="m 0,0 19.634,3.462 c 1.732,0.306 3.385,-0.851 3.69,-2.584 l 5.398,-30.612 c 0.305,-1.733 -0.851,-3.385 -2.583,-3.691 L 6.504,-36.887 c -1.733,-0.305 -3.385,0.852 -3.691,2.584 L -2.584,-3.69 C -2.89,-1.957 -1.733,-0.306 0,0" /></g></g></g><g
       id="g338"><g
         clip-path="url(#clipPath344)"
         id="g340"><g
           id="g346"><g
             id="g348" /><g
             mask="url(#mask360)"
             id="g372"><g
               id="g374"><path
                 id="path382"
                 style="fill:url(#radialGradient380);stroke:none"
                 d="m 137.931,50.746 -19.633,-3.463 c -1.734,-0.305 -2.89,-1.956 -2.584,-3.69 v 0 l 5.397,-30.612 c 0.306,-1.733 1.958,-2.889 3.691,-2.584 v 0 l 19.634,3.462 c 1.733,0.305 2.89,1.958 2.584,3.69 v 0 l -5.398,30.613 c -0.273,1.546 -1.617,2.633 -3.133,2.633 v 0 c -0.184,0 -0.37,-0.016 -0.558,-0.049" /></g></g></g></g></g><g
       id="g384"><g
         clip-path="url(#clipPath390)"
         id="g386"><g
           transform="translate(125.96,28.3823)"
           id="g392"><path
             id="path394"
             style="fill:none;stroke:#0c0d0d;stroke-width:0.5;stroke-linecap:butt;stroke-linejoin:miter;stroke-miterlimit:4;stroke-dasharray:none;stroke-opacity:1"
             d="M 0,0 C 0.104,-0.586 0.662,-0.977 1.248,-0.873 1.834,-0.771 2.225,-0.211 2.121,0.375 2.019,0.96 1.459,1.352 0.873,1.248 0.288,1.145 -0.104,0.586 0,0" /></g><g
           transform="translate(123.1855,27.894)"
           id="g396"><path
             id="path398"
             style="fill:none;stroke:#0c0d0d;stroke-width:0.5;stroke-linecap:butt;stroke-linejoin:miter;stroke-miterlimit:4;stroke-dasharray:none;stroke-opacity:1"
             d="M 0,0 C 0.104,-0.586 0.663,-0.978 1.249,-0.875 1.834,-0.771 2.226,-0.213 2.122,0.373 2.019,0.959 1.46,1.351 0.874,1.247 0.288,1.145 -0.103,0.585 0,0" /></g><g
           transform="translate(124.1504,30.5347)"
           id="g400"><path
             id="path402"
             style="fill:none;stroke:#0c0d0d;stroke-width:0.5;stroke-linecap:butt;stroke-linejoin:miter;stroke-miterlimit:4;stroke-dasharray:none;stroke-opacity:1"
             d="M 0,0 C 0.104,-0.586 0.662,-0.977 1.248,-0.873 1.834,-0.771 2.225,-0.211 2.122,0.374 2.019,0.96 1.46,1.351 0.874,1.248 0.288,1.145 -0.104,0.586 0,0" /></g><g
           transform="translate(126.4268,32.0649)"
           id="g404"><path
             id="path406"
             style="fill:none;stroke:#ce3232;stroke-width:0.5;stroke-linecap:butt;stroke-linejoin:miter;stroke-miterlimit:4;stroke-dasharray:none;stroke-opacity:1"
             d="M 0,0 3.435,-4.093 5.261,0.928 Z" /></g><g
           transform="translate(136.0791,29.0386)"
           id="g408"><path
             id="path410"
             style="fill:none;stroke:#0c0d0d;stroke-width:0.5;stroke-linecap:butt;stroke-linejoin:miter;stroke-miterlimit:4;stroke-dasharray:none;stroke-opacity:1"
             d="m 0,0 -3.435,4.092 -1.827,-5.02 z" /></g><g
           transform="translate(135.1885,31.2456)"
           id="g412"><path
             id="path414"
             style="fill:none;stroke:#ce3232;stroke-width:0.52200001;stroke-linecap:butt;stroke-linejoin:miter;stroke-miterlimit:4;stroke-dasharray:none;stroke-opacity:1"
             d="M 0,0 2.686,-1.883 4.567,0.805 1.881,2.688 Z" /></g><g
           transform="translate(106.5938,39.7612)"
           id="g416"><path
             id="path418"
             style="fill:#efefef;fill-opacity:1;fill-rule:nonzero;stroke:none"
             d="m 0,0 18.735,6.818 c 1.654,0.602 3.481,-0.25 4.082,-1.904 l 10.632,-29.209 c 0.602,-1.654 -0.25,-3.482 -1.903,-4.084 l -18.735,-6.818 c -1.654,-0.602 -3.481,0.252 -4.082,1.904 L -1.903,-4.084 C -2.506,-2.43 -1.653,-0.602 0,0" /></g><g
           transform="translate(106.5938,39.7612)"
           id="g420"><path
             id="path422"
             style="fill:none;stroke:#c6c6c5;stroke-width:1;stroke-linecap:butt;stroke-linejoin:miter;stroke-miterlimit:4;stroke-dasharray:none;stroke-opacity:1"
             d="m 0,0 18.735,6.818 c 1.654,0.602 3.481,-0.25 4.082,-1.904 l 10.632,-29.209 c 0.602,-1.654 -0.25,-3.482 -1.903,-4.084 l -18.735,-6.818 c -1.654,-0.602 -3.481,0.252 -4.082,1.904 L -1.903,-4.084 C -2.506,-2.43 -1.653,-0.602 0,0 Z" /></g><g
           transform="translate(105.5938,40.7612)"
           id="g424"><path
             id="path426"
             style="fill:#efefef;fill-opacity:1;fill-rule:nonzero;stroke:none"
             d="m 0,0 18.735,6.818 c 1.654,0.602 3.481,-0.25 4.082,-1.904 l 10.632,-29.209 c 0.602,-1.654 -0.25,-3.482 -1.903,-4.084 l -18.735,-6.818 c -1.654,-0.602 -3.481,0.252 -4.082,1.904 L -1.903,-4.084 C -2.506,-2.43 -1.653,-0.602 0,0" /></g></g></g><g
       id="g428"><g
         clip-path="url(#clipPath434)"
         id="g430"><g
           id="g436"><g
             id="g438" /><g
             mask="url(#mask450)"
             id="g462"><g
               id="g464"><path
                 id="path472"
                 style="fill:url(#radialGradient470);stroke:none"
                 d="m 124.329,47.579 -18.736,-6.818 c -1.653,-0.601 -2.505,-2.429 -1.902,-4.084 v 0 L 114.323,7.468 c 0.601,-1.652 2.428,-2.505 4.081,-1.904 v 0 l 18.735,6.818 c 1.654,0.602 2.506,2.43 1.904,4.084 v 0 l -10.632,29.209 c -0.47,1.294 -1.691,2.098 -2.993,2.098 v 0 c -0.361,0 -0.73,-0.063 -1.089,-0.194" /></g></g></g></g></g><g
       id="g474"><g
         clip-path="url(#clipPath480)"
         id="g476"><g
           transform="translate(116.4219,23.4771)"
           id="g482"><path
             id="path484"
             style="fill:none;stroke:#0c0d0d;stroke-width:0.5;stroke-linecap:butt;stroke-linejoin:miter;stroke-miterlimit:4;stroke-dasharray:none;stroke-opacity:1"
             d="M 0,0 C 0.203,-0.559 0.822,-0.847 1.381,-0.644 1.939,-0.44 2.229,0.179 2.024,0.737 1.821,1.296 1.203,1.584 0.645,1.38 0.085,1.177 -0.203,0.56 0,0" /></g><g
           transform="translate(113.7754,22.5132)"
           id="g486"><path
             id="path488"
             style="fill:none;stroke:#0c0d0d;stroke-width:0.5;stroke-linecap:butt;stroke-linejoin:miter;stroke-miterlimit:4;stroke-dasharray:none;stroke-opacity:1"
             d="M 0,0 C 0.203,-0.559 0.822,-0.846 1.381,-0.643 1.939,-0.439 2.229,0.18 2.024,0.738 1.821,1.297 1.203,1.584 0.645,1.381 0.085,1.178 -0.203,0.561 0,0" /></g><g
           transform="translate(114.2666,25.2827)"
           id="g490"><path
             id="path492"
             style="fill:none;stroke:#0c0d0d;stroke-width:0.5;stroke-linecap:butt;stroke-linejoin:miter;stroke-miterlimit:4;stroke-dasharray:none;stroke-opacity:1"
             d="M 0,0 C 0.203,-0.559 0.821,-0.848 1.381,-0.645 1.939,-0.44 2.228,0.178 2.024,0.736 1.821,1.295 1.202,1.584 0.644,1.381 0.085,1.178 -0.203,0.559 0,0" /></g><g
           transform="translate(116.2422,27.1851)"
           id="g494"><path
             id="path496"
             style="fill:none;stroke:#ce3232;stroke-width:0.5;stroke-linecap:butt;stroke-linejoin:miter;stroke-miterlimit:4;stroke-dasharray:none;stroke-opacity:1"
             d="M 0,0 4.093,-3.435 5.02,1.826 Z" /></g><g
           transform="translate(126.2744,25.8804)"
           id="g498"><path
             id="path500"
             style="fill:none;stroke:#0c0d0d;stroke-width:0.5;stroke-linecap:butt;stroke-linejoin:miter;stroke-miterlimit:4;stroke-dasharray:none;stroke-opacity:1"
             d="m 0,0 -4.093,3.434 -0.928,-5.26 z" /></g><g
           transform="translate(125.0127,27.8989)"
           id="g502"><path
             id="path504"
             style="fill:none;stroke:#ce3232;stroke-width:0.52200001;stroke-linecap:butt;stroke-linejoin:miter;stroke-miterlimit:4;stroke-dasharray:none;stroke-opacity:1"
             d="M 0,0 2.974,-1.386 4.358,1.587 1.387,2.974 Z" /></g><g
           transform="translate(139.1274,53.6563)"
           id="g506"><path
             id="path508"
             style="fill:#b775ae;fill-opacity:1;fill-rule:nonzero;stroke:none"
             d="M 0,0 V 3.068 3.452 H 1.679 L -0.952,8.006 -3.583,3.452 h 1.679 V 3.068 l 0,-3.068 z" /></g><g
           transform="translate(74.3516,35.8042)"
           id="g510"><path
             id="path512"
             style="fill:#ae64a4;fill-opacity:1;fill-rule:nonzero;stroke:none"
             d="m 0,0 c 2.739,2.051 6.647,1.839 9.136,-0.65 1.581,-1.581 2.241,-3.739 1.988,-5.804 l 2.034,0.274 C 13.317,-3.687 12.455,-1.141 10.55,0.764 7.275,4.039 2.104,4.258 -1.429,1.429 l -2.163,2.163 -0.884,-6.54 6.541,0.884 z m 9.818,-12.616 c -3.534,-2.843 -8.716,-2.628 -11.996,0.652 -1.907,1.907 -2.771,4.458 -2.608,6.957 l 2.036,0.274 c -0.257,-2.071 0.401,-4.231 1.986,-5.817 2.493,-2.492 6.412,-2.7 9.153,-0.637 l -2.066,2.066 6.54,0.884 -0.884,-6.54 z" /></g></g></g></g></svg>