<?xml version="1.0" encoding="UTF-8" standalone="no"?>
<svg
   xmlns:dc="http://purl.org/dc/elements/1.1/"
   xmlns:cc="http://creativecommons.org/ns#"
   xmlns:rdf="http://www.w3.org/1999/02/22-rdf-syntax-ns#"
   xmlns:svg="http://www.w3.org/2000/svg"
   xmlns="http://www.w3.org/2000/svg"
   viewBox="0 0 232.66667 87.333336"
   height="87.333336"
   width="232.66667"
   xml:space="preserve"
   id="svg2"
   version="1.1"><metadata
     id="metadata8"><rdf:RDF><cc:Work
         rdf:about=""><dc:format>image/svg+xml</dc:format><dc:type
           rdf:resource="http://purl.org/dc/dcmitype/StillImage" /></cc:Work></rdf:RDF></metadata><defs
     id="defs6"><clipPath
       id="clipPath18"
       clipPathUnits="userSpaceOnUse"><path
         id="path16"
         d="M 0,65.5 H 174.5 V 0 H 0 Z" /></clipPath><clipPath
       id="clipPath54"
       clipPathUnits="userSpaceOnUse"><path
         id="path52"
         d="m 144.104,44.252 c -1.759,0 -3.185,-1.425 -3.185,-3.186 v 0 -31.084 c 0,-1.76 1.426,-3.185 3.185,-3.185 v 0 h 19.938 c 1.759,0 3.184,1.425 3.184,3.185 v 0 31.084 c 0,1.761 -1.425,3.186 -3.184,3.186 v 0 z" /></clipPath><radialGradient
       id="radialGradient68"
       spreadMethod="pad"
       gradientTransform="matrix(13.152931,0,0,18.726664,154.07324,25.527344)"
       gradientUnits="userSpaceOnUse"
       r="1"
       cy="0"
       cx="0"
       fy="0"
       fx="0"><stop
         id="stop64"
         offset="0"
         style="stop-opacity:1;stop-color:#ffffff" /><stop
         id="stop66"
         offset="1"
         style="stop-opacity:0;stop-color:#ffffff" /></radialGradient><mask
       id="mask70"
       height="1"
       width="1"
       y="0"
       x="0"
       maskUnits="userSpaceOnUse"><g
         id="g80"><g
           id="g78"><g
             id="g76"><g
               id="g74"><path
                 id="path72"
                 style="fill:url(#radialGradient68);stroke:none"
                 d="M -32768,32767 H 32767 V -32768 H -32768 Z" /></g></g></g></g></mask><radialGradient
       id="radialGradient90"
       spreadMethod="pad"
       gradientTransform="matrix(13.152931,0,0,18.726664,154.07324,25.527344)"
       gradientUnits="userSpaceOnUse"
       r="1"
       cy="0"
       cx="0"
       fy="0"
       fx="0"><stop
         id="stop86"
         offset="0"
         style="stop-opacity:1;stop-color:#ffffff" /><stop
         id="stop88"
         offset="1"
         style="stop-opacity:1;stop-color:#efefef" /></radialGradient><clipPath
       id="clipPath100"
       clipPathUnits="userSpaceOnUse"><path
         id="path98"
         d="M 0,65.5 H 174.5 V 0 H 0 Z" /></clipPath><clipPath
       id="clipPath152"
       clipPathUnits="userSpaceOnUse"><path
         id="path150"
         d="m 31.398,55.301 c -1.76,0 -3.186,-1.427 -3.186,-3.186 v 0 -31.086 c 0,-1.758 1.426,-3.186 3.186,-3.186 v 0 h 19.937 c 1.76,0 3.185,1.428 3.185,3.186 v 0 31.086 c 0,1.759 -1.425,3.186 -3.185,3.186 v 0 z" /></clipPath><radialGradient
       id="radialGradient166"
       spreadMethod="pad"
       gradientTransform="matrix(13.154316,0,0,18.728634,41.366211,36.574219)"
       gradientUnits="userSpaceOnUse"
       r="1"
       cy="0"
       cx="0"
       fy="0"
       fx="0"><stop
         id="stop162"
         offset="0"
         style="stop-opacity:1;stop-color:#ffffff" /><stop
         id="stop164"
         offset="1"
         style="stop-opacity:0;stop-color:#ffffff" /></radialGradient><mask
       id="mask168"
       height="1"
       width="1"
       y="0"
       x="0"
       maskUnits="userSpaceOnUse"><g
         id="g178"><g
           id="g176"><g
             id="g174"><g
               id="g172"><path
                 id="path170"
                 style="fill:url(#radialGradient166);stroke:none"
                 d="M -32768,32767 H 32767 V -32768 H -32768 Z" /></g></g></g></g></mask><radialGradient
       id="radialGradient188"
       spreadMethod="pad"
       gradientTransform="matrix(13.154316,0,0,18.728634,41.366211,36.574219)"
       gradientUnits="userSpaceOnUse"
       r="1"
       cy="0"
       cx="0"
       fy="0"
       fx="0"><stop
         id="stop184"
         offset="0"
         style="stop-opacity:1;stop-color:#ffffff" /><stop
         id="stop186"
         offset="1"
         style="stop-opacity:1;stop-color:#efefef" /></radialGradient><clipPath
       id="clipPath198"
       clipPathUnits="userSpaceOnUse"><path
         id="path196"
         d="M 0,65.5 H 174.5 V 0 H 0 Z" /></clipPath><clipPath
       id="clipPath242"
       clipPathUnits="userSpaceOnUse"><path
         id="path240"
         d="M 37.931,55.746 18.298,52.285 c -1.734,-0.306 -2.89,-1.958 -2.584,-3.691 v 0 l 5.397,-30.612 c 0.306,-1.733 1.958,-2.891 3.691,-2.584 v 0 l 19.635,3.461 c 1.732,0.306 2.889,1.959 2.583,3.691 v 0 l -5.398,30.612 c -0.273,1.546 -1.616,2.633 -3.133,2.633 v 0 c -0.184,0 -0.37,-0.016 -0.558,-0.049" /></clipPath><radialGradient
       id="radialGradient256"
       spreadMethod="pad"
       gradientTransform="matrix(12.954304,2.2841156,-3.2521501,18.444164,31.366211,35.566406)"
       gradientUnits="userSpaceOnUse"
       r="1"
       cy="0"
       cx="0"
       fy="0"
       fx="0"><stop
         id="stop252"
         offset="0"
         style="stop-opacity:1;stop-color:#ffffff" /><stop
         id="stop254"
         offset="1"
         style="stop-opacity:0;stop-color:#ffffff" /></radialGradient><mask
       id="mask258"
       height="1"
       width="1"
       y="0"
       x="0"
       maskUnits="userSpaceOnUse"><g
         id="g268"><g
           id="g266"><g
             id="g264"><g
               id="g262"><path
                 id="path260"
                 style="fill:url(#radialGradient256);stroke:none"
                 d="M -32768,32767 H 32767 V -32768 H -32768 Z" /></g></g></g></g></mask><radialGradient
       id="radialGradient278"
       spreadMethod="pad"
       gradientTransform="matrix(12.954304,2.2841156,-3.2521501,18.444164,31.366211,35.566406)"
       gradientUnits="userSpaceOnUse"
       r="1"
       cy="0"
       cx="0"
       fy="0"
       fx="0"><stop
         id="stop274"
         offset="0"
         style="stop-opacity:1;stop-color:#ffffff" /><stop
         id="stop276"
         offset="1"
         style="stop-opacity:1;stop-color:#efefef" /></radialGradient><clipPath
       id="clipPath288"
       clipPathUnits="userSpaceOnUse"><path
         id="path286"
         d="M 0,65.5 H 174.5 V 0 H 0 Z" /></clipPath><clipPath
       id="clipPath332"
       clipPathUnits="userSpaceOnUse"><path
         id="path330"
         d="M 24.329,52.58 5.594,45.761 C 3.94,45.16 3.088,43.332 3.69,41.678 v 0 L 14.323,12.469 c 0.601,-1.653 2.428,-2.507 4.081,-1.905 v 0 l 18.735,6.819 c 1.654,0.601 2.505,2.429 1.904,4.083 v 0 L 28.411,50.675 c -0.47,1.295 -1.691,2.098 -2.992,2.098 v 0 c -0.362,0 -0.73,-0.062 -1.09,-0.193" /></clipPath><radialGradient
       id="radialGradient346"
       spreadMethod="pad"
       gradientTransform="matrix(12.361232,4.4990859,-6.4054542,17.599106,21.365234,31.574219)"
       gradientUnits="userSpaceOnUse"
       r="1"
       cy="0"
       cx="0"
       fy="0"
       fx="0"><stop
         id="stop342"
         offset="0"
         style="stop-opacity:1;stop-color:#ffffff" /><stop
         id="stop344"
         offset="1"
         style="stop-opacity:0;stop-color:#ffffff" /></radialGradient><mask
       id="mask348"
       height="1"
       width="1"
       y="0"
       x="0"
       maskUnits="userSpaceOnUse"><g
         id="g358"><g
           id="g356"><g
             id="g354"><g
               id="g352"><path
                 id="path350"
                 style="fill:url(#radialGradient346);stroke:none"
                 d="M -32768,32767 H 32767 V -32768 H -32768 Z" /></g></g></g></g></mask><radialGradient
       id="radialGradient368"
       spreadMethod="pad"
       gradientTransform="matrix(12.361232,4.4990859,-6.4054542,17.599106,21.365234,31.574219)"
       gradientUnits="userSpaceOnUse"
       r="1"
       cy="0"
       cx="0"
       fy="0"
       fx="0"><stop
         id="stop364"
         offset="0"
         style="stop-opacity:1;stop-color:#ffffff" /><stop
         id="stop366"
         offset="1"
         style="stop-opacity:1;stop-color:#efefef" /></radialGradient><clipPath
       id="clipPath378"
       clipPathUnits="userSpaceOnUse"><path
         id="path376"
         d="M 0,65.5 H 174.5 V 0 H 0 Z" /></clipPath></defs><g
     transform="matrix(1.3333333,0,0,-1.3333333,0,87.333333)"
     id="g10"><g
       id="g12"><g
         clip-path="url(#clipPath18)"
         id="g14"><g
           transform="translate(146.2295,5.1694)"
           id="g20"><path
             id="path22"
             style="fill:#efefef;fill-opacity:1;fill-rule:nonzero;stroke:none"
             d="M 0,0 C -1.48,0 -2.686,1.205 -2.686,2.686 V 33.77 c 0,1.481 1.206,2.686 2.686,2.686 h 19.937 c 1.481,0 2.686,-1.205 2.686,-2.686 V 2.686 C 22.623,1.205 21.418,0 19.937,0 Z" /></g><g
           transform="translate(166.167,42.125)"
           id="g24"><path
             id="path26"
             style="fill:#c6c6c5;fill-opacity:1;fill-rule:nonzero;stroke:none"
             d="m 0,0 h -19.937 c -1.759,0 -3.186,-1.426 -3.186,-3.186 V -34.27 c 0,-1.76 1.427,-3.186 3.186,-3.186 H 0 c 1.76,0 3.186,1.426 3.186,3.186 V -3.186 C 3.186,-1.426 1.76,0 0,0 m 0,-1 c 1.205,0 2.186,-0.98 2.186,-2.186 V -34.27 c 0,-1.205 -0.981,-2.186 -2.186,-2.186 h -19.937 c -1.206,0 -2.186,0.981 -2.186,2.186 v 31.084 c 0,1.206 0.98,2.186 2.186,2.186 L 0,-1" /></g><g
           transform="translate(145.5205,5.8765)"
           id="g28"><path
             id="path30"
             style="fill:#c6c6c5;fill-opacity:1;fill-rule:nonzero;stroke:none"
             d="m 0,0 c -1.48,0 -2.686,1.205 -2.686,2.686 v 31.086 c 0,1.481 1.206,2.686 2.686,2.686 h 19.937 c 1.481,0 2.686,-1.205 2.686,-2.686 V 2.686 C 22.623,1.205 21.418,0 19.937,0 Z" /></g><g
           transform="translate(165.458,42.834)"
           id="g32"><path
             id="path34"
             style="fill:#efefef;fill-opacity:1;fill-rule:nonzero;stroke:none"
             d="m 0,0 h -19.937 c -1.759,0 -3.186,-1.427 -3.186,-3.186 v -31.086 c 0,-1.758 1.427,-3.186 3.186,-3.186 H 0 c 1.76,0 3.186,1.428 3.186,3.186 V -3.186 C 3.186,-1.427 1.76,0 0,0 m 0,-1 c 1.205,0 2.186,-0.98 2.186,-2.186 v -31.086 c 0,-1.205 -0.981,-2.186 -2.186,-2.186 h -19.937 c -1.206,0 -2.186,0.981 -2.186,2.186 v 31.086 c 0,1.206 0.98,2.186 2.186,2.186 H 0" /></g><g
           transform="translate(144.8125,6.5854)"
           id="g36"><path
             id="path38"
             style="fill:#efefef;fill-opacity:1;fill-rule:nonzero;stroke:none"
             d="m 0,0 c -1.48,0 -2.686,1.205 -2.686,2.686 v 31.085 c 0,1.481 1.206,2.686 2.686,2.686 h 19.937 c 1.481,0 2.685,-1.205 2.685,-2.686 V 2.686 C 22.622,1.205 21.418,0 19.937,0 Z" /></g><g
           transform="translate(164.75,43.542)"
           id="g40"><path
             id="path42"
             style="fill:#c6c6c5;fill-opacity:1;fill-rule:nonzero;stroke:none"
             d="m 0,0 h -19.937 c -1.76,0 -3.186,-1.427 -3.186,-3.186 v -31.085 c 0,-1.758 1.426,-3.186 3.186,-3.186 H 0 c 1.759,0 3.185,1.428 3.185,3.186 V -3.186 C 3.185,-1.427 1.759,0 0,0 m 0,-1 c 1.204,0 2.185,-0.98 2.185,-2.186 v -31.085 c 0,-1.205 -0.981,-2.186 -2.185,-2.186 h -19.937 c -1.206,0 -2.186,0.981 -2.186,2.186 v 31.085 c 0,1.206 0.98,2.186 2.186,2.186 H 0" /></g><g
           transform="translate(144.1045,44.252)"
           id="g44"><path
             id="path46"
             style="fill:#efefef;fill-opacity:1;fill-rule:nonzero;stroke:none"
             d="m 0,0 h 19.937 c 1.759,0 3.185,-1.426 3.185,-3.186 V -34.27 c 0,-1.76 -1.426,-3.186 -3.185,-3.186 H 0 c -1.76,0 -3.186,1.426 -3.186,3.186 V -3.186 C -3.186,-1.426 -1.76,0 0,0" /></g></g></g><g
       id="g48"><g
         clip-path="url(#clipPath54)"
         id="g50"><g
           id="g56"><g
             id="g58" /><g
             mask="url(#mask70)"
             id="g82"><g
               id="g84"><path
                 id="path92"
                 style="fill:url(#radialGradient90);stroke:none"
                 d="m 144.104,44.252 c -1.759,0 -3.185,-1.425 -3.185,-3.186 v 0 -31.084 c 0,-1.76 1.426,-3.185 3.185,-3.185 v 0 h 19.938 c 1.759,0 3.184,1.425 3.184,3.185 v 0 31.084 c 0,1.761 -1.425,3.186 -3.184,3.186 v 0 z" /></g></g></g></g></g><g
       id="g94"><g
         clip-path="url(#clipPath100)"
         id="g96"><g
           transform="translate(148.3682,24.3066)"
           id="g102"><path
             id="path104"
             style="fill:none;stroke:#0c0d0d;stroke-width:0.5;stroke-linecap:butt;stroke-linejoin:miter;stroke-miterlimit:4;stroke-dasharray:none;stroke-opacity:1"
             d="m 0,0 c 0,-0.594 0.482,-1.076 1.077,-1.076 0.595,0 1.077,0.482 1.077,1.076 0,0.596 -0.482,1.078 -1.077,1.078 C 0.482,1.078 0,0.596 0,0" /></g><g
           transform="translate(145.5518,24.3066)"
           id="g106"><path
             id="path108"
             style="fill:none;stroke:#0c0d0d;stroke-width:0.5;stroke-linecap:butt;stroke-linejoin:miter;stroke-miterlimit:4;stroke-dasharray:none;stroke-opacity:1"
             d="m 0,0 c 0,-0.594 0.482,-1.076 1.077,-1.076 0.595,0 1.077,0.482 1.077,1.076 0,0.596 -0.482,1.078 -1.077,1.078 C 0.482,1.078 0,0.596 0,0" /></g><g
           transform="translate(146.96,26.7402)"
           id="g110"><path
             id="path112"
             style="fill:none;stroke:#0c0d0d;stroke-width:0.5;stroke-linecap:butt;stroke-linejoin:miter;stroke-miterlimit:4;stroke-dasharray:none;stroke-opacity:1"
             d="m 0,0 c 0,-0.594 0.482,-1.076 1.077,-1.076 0.595,0 1.077,0.482 1.077,1.076 0,0.596 -0.482,1.078 -1.077,1.078 C 0.482,1.078 0,0.596 0,0" /></g><g
           transform="translate(149.4668,27.8525)"
           id="g114"><path
             id="path116"
             style="fill:none;stroke:#ce3232;stroke-width:0.5;stroke-linecap:butt;stroke-linejoin:miter;stroke-miterlimit:4;stroke-dasharray:none;stroke-opacity:1"
             d="M 0,0 2.672,-4.627 5.343,0 Z" /></g><g
           transform="translate(158.4482,23.1953)"
           id="g118"><path
             id="path120"
             style="fill:none;stroke:#0c0d0d;stroke-width:0.5;stroke-linecap:butt;stroke-linejoin:miter;stroke-miterlimit:4;stroke-dasharray:none;stroke-opacity:1"
             d="M 0,0 -2.672,4.627 -5.343,0 Z" /></g><g
           transform="translate(157.9531,25.5234)"
           id="g122"><path
             id="path124"
             style="fill:none;stroke:#ce3232;stroke-width:0.52200001;stroke-linecap:butt;stroke-linejoin:miter;stroke-miterlimit:4;stroke-dasharray:none;stroke-opacity:1"
             d="M 0,0 2.319,-2.319 4.639,0 2.319,2.32 Z" /></g><g
           transform="translate(59.4033,51.5801)"
           id="g126"><path
             id="path128"
             style="fill:none;stroke:#43bcd7;stroke-width:1;stroke-linecap:butt;stroke-linejoin:miter;stroke-miterlimit:4;stroke-dasharray:3;stroke-dashoffset:0;stroke-opacity:1"
             d="m 0,0 18.736,-6.819 c 1.653,-0.602 2.505,-2.43 1.904,-4.083 l -10.632,-29.21 c -0.602,-1.654 -2.43,-2.506 -4.083,-1.904 l -18.736,6.818 c -1.653,0.602 -2.504,2.43 -1.903,4.084 l 10.632,29.21 C -3.48,-0.251 -1.653,0.602 0,0 Z" /></g><g
           transform="translate(45.8008,54.7471)"
           id="g130"><path
             id="path132"
             style="fill:none;stroke:#43bcd7;stroke-width:1;stroke-linecap:butt;stroke-linejoin:miter;stroke-miterlimit:4;stroke-dasharray:3.051, 3.051;stroke-dashoffset:0;stroke-opacity:1"
             d="m 0,0 19.635,-3.463 c 1.733,-0.306 2.889,-1.957 2.584,-3.69 l -5.398,-30.612 c -0.305,-1.733 -1.957,-2.891 -3.69,-2.584 l -19.635,3.463 c -1.733,0.304 -2.89,1.957 -2.584,3.689 L -3.69,-2.584 C -3.385,-0.852 -1.733,0.305 0,0 Z" /></g><g
           transform="translate(32.3979,54.3008)"
           id="g134"><path
             id="path136"
             style="fill:#efefef;fill-opacity:1;fill-rule:nonzero;stroke:none"
             d="m 0,0 h 19.937 c 1.76,0 3.186,-1.427 3.186,-3.186 v -31.086 c 0,-1.758 -1.426,-3.186 -3.186,-3.186 H 0 c -1.76,0 -3.186,1.428 -3.186,3.186 V -3.186 C -3.186,-1.427 -1.76,0 0,0" /></g><g
           transform="translate(32.3979,54.3008)"
           id="g138"><path
             id="path140"
             style="fill:none;stroke:#c6c6c5;stroke-width:1;stroke-linecap:butt;stroke-linejoin:miter;stroke-miterlimit:4;stroke-dasharray:none;stroke-opacity:1"
             d="m 0,0 h 19.937 c 1.76,0 3.186,-1.427 3.186,-3.186 v -31.086 c 0,-1.758 -1.426,-3.186 -3.186,-3.186 H 0 c -1.76,0 -3.186,1.428 -3.186,3.186 V -3.186 C -3.186,-1.427 -1.76,0 0,0 Z" /></g><g
           transform="translate(31.3979,55.3008)"
           id="g142"><path
             id="path144"
             style="fill:#efefef;fill-opacity:1;fill-rule:nonzero;stroke:none"
             d="m 0,0 h 19.937 c 1.76,0 3.186,-1.427 3.186,-3.186 v -31.086 c 0,-1.758 -1.426,-3.186 -3.186,-3.186 H 0 c -1.76,0 -3.186,1.428 -3.186,3.186 V -3.186 C -3.186,-1.427 -1.76,0 0,0" /></g></g></g><g
       id="g146"><g
         clip-path="url(#clipPath152)"
         id="g148"><g
           id="g154"><g
             id="g156" /><g
             mask="url(#mask168)"
             id="g180"><g
               id="g182"><path
                 id="path190"
                 style="fill:url(#radialGradient188);stroke:none"
                 d="m 31.398,55.301 c -1.76,0 -3.186,-1.427 -3.186,-3.186 v 0 -31.086 c 0,-1.758 1.426,-3.186 3.186,-3.186 v 0 h 19.937 c 1.76,0 3.185,1.428 3.185,3.186 v 0 31.086 c 0,1.759 -1.425,3.186 -3.185,3.186 v 0 z" /></g></g></g></g></g><g
       id="g192"><g
         clip-path="url(#clipPath198)"
         id="g194"><g
           transform="translate(35.6616,35.3555)"
           id="g200"><path
             id="path202"
             style="fill:none;stroke:#0c0d0d;stroke-width:0.5;stroke-linecap:butt;stroke-linejoin:miter;stroke-miterlimit:4;stroke-dasharray:none;stroke-opacity:1"
             d="m 0,0 c 0,-0.595 0.482,-1.077 1.077,-1.077 0.595,0 1.077,0.482 1.077,1.077 0,0.595 -0.482,1.077 -1.077,1.077 C 0.482,1.077 0,0.595 0,0" /></g><g
           transform="translate(32.8452,35.3555)"
           id="g204"><path
             id="path206"
             style="fill:none;stroke:#0c0d0d;stroke-width:0.5;stroke-linecap:butt;stroke-linejoin:miter;stroke-miterlimit:4;stroke-dasharray:none;stroke-opacity:1"
             d="m 0,0 c 0,-0.595 0.482,-1.077 1.077,-1.077 0.595,0 1.077,0.482 1.077,1.077 0,0.595 -0.482,1.077 -1.077,1.077 C 0.482,1.077 0,0.595 0,0" /></g><g
           transform="translate(34.2534,37.7891)"
           id="g208"><path
             id="path210"
             style="fill:none;stroke:#0c0d0d;stroke-width:0.5;stroke-linecap:butt;stroke-linejoin:miter;stroke-miterlimit:4;stroke-dasharray:none;stroke-opacity:1"
             d="m 0,0 c 0,-0.595 0.482,-1.077 1.077,-1.077 0.595,0 1.077,0.482 1.077,1.077 0,0.595 -0.482,1.077 -1.077,1.077 C 0.482,1.077 0,0.595 0,0" /></g><g
           transform="translate(36.7603,38.9004)"
           id="g212"><path
             id="path214"
             style="fill:none;stroke:#ce3232;stroke-width:0.5;stroke-linecap:butt;stroke-linejoin:miter;stroke-miterlimit:4;stroke-dasharray:none;stroke-opacity:1"
             d="M 0,0 2.672,-4.627 5.342,0 Z" /></g><g
           transform="translate(45.7412,34.2441)"
           id="g216"><path
             id="path218"
             style="fill:none;stroke:#0c0d0d;stroke-width:0.5;stroke-linecap:butt;stroke-linejoin:miter;stroke-miterlimit:4;stroke-dasharray:none;stroke-opacity:1"
             d="M 0,0 -2.672,4.627 -5.342,0 Z" /></g><g
           transform="translate(45.2471,36.5723)"
           id="g220"><path
             id="path222"
             style="fill:none;stroke:#ce3232;stroke-width:0.52200001;stroke-linecap:butt;stroke-linejoin:miter;stroke-miterlimit:4;stroke-dasharray:none;stroke-opacity:1"
             d="M 0,0 2.318,-2.32 4.639,0 2.318,2.32 Z" /></g><g
           transform="translate(19.2979,51.2842)"
           id="g224"><path
             id="path226"
             style="fill:#efefef;fill-opacity:1;fill-rule:nonzero;stroke:none"
             d="m 0,0 19.634,3.462 c 1.732,0.306 3.385,-0.851 3.69,-2.584 l 5.398,-30.612 c 0.305,-1.732 -0.851,-3.385 -2.583,-3.691 L 6.504,-36.886 c -1.733,-0.307 -3.385,0.851 -3.691,2.584 L -2.584,-3.69 C -2.89,-1.957 -1.733,-0.306 0,0" /></g><g
           transform="translate(19.2979,51.2842)"
           id="g228"><path
             id="path230"
             style="fill:none;stroke:#c6c6c5;stroke-width:1;stroke-linecap:butt;stroke-linejoin:miter;stroke-miterlimit:4;stroke-dasharray:none;stroke-opacity:1"
             d="m 0,0 19.634,3.462 c 1.732,0.306 3.385,-0.851 3.69,-2.584 l 5.398,-30.612 c 0.305,-1.732 -0.851,-3.385 -2.583,-3.691 L 6.504,-36.886 c -1.733,-0.307 -3.385,0.851 -3.691,2.584 L -2.584,-3.69 C -2.89,-1.957 -1.733,-0.306 0,0 Z" /></g><g
           transform="translate(18.2979,52.2842)"
           id="g232"><path
             id="path234"
             style="fill:#efefef;fill-opacity:1;fill-rule:nonzero;stroke:none"
             d="m 0,0 19.634,3.462 c 1.732,0.306 3.385,-0.851 3.69,-2.584 l 5.398,-30.612 c 0.305,-1.732 -0.851,-3.385 -2.583,-3.691 L 6.504,-36.886 c -1.733,-0.307 -3.385,0.851 -3.691,2.584 L -2.584,-3.69 C -2.89,-1.957 -1.733,-0.306 0,0" /></g></g></g><g
       id="g236"><g
         clip-path="url(#clipPath242)"
         id="g238"><g
           id="g244"><g
             id="g246" /><g
             mask="url(#mask258)"
             id="g270"><g
               id="g272"><path
                 id="path280"
                 style="fill:url(#radialGradient278);stroke:none"
                 d="M 37.931,55.746 18.298,52.285 c -1.734,-0.306 -2.89,-1.958 -2.584,-3.691 v 0 l 5.397,-30.612 c 0.306,-1.733 1.958,-2.891 3.691,-2.584 v 0 l 19.635,3.461 c 1.732,0.306 2.889,1.959 2.583,3.691 v 0 l -5.398,30.612 c -0.273,1.546 -1.616,2.633 -3.133,2.633 v 0 c -0.184,0 -0.37,-0.016 -0.558,-0.049" /></g></g></g></g></g><g
       id="g282"><g
         clip-path="url(#clipPath288)"
         id="g284"><g
           transform="translate(25.96,33.3823)"
           id="g290"><path
             id="path292"
             style="fill:none;stroke:#0c0d0d;stroke-width:0.5;stroke-linecap:butt;stroke-linejoin:miter;stroke-miterlimit:4;stroke-dasharray:none;stroke-opacity:1"
             d="M 0,0 C 0.104,-0.586 0.662,-0.977 1.248,-0.873 1.834,-0.77 2.225,-0.211 2.121,0.375 2.019,0.96 1.459,1.352 0.873,1.249 0.288,1.145 -0.104,0.586 0,0" /></g><g
           transform="translate(23.1855,32.894)"
           id="g294"><path
             id="path296"
             style="fill:none;stroke:#0c0d0d;stroke-width:0.5;stroke-linecap:butt;stroke-linejoin:miter;stroke-miterlimit:4;stroke-dasharray:none;stroke-opacity:1"
             d="M 0,0 C 0.104,-0.586 0.663,-0.977 1.249,-0.875 1.834,-0.771 2.226,-0.213 2.122,0.373 2.019,0.959 1.46,1.351 0.874,1.248 0.288,1.145 -0.103,0.586 0,0" /></g><g
           transform="translate(24.1504,35.5352)"
           id="g298"><path
             id="path300"
             style="fill:none;stroke:#0c0d0d;stroke-width:0.5;stroke-linecap:butt;stroke-linejoin:miter;stroke-miterlimit:4;stroke-dasharray:none;stroke-opacity:1"
             d="M 0,0 C 0.104,-0.586 0.662,-0.977 1.248,-0.873 1.834,-0.771 2.225,-0.211 2.122,0.374 2.019,0.96 1.46,1.351 0.874,1.248 0.288,1.145 -0.104,0.586 0,0" /></g><g
           transform="translate(26.4268,37.0654)"
           id="g302"><path
             id="path304"
             style="fill:none;stroke:#ce3232;stroke-width:0.5;stroke-linecap:butt;stroke-linejoin:miter;stroke-miterlimit:4;stroke-dasharray:none;stroke-opacity:1"
             d="M 0,0 3.435,-4.093 5.261,0.928 Z" /></g><g
           transform="translate(36.0791,34.0391)"
           id="g306"><path
             id="path308"
             style="fill:none;stroke:#0c0d0d;stroke-width:0.5;stroke-linecap:butt;stroke-linejoin:miter;stroke-miterlimit:4;stroke-dasharray:none;stroke-opacity:1"
             d="m 0,0 -3.435,4.092 -1.827,-5.02 z" /></g><g
           transform="translate(35.1885,36.2461)"
           id="g310"><path
             id="path312"
             style="fill:none;stroke:#ce3232;stroke-width:0.52200001;stroke-linecap:butt;stroke-linejoin:miter;stroke-miterlimit:4;stroke-dasharray:none;stroke-opacity:1"
             d="M 0,0 2.686,-1.883 4.567,0.805 1.881,2.688 Z" /></g><g
           transform="translate(6.5937,44.7617)"
           id="g314"><path
             id="path316"
             style="fill:#efefef;fill-opacity:1;fill-rule:nonzero;stroke:none"
             d="m 0,0 18.735,6.818 c 1.654,0.602 3.481,-0.25 4.082,-1.904 l 10.632,-29.209 c 0.602,-1.655 -0.25,-3.483 -1.903,-4.084 l -18.735,-6.819 c -1.654,-0.601 -3.481,0.252 -4.082,1.905 L -1.903,-4.084 C -2.506,-2.43 -1.653,-0.602 0,0" /></g><g
           transform="translate(6.5937,44.7617)"
           id="g318"><path
             id="path320"
             style="fill:none;stroke:#c6c6c5;stroke-width:1;stroke-linecap:butt;stroke-linejoin:miter;stroke-miterlimit:4;stroke-dasharray:none;stroke-opacity:1"
             d="m 0,0 18.735,6.818 c 1.654,0.602 3.481,-0.25 4.082,-1.904 l 10.632,-29.209 c 0.602,-1.655 -0.25,-3.483 -1.903,-4.084 l -18.735,-6.819 c -1.654,-0.601 -3.481,0.252 -4.082,1.905 L -1.903,-4.084 C -2.506,-2.43 -1.653,-0.602 0,0 Z" /></g><g
           transform="translate(5.5937,45.7617)"
           id="g322"><path
             id="path324"
             style="fill:#efefef;fill-opacity:1;fill-rule:nonzero;stroke:none"
             d="m 0,0 18.735,6.818 c 1.654,0.602 3.481,-0.25 4.082,-1.904 l 10.632,-29.209 c 0.602,-1.655 -0.25,-3.483 -1.903,-4.084 l -18.735,-6.819 c -1.654,-0.601 -3.481,0.252 -4.082,1.905 L -1.903,-4.084 C -2.506,-2.43 -1.653,-0.602 0,0" /></g></g></g><g
       id="g326"><g
         clip-path="url(#clipPath332)"
         id="g328"><g
           id="g334"><g
             id="g336" /><g
             mask="url(#mask348)"
             id="g360"><g
               id="g362"><path
                 id="path370"
                 style="fill:url(#radialGradient368);stroke:none"
                 d="M 24.329,52.58 5.594,45.761 C 3.94,45.16 3.088,43.332 3.69,41.678 v 0 L 14.323,12.469 c 0.601,-1.653 2.428,-2.507 4.081,-1.905 v 0 l 18.735,6.819 c 1.654,0.601 2.505,2.429 1.904,4.083 v 0 L 28.411,50.675 c -0.47,1.295 -1.691,2.098 -2.992,2.098 v 0 c -0.362,0 -0.73,-0.062 -1.09,-0.193" /></g></g></g></g></g><g
       id="g372"><g
         clip-path="url(#clipPath378)"
         id="g374"><g
           transform="translate(16.4219,28.478)"
           id="g380"><path
             id="path382"
             style="fill:none;stroke:#0c0d0d;stroke-width:0.5;stroke-linecap:butt;stroke-linejoin:miter;stroke-miterlimit:4;stroke-dasharray:none;stroke-opacity:1"
             d="M 0,0 C 0.203,-0.559 0.822,-0.848 1.381,-0.645 1.939,-0.441 2.229,0.178 2.024,0.736 1.821,1.295 1.203,1.584 0.645,1.379 0.085,1.176 -0.203,0.559 0,0" /></g><g
           transform="translate(13.7754,27.5132)"
           id="g384"><path
             id="path386"
             style="fill:none;stroke:#0c0d0d;stroke-width:0.5;stroke-linecap:butt;stroke-linejoin:miter;stroke-miterlimit:4;stroke-dasharray:none;stroke-opacity:1"
             d="M 0,0 C 0.203,-0.559 0.822,-0.846 1.381,-0.643 1.939,-0.439 2.229,0.18 2.024,0.738 1.821,1.297 1.203,1.584 0.645,1.381 0.085,1.178 -0.203,0.561 0,0" /></g><g
           transform="translate(14.2666,30.2827)"
           id="g388"><path
             id="path390"
             style="fill:none;stroke:#0c0d0d;stroke-width:0.5;stroke-linecap:butt;stroke-linejoin:miter;stroke-miterlimit:4;stroke-dasharray:none;stroke-opacity:1"
             d="M 0,0 C 0.203,-0.559 0.821,-0.848 1.381,-0.645 1.939,-0.439 2.228,0.178 2.024,0.736 1.821,1.295 1.202,1.584 0.644,1.381 0.085,1.178 -0.203,0.559 0,0" /></g><g
           transform="translate(16.2422,32.1851)"
           id="g392"><path
             id="path394"
             style="fill:none;stroke:#ce3232;stroke-width:0.5;stroke-linecap:butt;stroke-linejoin:miter;stroke-miterlimit:4;stroke-dasharray:none;stroke-opacity:1"
             d="M 0,0 4.093,-3.434 5.02,1.827 Z" /></g><g
           transform="translate(26.2744,30.8804)"
           id="g396"><path
             id="path398"
             style="fill:none;stroke:#0c0d0d;stroke-width:0.5;stroke-linecap:butt;stroke-linejoin:miter;stroke-miterlimit:4;stroke-dasharray:none;stroke-opacity:1"
             d="m 0,0 -4.093,3.434 -0.928,-5.26 z" /></g><g
           transform="translate(25.0127,32.8999)"
           id="g400"><path
             id="path402"
             style="fill:none;stroke:#ce3232;stroke-width:0.52200001;stroke-linecap:butt;stroke-linejoin:miter;stroke-miterlimit:4;stroke-dasharray:none;stroke-opacity:1"
             d="M 0,0 2.974,-1.387 4.358,1.586 1.387,2.973 Z" /></g><g
           transform="translate(151.8076,49.0928)"
           id="g404"><path
             id="path406"
             style="fill:#58c4dc;fill-opacity:1;fill-rule:nonzero;stroke:none"
             d="m 0,0 c 0,0 -0.267,0.209 -0.768,0.602 -0.499,0.371 -1.228,0.912 -2.187,1.545 -1.911,1.273 -4.714,2.978 -8.257,4.666 -3.532,1.705 -7.808,3.376 -12.532,4.687 -4.72,1.318 -9.898,2.207 -15.111,2.582 -10.452,0.76 -20.927,-0.927 -28.396,-3.21 -1.891,-0.51 -3.576,-1.124 -5.082,-1.634 -0.328,-0.112 -0.615,-0.21 -0.851,-0.29 -0.12,-0.041 -0.188,-0.065 -0.188,-0.065 l -0.579,1.576 c -1.149,-1.393 -2.258,-2.774 -3.33,-4.139 1.753,-0.252 3.468,-0.518 5.144,-0.8 l -0.578,1.576 c 0,0 0.067,0.023 0.184,0.063 0.231,0.079 0.512,0.174 0.834,0.284 1.475,0.499 3.127,1.102 4.977,1.6 7.314,2.238 17.543,3.88 27.734,3.14 5.084,-0.367 10.132,-1.232 14.735,-2.518 4.605,-1.278 8.775,-2.909 12.216,-4.569 3.451,-1.644 6.178,-3.303 8.022,-4.532 0.927,-0.612 1.624,-1.13 2.096,-1.481 0.452,-0.353 0.692,-0.541 0.692,-0.541 z" /></g></g></g></g></svg>