<?xml version="1.0" encoding="UTF-8" standalone="no"?>
<svg
   xmlns:dc="http://purl.org/dc/elements/1.1/"
   xmlns:cc="http://creativecommons.org/ns#"
   xmlns:rdf="http://www.w3.org/1999/02/22-rdf-syntax-ns#"
   xmlns:svg="http://www.w3.org/2000/svg"
   xmlns="http://www.w3.org/2000/svg"
   viewBox="0 0 232.66667 87.333336"
   height="87.333336"
   width="232.66667"
   xml:space="preserve"
   id="svg2"
   version="1.1"><metadata
     id="metadata8"><rdf:RDF><cc:Work
         rdf:about=""><dc:format>image/svg+xml</dc:format><dc:type
           rdf:resource="http://purl.org/dc/dcmitype/StillImage" /></cc:Work></rdf:RDF></metadata><defs
     id="defs6"><clipPath
       id="clipPath18"
       clipPathUnits="userSpaceOnUse"><path
         id="path16"
         d="M 0,65.5 H 174.5 V 0 H 0 Z" /></clipPath><clipPath
       id="clipPath50"
       clipPathUnits="userSpaceOnUse"><path
         id="path48"
         d="m 31.398,55.301 c -1.76,0 -3.186,-1.427 -3.186,-3.186 v 0 -31.086 c 0,-1.758 1.426,-3.186 3.186,-3.186 v 0 h 19.937 c 1.76,0 3.185,1.428 3.185,3.186 v 0 31.086 c 0,1.759 -1.425,3.186 -3.185,3.186 v 0 z" /></clipPath><radialGradient
       id="radialGradient64"
       spreadMethod="pad"
       gradientTransform="matrix(13.154316,0,0,18.728634,41.366211,36.574219)"
       gradientUnits="userSpaceOnUse"
       r="1"
       cy="0"
       cx="0"
       fy="0"
       fx="0"><stop
         id="stop60"
         offset="0"
         style="stop-opacity:1;stop-color:#ffffff" /><stop
         id="stop62"
         offset="1"
         style="stop-opacity:0;stop-color:#ffffff" /></radialGradient><mask
       id="mask66"
       height="1"
       width="1"
       y="0"
       x="0"
       maskUnits="userSpaceOnUse"><g
         id="g76"><g
           id="g74"><g
             id="g72"><g
               id="g70"><path
                 id="path68"
                 style="fill:url(#radialGradient64);stroke:none"
                 d="M -32768,32767 H 32767 V -32768 H -32768 Z" /></g></g></g></g></mask><radialGradient
       id="radialGradient86"
       spreadMethod="pad"
       gradientTransform="matrix(13.154316,0,0,18.728634,41.366211,36.574219)"
       gradientUnits="userSpaceOnUse"
       r="1"
       cy="0"
       cx="0"
       fy="0"
       fx="0"><stop
         id="stop82"
         offset="0"
         style="stop-opacity:1;stop-color:#ffffff" /><stop
         id="stop84"
         offset="1"
         style="stop-opacity:1;stop-color:#efefef" /></radialGradient><clipPath
       id="clipPath96"
       clipPathUnits="userSpaceOnUse"><path
         id="path94"
         d="M 0,65.5 H 174.5 V 0 H 0 Z" /></clipPath><clipPath
       id="clipPath140"
       clipPathUnits="userSpaceOnUse"><path
         id="path138"
         d="M 37.931,55.746 18.298,52.285 c -1.734,-0.306 -2.89,-1.958 -2.584,-3.691 v 0 l 5.397,-30.612 c 0.306,-1.733 1.958,-2.891 3.691,-2.584 v 0 l 19.635,3.461 c 1.732,0.306 2.889,1.959 2.583,3.691 v 0 l -5.398,30.612 c -0.273,1.546 -1.616,2.633 -3.133,2.633 v 0 c -0.184,0 -0.37,-0.016 -0.558,-0.049" /></clipPath><radialGradient
       id="radialGradient154"
       spreadMethod="pad"
       gradientTransform="matrix(12.954304,2.2841156,-3.2521501,18.444164,31.366211,35.566406)"
       gradientUnits="userSpaceOnUse"
       r="1"
       cy="0"
       cx="0"
       fy="0"
       fx="0"><stop
         id="stop150"
         offset="0"
         style="stop-opacity:1;stop-color:#ffffff" /><stop
         id="stop152"
         offset="1"
         style="stop-opacity:0;stop-color:#ffffff" /></radialGradient><mask
       id="mask156"
       height="1"
       width="1"
       y="0"
       x="0"
       maskUnits="userSpaceOnUse"><g
         id="g166"><g
           id="g164"><g
             id="g162"><g
               id="g160"><path
                 id="path158"
                 style="fill:url(#radialGradient154);stroke:none"
                 d="M -32768,32767 H 32767 V -32768 H -32768 Z" /></g></g></g></g></mask><radialGradient
       id="radialGradient176"
       spreadMethod="pad"
       gradientTransform="matrix(12.954304,2.2841156,-3.2521501,18.444164,31.366211,35.566406)"
       gradientUnits="userSpaceOnUse"
       r="1"
       cy="0"
       cx="0"
       fy="0"
       fx="0"><stop
         id="stop172"
         offset="0"
         style="stop-opacity:1;stop-color:#ffffff" /><stop
         id="stop174"
         offset="1"
         style="stop-opacity:1;stop-color:#efefef" /></radialGradient><clipPath
       id="clipPath186"
       clipPathUnits="userSpaceOnUse"><path
         id="path184"
         d="M 0,65.5 H 174.5 V 0 H 0 Z" /></clipPath><clipPath
       id="clipPath230"
       clipPathUnits="userSpaceOnUse"><path
         id="path228"
         d="M 24.329,52.58 5.594,45.761 C 3.94,45.16 3.088,43.332 3.69,41.678 v 0 L 14.323,12.469 c 0.601,-1.653 2.428,-2.507 4.081,-1.905 v 0 l 18.735,6.819 c 1.654,0.601 2.505,2.429 1.904,4.083 v 0 L 28.411,50.675 c -0.47,1.295 -1.691,2.098 -2.992,2.098 v 0 c -0.362,0 -0.73,-0.062 -1.09,-0.193" /></clipPath><radialGradient
       id="radialGradient244"
       spreadMethod="pad"
       gradientTransform="matrix(12.361232,4.4990859,-6.4054542,17.599106,21.365234,31.574219)"
       gradientUnits="userSpaceOnUse"
       r="1"
       cy="0"
       cx="0"
       fy="0"
       fx="0"><stop
         id="stop240"
         offset="0"
         style="stop-opacity:1;stop-color:#ffffff" /><stop
         id="stop242"
         offset="1"
         style="stop-opacity:0;stop-color:#ffffff" /></radialGradient><mask
       id="mask246"
       height="1"
       width="1"
       y="0"
       x="0"
       maskUnits="userSpaceOnUse"><g
         id="g256"><g
           id="g254"><g
             id="g252"><g
               id="g250"><path
                 id="path248"
                 style="fill:url(#radialGradient244);stroke:none"
                 d="M -32768,32767 H 32767 V -32768 H -32768 Z" /></g></g></g></g></mask><radialGradient
       id="radialGradient266"
       spreadMethod="pad"
       gradientTransform="matrix(12.361232,4.4990859,-6.4054542,17.599106,21.365234,31.574219)"
       gradientUnits="userSpaceOnUse"
       r="1"
       cy="0"
       cx="0"
       fy="0"
       fx="0"><stop
         id="stop262"
         offset="0"
         style="stop-opacity:1;stop-color:#ffffff" /><stop
         id="stop264"
         offset="1"
         style="stop-opacity:1;stop-color:#efefef" /></radialGradient><clipPath
       id="clipPath276"
       clipPathUnits="userSpaceOnUse"><path
         id="path274"
         d="M 0,65.5 H 174.5 V 0 H 0 Z" /></clipPath></defs><g
     transform="matrix(1.3333333,0,0,-1.3333333,0,87.333333)"
     id="g10"><g
       id="g12"><g
         clip-path="url(#clipPath18)"
         id="g14"><g
           transform="translate(164.75,43.542)"
           id="g20"><path
             id="path22"
             style="fill:#c6c6c5;fill-opacity:1;fill-rule:nonzero;stroke:none"
             d="m 0,0 v -1 c 0.48,0 0.935,-0.153 1.316,-0.441 l 0.604,0.797 c -0.027,0.02 -0.054,0.04 -0.082,0.06 -0.005,0.004 -0.011,0.008 -0.016,0.011 v 0.001 c -0.001,0 -0.002,0.001 -0.003,0.002 H 1.818 C 1.814,-0.567 1.81,-0.564 1.806,-0.562 1.805,-0.561 1.804,-0.56 1.802,-0.559 1.797,-0.555 1.792,-0.552 1.786,-0.548 v 0 c -0.005,0.004 -0.011,0.007 -0.016,0.011 -0.001,0.001 -0.002,0.001 -0.003,0.002 0,0 0,0 -10e-4,0 -0.001,0.001 -0.001,0.002 -0.002,0.002 H 1.763 C 1.76,-0.53 1.757,-0.528 1.753,-0.526 1.752,-0.525 1.751,-0.525 1.75,-0.524 v 0 c -10e-4,0.001 -0.002,0.002 -0.003,0.002 v 0.001 c -0.004,0.002 -0.009,0.005 -0.013,0.008 v 0 c -10e-4,0 -0.002,0.001 -0.003,0.002 -0.001,0 -0.001,0 -0.001,0 -10e-4,0.001 -10e-4,0.001 -0.002,0.002 -10e-4,0 -10e-4,0 -10e-4,0 -0.003,0.003 -0.006,0.005 -0.01,0.007 -0.001,0 -0.002,0.001 -0.002,0.001 C 1.714,-0.5 1.714,-0.5 1.713,-0.5 c 0,0 -0.001,0.001 -0.002,0.001 0,0 -0.001,0.001 -0.001,0.001 -10e-4,0 -0.002,0.001 -0.002,0.002 H 1.707 C 1.704,-0.494 1.701,-0.492 1.698,-0.49 H 1.697 l -0.003,0.002 c 0,0 0,0 -10e-4,0.001 0,0 -0.001,0.001 -0.002,0.001 0,0 -0.001,0.001 -0.001,0.001 -10e-4,0 -0.002,0.001 -0.003,0.002 -0.003,0.002 -0.006,0.004 -0.009,0.005 0,0 -10e-4,0 -10e-4,0.001 l -0.003,0.001 c 0,0 0,0.001 -10e-4,0.001 -0.001,0.001 -0.001,0.001 -0.002,0.002 -0.001,0 -0.001,0 -0.001,0 -0.003,0.002 -0.006,0.004 -0.009,0.006 0,0 0,0 -0.001,0 0,0.001 -10e-4,0.001 -0.002,0.002 -10e-4,0 -10e-4,0 -10e-4,0 -0.001,0.001 -0.002,0.002 -0.003,0.002 0,0 0,0 -10e-4,0.001 -0.004,0.002 -0.008,0.004 -0.012,0.007 0,0 0,0 -0.001,0 -10e-4,0.001 -0.002,0.001 -0.002,0.002 -10e-4,0 -10e-4,0 -0.002,0.001 0,0 -10e-4,0.001 -0.002,0.001 0,0 -10e-4,0.001 -10e-4,0.001 -0.003,0.002 -0.006,0.003 -0.008,0.005 -10e-4,0 -10e-4,0 -10e-4,0.001 -0.001,0 -0.002,0.001 -0.003,0.001 0,0 -10e-4,0.001 -10e-4,0.001 -0.001,0 -0.002,0.001 -0.003,0.001 0,0.001 -10e-4,0.001 -10e-4,0.001 -0.001,0.001 -0.002,0.001 -0.003,0.002 0,0 0,0 -10e-4,0 -0.001,0.001 -0.003,0.002 -0.005,0.003 0,0 0,0 -10e-4,0 -0.001,0.001 -0.001,0.001 -0.002,0.002 0,0 -0.001,0 -0.001,0 -10e-4,0.001 -0.002,0.001 -0.002,0.002 -10e-4,0 -10e-4,0 -0.002,0.001 -10e-4,0 -10e-4,0.001 -0.002,0.001 -10e-4,0 -10e-4,0.001 -0.002,0.001 0,0 -10e-4,0.001 -0.002,0.001 0,0.001 -10e-4,0.001 -10e-4,0.001 -0.002,0.001 -0.003,0.002 -0.005,0.003 0,0 -10e-4,0 -10e-4,0 -0.001,0.001 -0.002,0.001 -0.003,0.002 0,0 0,0 -10e-4,0.001 0,0 -0.001,0.001 -0.002,0.001 0,0 -0.001,0.001 -0.002,0.001 0,0 -0.001,0.001 -0.002,0.001 0,0 -0.001,0 -0.001,0.001 -0.003,0.001 -0.006,0.003 -0.008,0.004 -10e-4,0.001 -0.002,0.001 -0.002,0.001 -10e-4,0.001 -0.002,0.001 -0.002,0.001 -10e-4,0.001 -10e-4,0.001 -10e-4,0.001 -0.001,0.001 -0.002,0.001 -0.003,0.002 0,0 -10e-4,0 -10e-4,10e-4 -0.001,0 -0.002,0 -0.003,0.001 0,0 -10e-4,0 -10e-4,0.001 -0.002,0.001 -0.003,0.001 -0.004,0.002 -0.001,0 -0.001,0.001 -0.002,0.001 -0.001,0 -0.001,0.001 -0.002,0.001 -0.001,0 -0.001,0.001 -0.002,0.001 -0.001,0.001 -0.001,0.001 -0.002,0.001 0,0.001 -0.001,0.001 -0.001,0.001 -10e-4,0.001 -0.002,0.001 -0.002,0.001 -10e-4,0 -0.002,0.001 -0.002,0.001 C 1.535,-0.394 1.534,-0.393 1.533,-0.393 1.532,-0.392 1.532,-0.392 1.531,-0.392 1.53,-0.391 1.53,-0.391 1.529,-0.391 1.528,-0.39 1.528,-0.39 1.527,-0.39 c -10e-4,0.001 -10e-4,0.001 -0.002,0.001 -10e-4,0.001 -10e-4,0.001 -0.002,0.001 -10e-4,0.001 -10e-4,0.001 -0.002,0.002 0,0 -10e-4,0 -10e-4,0 -0.001,0.001 -0.002,0.001 -0.003,0.002 0,0 0,0 -10e-4,0 -0.001,0.001 -0.003,0.002 -0.004,0.003 -0.001,0 -0.001,0.001 -0.002,0.001 -0.001,0 -0.001,0.001 -0.002,0.001 -0.001,0 -0.001,0.001 -0.002,0.001 -0.001,0 -0.001,0.001 -0.002,0.001 -0.001,0 -0.001,0.001 -0.002,0.001 -0.001,0 -0.001,0.001 -0.002,0.001 0,0 -10e-4,0 -0.002,0.001 0,0 -10e-4,0 -10e-4,0.001 -0.002,0 -0.003,0.001 -0.004,0.002 -0.001,0 -0.001,0 -0.002,0.001 -0.001,0 -0.001,0.001 -0.002,0.001 -0.001,0 -0.001,0.001 -0.002,0.001 -0.001,0 -0.001,0.001 -0.002,0.001 -0.001,0 -0.001,0.001 -0.002,0.001 -0.001,0 -0.001,0.001 -0.002,0.001 -0.001,0 -0.001,0.001 -0.002,0.001 0,0.001 -0.001,0.001 -0.002,0.001 l -0.003,0.002 c -10e-4,0 -0.002,0.001 -0.002,0.001 -10e-4,0.001 -0.002,0.001 -0.002,0.001 -10e-4,0.001 -0.002,0.001 -0.002,0.001 -10e-4,0.001 -0.002,0.001 -0.002,0.001 -10e-4,0.001 -0.002,0.001 -0.002,0.001 -10e-4,0.001 -0.002,0.001 -0.002,0.001 -10e-4,0.001 -10e-4,0.001 -0.002,0.001 -10e-4,0 -0.002,0.001 -0.002,0.001 H 1.457 c -0.001,0.001 -0.003,0.002 -0.005,0.003 0,0 -10e-4,0.001 -10e-4,0.001 -0.001,0 -0.002,0.001 -0.003,0.001 0,0 -10e-4,0.001 -10e-4,0.001 -0.001,0 -0.002,0.001 -0.003,0.001 0,0 -10e-4,0.001 -0.002,0.001 0,0 -10e-4,0.001 -0.002,0.001 0,0 -10e-4,10e-4 -0.002,10e-4 -10e-4,0.001 -0.002,0.001 -0.003,0.002 0,0 -0.001,0.001 -0.002,0.001 0,0 -0.001,0.001 -0.002,0.001 -0.001,0 -0.001,0.001 -0.002,0.001 0,0 -0.001,0.001 -0.002,0.001 -0.001,0 -0.001,0.001 -0.002,0.001 -0.001,0 -0.001,0.001 -0.002,0.001 -0.001,0 -0.001,0.001 -0.002,0.001 -0.001,0 -0.001,0.001 -0.002,0.001 -0.001,0 -0.002,0 -0.002,0.001 -0.001,0 -0.002,0.001 -0.003,0.001 C 1.413,-0.33 1.412,-0.33 1.412,-0.33 1.411,-0.329 1.41,-0.329 1.41,-0.328 c -10e-4,0 -0.002,0 -0.002,0 -10e-4,0.001 -0.002,0.001 -0.002,0.002 -10e-4,0 -0.002,0 -0.002,0 -10e-4,0.001 -0.002,0.001 -0.002,0.002 -10e-4,0 -0.002,0 -0.002,0.001 -10e-4,0 -0.002,0 -0.003,0.001 l -0.003,0.001 c 0,0.001 -10e-4,0.001 -0.002,0.001 0,0.001 -10e-4,0.001 -0.002,0.001 0,0.001 -10e-4,0.001 -0.002,0.001 0,0.001 -10e-4,0.001 -0.002,0.001 0,0.001 -10e-4,0.001 -0.002,0.001 -10e-4,0.001 -10e-4,0.001 -0.002,0.001 -10e-4,0.001 -10e-4,0.001 -0.002,0.001 -10e-4,0.001 -0.002,0.001 -0.003,0.002 -0.001,0 -0.001,0 -0.002,0 -10e-4,0.001 -10e-4,0.001 -0.002,0.001 -10e-4,0.001 -0.002,0.001 -0.002,0.001 -10e-4,0.001 -0.002,0.001 -0.002,0.001 -10e-4,0.001 -0.002,0.001 -0.002,0.001 -10e-4,0.001 -0.002,0.001 -0.003,0.001 0,0.001 -0.001,0.001 -0.001,0.001 -10e-4,0.001 -0.002,0.001 -0.003,0.002 0,0 -0.001,0 -0.002,0 -0.001,0.001 -0.002,0.001 -0.003,0.002 -10e-4,0 -10e-4,0.001 -0.002,0.001 0,0 -10e-4,0.001 -0.002,0.001 -10e-4,0 -10e-4,0.001 -0.002,0.001 -10e-4,0 -10e-4,0.001 -0.002,0.001 -10e-4,0 -0.002,0.001 -0.002,0.001 -10e-4,0 -10e-4,0.001 -0.002,0.001 -10e-4,0 -0.002,0 -0.002,0.001 -10e-4,0 -0.002,0.001 -0.003,0.001 l -0.003,0.001 c -10e-4,0.001 -10e-4,0.001 -0.002,0.001 0,0 -10e-4,0.001 -0.002,0.001 0,0 -10e-4,0.001 -0.002,0.001 0,0 -10e-4,0 -0.002,0.001 -10e-4,0 -10e-4,0 -0.002,0.001 -10e-4,0 -10e-4,0 -0.002,0.001 -10e-4,0 -10e-4,0 -0.002,0.001 -10e-4,0 -10e-4,0 -0.002,0.001 -10e-4,0 -0.003,0.001 -0.004,0.001 -10e-4,0.001 -10e-4,0.001 -0.002,0.001 0,0 -10e-4,0.001 -10e-4,0.001 -0.001,0 -0.002,10e-4 -0.003,10e-4 0,0 -10e-4,0.001 -0.002,0.001 0,0 -10e-4,0.001 -0.002,0.001 0,0 -10e-4,0.001 -0.002,0.001 -10e-4,0 -10e-4,0.001 -0.002,0.001 l -0.003,0.001 c 0,0 -0.001,0.001 -0.001,0.001 -10e-4,0 -0.003,0.001 -0.004,0.001 0,0.001 -10e-4,0.001 -10e-4,0.001 -0.001,0.001 -0.002,0.001 -0.002,0.001 -0.001,0.001 -0.002,0.001 -0.003,0.001 0,0 -10e-4,0 -0.002,0.001 0,0 -10e-4,0 -0.002,0 0,0.001 -10e-4,0.001 -0.002,0.002 -10e-4,0 -10e-4,0 -0.002,0 -10e-4,0.001 -0.002,0.001 -0.003,0.002 -0.001,0 -0.002,0 -0.002,0.001 -0.001,0 -0.002,0 -0.003,0.001 0,0 -10e-4,0 -10e-4,0.001 -0.001,0 -0.002,0 -0.003,0.001 0,0 -10e-4,0 -10e-4,0 -0.001,0.001 -0.002,0.001 -0.003,0.002 0,0 -10e-4,0 -0.002,0 0,0.001 -10e-4,0.001 -0.002,0.001 -10e-4,0.001 -0.002,0.001 -0.003,0.002 -0.001,0 -0.002,0 -0.003,0.001 0,0 -10e-4,0 -0.002,0.001 0,0 -10e-4,0 -10e-4,0.001 -10e-4,0 -0.002,0 -0.003,0 0,0.001 -0.001,0.001 -0.002,0.001 0,0.001 -0.001,0.001 -0.002,0.001 0,0.001 -0.001,0.001 -0.002,0.001 -0.001,0 -0.001,0.001 -0.002,0.001 -0.001,0 -0.002,0 -0.003,0.001 -10e-4,0 -0.002,0.001 -0.003,0.001 0,0 -0.001,0.001 -0.002,0.001 -0.001,0 -0.001,0 -0.002,0.001 0,0 -0.001,0 -0.002,0.001 0,0 -0.001,0 -0.002,0.001 0,0 -0.001,0 -0.002,0 -0.001,0.001 -0.001,0.001 -0.002,0.001 -0.001,0.001 -0.001,0.001 -0.002,0.001 -0.001,0.001 -0.001,0.001 -0.002,0.001 -0.001,0.001 -0.003,0.001 -0.004,0.002 -0.001,0 -0.001,0 -0.002,0 -0.001,0.001 -0.001,0.001 -0.002,0.001 -0.001,0.001 -0.001,0.001 -0.002,0.001 0,0.001 -0.001,0.001 -0.002,0.001 -0.001,0 -0.001,0.001 -0.002,0.001 -0.001,0 -0.001,10e-4 -0.002,10e-4 -0.001,0 -0.002,0 -0.002,0.001 -0.001,0 -0.002,0.001 -0.003,0.001 -10e-4,0 -0.002,0.001 -0.003,0.001 -0.001,0 -0.002,0.001 -0.002,0.001 -0.001,0 -0.002,0.001 -0.002,0.001 -0.001,0 -0.002,0 -0.002,0 -0.001,0 -0.001,0.001 -0.002,0.001 -0.001,0 -0.002,0.001 -0.002,0.001 -0.001,0 -0.002,0 -0.002,0.001 -0.001,0 -0.002,0 -0.003,0.001 -10e-4,0 -10e-4,0 -0.002,0 -10e-4,0.001 -0.002,0.001 -0.004,0.002 0,0 -10e-4,0 -10e-4,0.001 -0.001,0 -0.002,0 -0.003,0.001 0,0 -10e-4,0 -10e-4,0 -0.001,0.001 -0.002,0.001 -0.003,0.001 0,0.001 -10e-4,0.001 -0.002,0.001 0,0 -10e-4,0.001 -0.002,0.001 -10e-4,0 -10e-4,0 -0.002,0.001 -10e-4,0 -0.002,0.001 -0.003,0.001 -0.001,0 -0.001,0 -0.002,0.001 -0.001,0 -0.002,0.001 -0.003,0.001 -10e-4,0 -10e-4,0 -0.002,0.001 -10e-4,0 -0.002,0 -0.002,0.001 0,0 -10e-4,0 -0.002,0 0,0.001 -10e-4,0.001 -0.002,0.001 -10e-4,0.001 -10e-4,0.001 -0.002,0.001 -10e-4,0 -0.002,0.001 -0.003,0.001 0,0 -0.001,0 -0.001,0.001 -0.002,0 -0.003,0 -0.004,0.001 -10e-4,0 -10e-4,0 -0.002,0 -10e-4,0.001 -0.002,0.001 -0.003,0.001 0,0.001 -0.001,0.001 -0.001,0.001 -10e-4,0 -0.002,0.001 -0.003,0.001 0,0 -10e-4,0 -10e-4,10e-4 -0.001,0 -0.002,0 -0.003,0.001 -10e-4,0 -10e-4,0 -0.002,0 -10e-4,0.001 -0.002,0.001 -0.003,0.001 0,0.001 -0.001,0.001 -0.001,0.001 -0.002,0 -0.003,0.001 -0.004,0.001 -10e-4,0.001 -10e-4,0.001 -0.002,0.001 -10e-4,0 -0.002,0.001 -0.002,0.001 -10e-4,0 -10e-4,0 -0.002,0.001 -10e-4,0 -10e-4,0 -0.002,0.001 -10e-4,0 -10e-4,0 -0.002,0 -10e-4,0.001 -0.002,0.001 -0.002,0.001 -10e-4,0 -0.002,0.001 -0.002,0.001 L 1.09,-0.192 c 0,0.001 0,0.001 -0.001,0.001 -10e-4,0 -0.002,0.001 -0.003,0.001 0,0 -0.001,0 -0.002,0.001 0,0 -0.001,0 -0.002,0.001 0,0 -0.001,0 -0.001,0 -10e-4,0.001 -0.002,0.001 -0.003,0.001 -0.001,0 -0.001,0 -0.002,0 -0.001,0.001 -0.002,0.001 -0.003,0.001 0,0 -10e-4,0.001 -10e-4,0.001 -0.002,0 -0.003,0.001 -0.004,0.001 -0.001,0 -0.001,0.001 -0.002,0.001 -0.001,0 -0.002,0 -0.003,0.001 0,0 -10e-4,0 -10e-4,0 -0.001,0.001 -0.002,0.001 -0.003,0.001 0,0.001 -10e-4,0.001 -10e-4,0.001 -0.001,0 -0.002,0.001 -0.003,0.001 -10e-4,0 -10e-4,0 -0.002,0.001 -10e-4,0 -0.002,0 -0.004,0.001 H 1.048 c -0.001,0.001 -0.002,0.001 -0.003,0.002 -10e-4,0 -10e-4,0 -0.002,0 -10e-4,0 -10e-4,0.001 -0.002,0.001 -10e-4,0 -10e-4,0 -0.002,0.001 -10e-4,0 -0.002,0 -0.003,0.001 0,0 -0.001,0 -0.001,0 -10e-4,10e-4 -0.003,10e-4 -0.004,10e-4 0,0 0,0.001 -10e-4,0.001 -0.001,0 -0.002,0.001 -0.004,0.001 0,0 -0.001,0 -0.001,0.001 -10e-4,0 -0.002,0 -0.003,0.001 -0.001,0 -0.001,0 -0.001,0 -10e-4,0 -0.002,0 -0.003,0.001 -0.001,0 -0.001,0 -0.002,0 -0.001,0 -0.002,0.001 -0.003,0.001 0,0 -10e-4,0 -10e-4,0.001 l -0.005,0.001 v 0 c -10e-4,0.001 -0.003,0.001 -0.004,0.002 0,0 -10e-4,0 -10e-4,0 -0.001,0 -0.002,0.001 -0.003,0.001 0,0 -0.001,0 -0.001,0.001 -0.001,0 -0.002,0 -0.003,0 -0.001,0.001 -0.001,0.001 -0.002,0.001 -0.001,0 -0.002,0.001 -0.003,0.001 H 0.989 l -0.005,0.002 c 0,0 -0.001,0 -0.001,0 -0.001,0.001 -0.002,0.001 -0.003,0.001 -0.001,0 -0.001,0.001 -0.001,0.001 -0.001,0 -0.002,0 -0.003,0.001 0,0 -0.001,0 -0.002,0 -0.001,0.001 -0.002,0.001 -0.003,0.001 0,0 -0.001,0 -0.001,0.001 -0.001,0 -0.002,0 -0.004,0.001 0,0 -0.001,0 -0.001,0 -0.001,0.001 -0.003,0.001 -0.004,0.001 0,0.001 -0.001,0.001 -0.001,0.001 -0.001,0 -0.002,0.001 -0.003,0.001 0,0 -0.001,0 -0.002,0 0,0 -0.001,0 -0.002,0.001 -0.001,0 -0.001,0 -0.002,0 -0.001,0.001 -0.002,0.001 -0.002,0.001 -0.001,0 -0.002,0 -0.002,0.001 -0.002,0 -0.003,0.001 -0.005,0.001 0,0 -0.001,0 -0.001,0 -0.001,0.001 -0.002,0.001 -0.003,0.001 -10e-4,10e-4 -10e-4,10e-4 -10e-4,10e-4 -0.001,0 -0.002,0 -0.003,0.001 -0.001,0 -0.001,0 -0.002,0 -0.001,0.001 -0.002,0.001 -0.002,0.001 -0.001,0 -0.002,0 -0.002,0.001 -0.001,0 -0.003,0 -0.004,0.001 H 0.923 c -0.001,0 -0.002,0.001 -0.004,0.001 0,0 -0.001,0.001 -0.001,0.001 -0.001,0 -0.002,0 -0.003,0.001 0,0 -0.001,0 -0.002,0 0,0 -0.002,0.001 -0.002,0.001 -0.001,0 -0.002,0 -0.002,0 -0.001,0.001 -0.002,0.001 -0.003,0.001 -0.001,0 -0.001,0.001 -0.002,0.001 -0.001,0 -0.002,0.001 -0.004,0.001 H 0.899 c -0.001,0.001 -0.002,0.001 -0.003,0.001 0,0 -0.001,0.001 -0.001,0.001 -0.001,0 -0.002,0 -0.003,0.001 -0.001,0 -0.002,0 -0.002,0 -0.001,0 -0.002,0.001 -0.003,0.001 0,0 -0.001,0 -0.002,0 -0.001,0 -0.002,0.001 -0.003,0.001 0,0 -0.001,0 -0.001,0 -0.001,0.001 -0.003,0.001 -0.004,0.002 H 0.875 c 0,0 -0.001,0 -0.002,0.001 -0.001,0 -0.002,0 -0.002,0 -0.001,0.001 -0.002,0.001 -0.003,0.001 0,0 -0.001,0 -0.002,0.001 -0.001,0 -0.002,0 -0.002,0 -0.001,0.001 -0.002,0.001 -0.002,0.001 -0.002,0 -0.003,10e-4 -0.004,10e-4 H 0.856 c -0.001,0.001 -0.002,0.001 -0.002,0.001 -0.001,0 -0.002,0.001 -0.002,0.001 -0.001,0 -0.002,0 -0.003,0.001 H 0.847 c -0.001,0 -0.002,0.001 -0.002,0.001 -0.001,0 -0.002,0 -0.002,0 -0.001,0.001 -0.002,0.001 -0.003,0.001 H 0.838 c -0.001,0.001 -0.002,0.001 -0.004,0.002 0,0 -0.001,0 -0.001,0 -0.001,0 -0.002,0.001 -0.003,0.001 -0.001,0 -0.001,0 -0.002,0 -0.001,0.001 -0.002,0.001 -0.002,0.001 -0.001,0 -0.002,0 -0.002,0.001 -0.001,0 -0.002,0 -0.003,0 -0.001,0 -0.001,0.001 -0.002,0.001 -0.001,0 -0.003,0 -0.004,0.001 0,0 -0.001,0 -0.001,0 -0.001,0 -0.002,0.001 -0.003,0.001 -0.001,0 -0.001,0 -0.002,0 -0.001,0 -0.002,0.001 -0.003,0.001 0,0 -0.001,0 -0.002,0 0,0 -0.001,0.001 -0.002,0.001 -0.001,0 -0.001,0 -0.002,0 -0.001,10e-4 -0.002,10e-4 -0.003,10e-4 0,0 -0.001,0 -0.002,0.001 -0.001,0 -0.002,0 -0.003,0.001 -0.001,0 -0.001,0 -0.002,0 -0.001,0 -0.002,0.001 -0.003,0.001 0,0 -0.001,0 -0.002,0 -0.001,0.001 -0.002,0.001 -0.003,0.001 H 0.781 c -0.001,0.001 -0.002,0.001 -0.003,0.001 -0.001,0 -0.001,0 -0.002,0.001 -0.001,0 -0.002,0 -0.004,0.001 H 0.771 c 0,0 -0.002,0 -0.003,0.001 -0.001,0 -0.001,0 -0.002,0 -0.001,0 -0.002,0.001 -0.003,0.001 0,0 -0.001,0 -0.002,0 -0.001,0.001 -0.001,0.001 -0.002,0.001 -0.001,0 -0.002,0 -0.002,0.001 -0.001,0 -0.002,0 -0.003,0 -0.001,0 -0.001,0 -0.002,0.001 -0.001,0 -0.002,0 -0.004,0.001 0,0 -0.001,0 -0.001,0 -0.001,0 -0.002,0 -0.003,0.001 -0.001,0 -0.001,0 -0.002,0 -0.001,0 -0.002,0.001 -0.003,0.001 0,0 -0.001,0 -0.002,0 0,10e-4 -0.001,10e-4 -0.002,10e-4 -0.001,0 -0.001,0 -0.002,0 -0.001,0.001 -0.002,0.001 -0.003,0.001 H 0.729 c -0.002,0.001 -0.003,0.001 -0.004,0.001 -0.001,0 -0.002,0 -0.002,0 -0.001,0.001 -0.002,0.001 -0.003,0.001 H 0.718 C 0.717,-0.081 0.716,-0.081 0.715,-0.081 H 0.714 C 0.713,-0.08 0.712,-0.08 0.711,-0.08 c -0.001,0 -0.001,0 -0.002,0.001 -0.001,0 -0.002,0 -0.004,0.001 H 0.704 c -0.001,0 -0.002,0 -0.003,0.001 H 0.699 c -0.001,0 -0.002,0 -0.003,0.001 -0.001,0 -0.001,0 -0.002,0 -0.001,0 -0.002,0 -0.003,0.001 0,0 -0.001,0 -0.002,0 -0.001,0 -0.002,0 -0.002,0.001 -0.001,0 -0.001,0 -0.002,0 -0.001,0 -0.002,0.001 -0.004,0.001 -0.001,0 -0.001,0 -0.002,0 -0.001,0.001 -0.002,0.001 -0.002,0.001 -0.001,0 -0.002,0 -0.002,0 -0.001,0.001 -0.002,0.001 -0.003,0.001 -0.001,0 -0.001,0 -0.002,0 -0.001,10e-4 -0.002,10e-4 -0.003,10e-4 0,0 -0.001,0 -0.001,0 -0.002,0.001 -0.003,0.001 -0.004,0.001 -0.001,0 -0.001,0 -0.002,0.001 -0.001,0 -0.002,0 -0.003,0 -0.001,0 -0.001,0 -0.002,0.001 -0.001,0 -0.002,0 -0.003,0 0,0 -0.001,0 -0.002,0.001 -0.001,0 -0.001,0 -0.002,0 -0.001,0 -0.002,0 -0.002,0.001 -0.001,0 -0.002,0 -0.003,0 0,0 -0.001,0 -0.001,0.001 -0.002,0 -0.003,0 -0.005,0 0,0.001 -0.001,0.001 -0.001,0.001 -0.001,0 -0.002,0 -0.003,0 -0.001,0 -0.002,0.001 -0.002,0.001 -0.001,0 -0.002,0 -0.003,0 -0.001,0 -0.001,0 -0.002,0 -0.001,0 -0.001,0.001 -0.002,0.001 -0.001,0 -0.001,0 -0.002,0 -0.001,0 -0.003,0.001 -0.004,0.001 0,0 -0.001,0 -0.001,0 -0.001,0 -0.003,0.001 -0.004,0.001 -0.001,0 -0.001,0 -0.002,0 -0.001,0 -0.002,10e-4 -0.003,10e-4 0,0 -0.001,0 -0.002,0 0,0 -0.001,0 -0.002,0.001 0,0 -0.001,0 -0.002,0 -0.001,0 -0.002,0 -0.003,0.001 H 0.598 c -0.002,0 -0.003,0 -0.005,0.001 H 0.592 c -0.001,0 -0.002,0 -0.003,0.001 H 0.587 c -0.001,0 -0.002,0 -0.003,0 -0.001,0.001 -0.001,0.001 -0.001,0.001 -0.001,0 -0.002,0 -0.003,0 -0.001,0 -0.001,0.001 -0.002,0.001 -0.001,0 -0.002,0 -0.003,0 -0.001,0 -0.002,0.001 -0.002,0.001 -0.001,0 -0.003,0 -0.004,0 -0.001,0 -0.001,10e-4 -0.002,10e-4 -0.001,0 -0.002,0 -0.003,0 H 0.562 c 0,0.001 -0.001,0.001 -0.002,0.001 0,0 -0.001,0 -0.002,0 -0.001,0 -0.002,0.001 -0.003,0.001 0,0 -0.001,0 -0.001,0 -0.002,0 -0.003,0.001 -0.005,0.001 0,0 -0.001,0 -0.001,0 -0.001,0 -0.002,0.001 -0.003,0.001 -0.001,0 -0.002,0 -0.002,0 -0.001,0 -0.002,0 -0.003,0.001 H 0.539 c -0.001,0 -0.003,0 -0.003,0 -0.001,0 -0.002,0.001 -0.002,0.001 -0.002,0 -0.003,0 -0.004,0 H 0.529 C 0.528,-0.043 0.526,-0.043 0.525,-0.043 H 0.523 c -0.001,10e-4 -0.002,10e-4 -0.003,10e-4 0,0 -0.001,0 -0.001,0 -0.001,0 -0.002,0 -0.003,0 H 0.514 c -0.001,0.001 -0.002,0.001 -0.003,0.001 -0.001,0 -0.001,0 -0.002,0 -0.001,0 -0.003,0.001 -0.004,0.001 -0.001,0 -0.001,0 -0.001,0 -0.002,0 -0.003,0.001 -0.004,0.001 H 0.499 c -0.001,0 -0.002,0 -0.003,0 -0.001,0.001 -0.001,0.001 -0.002,0.001 -0.001,0 -0.002,0 -0.003,0 H 0.489 c -0.001,0.001 -0.002,0.001 -0.003,0.001 0,0 -0.001,0 -0.002,0 -0.001,0 -0.002,0.001 -0.004,0.001 0,0 -0.001,0 -0.001,0 -0.001,0 -0.002,0 -0.003,10e-4 H 0.474 c -0.001,0 -0.002,0 -0.003,0 0,0 -0.001,0 -0.002,0.001 H 0.466 c 0,0 -0.001,0 -0.001,0 -0.002,0 -0.003,0.001 -0.005,0.001 0,0 0,0 -0.001,0 -0.001,0 -0.002,0 -0.003,0.001 H 0.454 c -0.001,0 -0.002,0 -0.003,0 0,0 -0.001,0 -0.002,0.001 H 0.447 c -0.001,0 -0.002,0 -0.002,0 -0.001,0 -0.002,0 -0.004,0.001 H 0.44 c -0.002,0 -0.003,0 -0.004,0 -0.001,10e-4 -0.001,10e-4 -0.002,10e-4 -0.001,0 -0.002,0 -0.003,0 H 0.429 c -0.001,0 -0.002,0.001 -0.002,0.001 H 0.425 c -0.001,0 -0.002,0 -0.003,0 -0.001,0 -0.002,0.001 -0.002,0.001 -0.002,0 -0.003,0 -0.004,0 H 0.415 c -0.001,0 -0.002,0.001 -0.004,0.001 0,0 -0.001,0 -0.002,0 H 0.406 c 0,0 -0.001,10e-4 -0.002,10e-4 0,0 -0.001,0 -0.002,0 H 0.4 c -0.001,0 -0.002,0.001 -0.003,0.001 H 0.396 c -0.002,0 -0.003,0 -0.005,0 0,0 -0.001,0.001 -0.002,0.001 H 0.386 c 0,0 -0.001,0 -0.002,0 -0.001,0 -0.001,0 -0.002,0.001 H 0.38 c -0.001,0 -0.002,0 -0.003,0 H 0.375 c -0.001,0 -0.002,10e-4 -0.003,10e-4 H 0.37 c -0.001,0 -0.002,0 -0.004,0 0,0 -0.001,0 -0.002,0 H 0.361 C 0.361,-0.02 0.36,-0.02 0.36,-0.02 H 0.357 c -0.001,0 -0.002,0 -0.002,0 -0.001,0 -0.002,0 -0.003,0.001 H 0.351 c -0.002,0 -0.004,0 -0.005,0 H 0.345 c -0.002,0 -0.003,0.001 -0.004,0.001 H 0.339 c -0.001,0 -0.002,0 -0.003,0 H 0.335 C 0.334,-0.017 0.333,-0.017 0.332,-0.017 H 0.33 c -0.001,0 -0.002,0 -0.003,0 H 0.325 c -0.001,0.001 -0.003,0.001 -0.004,0.001 -0.001,0 -0.001,0 -0.002,0 H 0.316 c 0,0 -0.001,0 -0.002,0.001 H 0.312 c -0.001,0 -0.001,0 -0.002,0 H 0.307 0.305 C 0.304,-0.014 0.302,-0.014 0.301,-0.014 H 0.3 c -0.001,0 -0.003,0 -0.004,0 H 0.294 C 0.293,-0.013 0.292,-0.013 0.291,-0.013 H 0.29 c -0.001,0 -0.002,0 -0.003,0 H 0.285 c -0.001,0 -0.003,10e-4 -0.004,10e-4 H 0.28 c -0.001,0 -0.003,0 -0.005,0 H 0.274 c -0.001,0 -0.002,0.001 -0.003,0.001 H 0.27 c -0.002,0 -0.003,0 -0.004,0 H 0.265 0.261 c 0,0 -0.001,10e-4 -0.001,10e-4 H 0.255 0.254 c -0.001,0 -0.002,0 -0.004,0 H 0.249 C 0.248,-0.009 0.247,-0.009 0.246,-0.009 H 0.244 c -0.001,0 -0.002,0 -0.003,0 H 0.239 0.236 c -0.001,0 -0.001,0 -0.001,10e-4 H 0.23 0.229 c -0.001,0 -0.002,0 -0.003,0 H 0.224 c -0.001,0 -0.002,0 -0.003,0.001 H 0.219 0.216 0.214 c -0.003,0 -0.006,0 -0.009,0.001 H 0.204 0.2 c 0,0 -0.001,0 -0.001,0 H 0.195 0.194 c -0.002,0 -0.003,0 -0.004,0.001 H 0.189 0.185 0.184 c -0.002,0 -0.003,0 -0.004,0 H 0.178 0.175 c -0.001,0 -0.001,0 -0.002,0.001 H 0.17 0.168 0.165 c -0.001,0 -0.001,0 -0.001,0 H 0.159 0.158 0.154 c 0,0.001 -0.001,0.001 -0.001,0.001 H 0.149 0.148 0.145 c -0.001,0 -0.001,0 -0.002,0 H 0.139 0.138 0.134 0.132 C 0.131,-0.002 0.13,-0.002 0.129,-0.002 H 0.127 0.124 0.123 c -0.002,0 -0.003,0 -0.004,0 H 0.118 0.113 0.112 0.108 0.107 c -0.001,0 -0.002,0.001 -0.003,0.001 H 0.102 0.099 0.097 0.093 0.092 c -0.002,0 -0.003,0 -0.004,0 H 0.086 0.083 0.081 0.078 0.077 0.073 0.072 C 0.07,-0.001 0.069,0 0.067,0 H 0.066 0.062 0.061 0.058 0.056 0.052 0.051 0.046 0.045 0.042 0.04 C 0.039,0 0.038,0 0.037,0 H 0.035 0.032 0.03 0.027 0.025 0.021 0.02 0.016 0.014 0.011 0.01 0.006 0.005 Z m 3.185,-3.243 h -1 v -3 h 1 z m 0,-6 h -1 v -3 h 1 z m 0,-6 h -1 v -3 h 1 z m 0,-6 h -1 v -3 h 1 z m 0,-6 h -1 v -3 h 1 z m 0,-6 h -1 v -1.028 c 0,-0.458 -0.141,-0.896 -0.406,-1.268 l 0.814,-0.581 c 0.051,0.072 0.099,0.145 0.144,0.221 0.003,0.005 0.007,0.01 0.01,0.016 0,0 0,0 0,0 0.003,0.004 0.005,0.008 0.007,0.012 v 0.001 c 10e-4,10e-4 0.002,0.002 0.002,0.003 v 0 c 0.003,0.005 0.005,0.009 0.008,0.013 0,0 0,0 0,0 l 0.002,0.003 c 0.002,0.004 0.004,0.007 0.005,0.01 0,0 0,0 0,10e-4 10e-4,0.001 10e-4,0.001 0.002,0.002 0,10e-4 0,10e-4 0,10e-4 l 0.002,0.003 c 10e-4,0.002 0.002,0.004 0.004,0.006 l 10e-4,0.003 c 0,0.001 0.001,0.001 0.001,0.001 l 10e-4,0.003 c 0,0 10e-4,0 10e-4,10e-4 10e-4,0.003 0.003,0.006 0.005,0.008 v 10e-4 l 0.002,0.003 c 0,0 0,0 0,10e-4 10e-4,0.001 10e-4,0.001 0.002,0.002 0,10e-4 0,10e-4 0,10e-4 0.001,0.003 0.003,0.006 0.005,0.009 0,0 0,0.001 0,0.001 l 0.002,0.002 c 0,0 0,0.001 0,0.001 10e-4,10e-4 10e-4,0.002 0.002,0.003 v 0 l 0.003,0.006 c 0,0 0,10e-4 0,10e-4 0.001,10e-4 0.001,0.002 0.002,0.002 0,0.001 0,0.001 0,0.002 10e-4,0 10e-4,10e-4 0.002,0.002 0,10e-4 0,10e-4 0,10e-4 0.002,0.003 0.003,0.005 0.005,0.008 0,10e-4 0,10e-4 0,0.002 10e-4,0 10e-4,0.001 10e-4,0.002 10e-4,0 10e-4,10e-4 10e-4,0.002 10e-4,0 10e-4,10e-4 10e-4,0.002 0.001,0 0.001,0.001 0.001,0.001 10e-4,0.002 0.002,0.003 0.002,0.005 10e-4,0 10e-4,0.001 10e-4,0.001 0.001,10e-4 0.001,10e-4 0.001,0.002 10e-4,0 10e-4,0.001 10e-4,0.002 10e-4,0 10e-4,10e-4 10e-4,0.002 10e-4,0 10e-4,10e-4 10e-4,10e-4 0.001,10e-4 0.001,0.002 0.001,0.003 10e-4,0 10e-4,10e-4 0.002,0.002 l 10e-4,0.003 c 0.001,10e-4 0.001,10e-4 0.001,0.002 10e-4,0.001 10e-4,0.001 10e-4,0.002 10e-4,10e-4 10e-4,10e-4 10e-4,0.002 10e-4,10e-4 10e-4,10e-4 10e-4,10e-4 0.001,10e-4 0.001,0.002 0.001,0.003 0,0 10e-4,10e-4 10e-4,10e-4 10e-4,0.002 10e-4,0.003 0.002,0.004 0,10e-4 0,10e-4 0.001,0.002 0,10e-4 0,10e-4 10e-4,0.002 0,10e-4 0,10e-4 10e-4,0.002 0,0.001 10e-4,0.001 10e-4,0.002 0,10e-4 0,10e-4 0.001,0.002 0,10e-4 10e-4,0.002 0.002,0.003 0,10e-4 10e-4,0.003 0.002,0.004 0,10e-4 0,10e-4 0,0.002 10e-4,0 10e-4,10e-4 0.002,0.002 0,0.001 0,0.001 10e-4,0.002 0,10e-4 0,10e-4 0.001,0.002 0,10e-4 0,10e-4 10e-4,0.002 0,0.001 10e-4,0.002 0.002,0.004 v 10e-4 c 0.001,10e-4 0.001,10e-4 0.001,0.002 10e-4,10e-4 10e-4,10e-4 10e-4,0.002 0,0.001 10e-4,0.001 10e-4,0.002 0,10e-4 10e-4,10e-4 10e-4,0.002 l 0.001,0.003 c 0,0 10e-4,0 10e-4,10e-4 0,10e-4 10e-4,0.002 0.002,0.004 0,0 0,0 0,0.001 l 0.002,0.003 c 0,0 0,10e-4 0,10e-4 l 0.002,0.003 c 0,0 0,0 0,10e-4 0.001,0.001 0.002,0.002 0.002,0.004 h 10e-4 c 0,10e-4 10e-4,0.003 10e-4,0.004 0.001,0 0.001,10e-4 0.001,10e-4 0,10e-4 10e-4,0.002 10e-4,0.003 10e-4,0 10e-4,10e-4 10e-4,10e-4 l 10e-4,0.003 c 0.001,0.001 0.001,0.001 0.001,0.001 10e-4,10e-4 10e-4,0.003 0.002,0.004 0,0 0,10e-4 0,10e-4 0,0.001 10e-4,0.002 10e-4,0.003 10e-4,0 10e-4,0.001 10e-4,0.001 l 0.001,0.003 c 10e-4,10e-4 10e-4,10e-4 10e-4,0.002 10e-4,0.002 0.003,0.005 0.004,0.008 0,0 0,0 0,0 l 0.002,0.003 c 0,10e-4 0,10e-4 0,0.002 l 0.002,0.003 c 0,0 0,0 0,10e-4 0.002,0.003 0.003,0.005 0.004,0.008 0,0 0,10e-4 10e-4,10e-4 0,10e-4 10e-4,0.002 10e-4,0.003 0,0 0,10e-4 0.001,10e-4 10e-4,0.003 0.002,0.005 0.003,0.008 v 10e-4 c 0.001,10e-4 0.001,0.002 0.002,0.004 0,0 0,0 0,0 10e-4,0.002 10e-4,0.003 0.002,0.004 0,0 0,0 0,10e-4 0.002,0.002 0.003,0.005 0.004,0.008 v 0 c 0.001,0.002 0.002,0.003 0.002,0.004 v 10e-4 c 10e-4,0.001 0.002,0.003 0.002,0.004 v 0 c 0.002,0.003 0.003,0.005 0.004,0.008 v 0.001 c 0.001,10e-4 0.002,0.002 0.002,0.004 v 0 c 0.002,0.003 0.002,0.006 0.004,0.009 0,0.002 10e-4,0.003 0.002,0.004 v 0.001 c 0,10e-4 0.001,0.002 0.002,0.004 10e-4,0.003 0.002,0.006 0.004,0.009 v 0 c 0,0.002 10e-4,0.003 0.002,0.004 v 10e-4 c 0.002,0.004 0.004,0.008 0.005,0.012 0,0.001 10e-4,0.001 10e-4,0.001 0,10e-4 10e-4,0.003 10e-4,0.004 0,0 0,0 10e-4,0 0.001,0.005 0.003,0.009 0.005,0.013 v 0.001 c 0.002,0.004 0.003,0.009 0.005,0.013 10e-4,10e-4 0.002,0.003 0.002,0.004 v 0.001 c 0.002,0.004 0.004,0.009 0.006,0.013 0.002,0.006 0.004,0.012 0.007,0.018 0.084,0.213 0.146,0.436 0.183,0.668 10e-4,0.006 0.002,0.012 0.003,0.019 v 10e-4 c 0,0.005 10e-4,0.009 0.002,0.014 v 0 c 0,0.002 0,0.003 10e-4,0.005 v 0 c 0,0.005 0.001,0.01 0.002,0.015 v 0 c 0,0.002 0,0.003 10e-4,0.005 0,0.003 10e-4,0.007 10e-4,0.009 v 10e-4 c 0,0.001 0,0.003 0.001,0.004 v 10e-4 c 0,0.005 10e-4,0.01 0.002,0.014 v 10e-4 c 0,10e-4 0,0.003 0,0.004 v 0.001 c 10e-4,0.003 10e-4,0.006 0.002,0.01 0,10e-4 0,0.003 0,0.004 v 0.001 c 10e-4,10e-4 10e-4,0.003 10e-4,0.004 l 10e-4,0.011 c 0,0.001 10e-4,0.003 10e-4,0.004 v 10e-4 c 0,0.004 0.001,0.009 0.002,0.014 v 10e-4 c 0,10e-4 0,0.003 0,0.004 v 0.001 c 10e-4,0.003 10e-4,0.006 10e-4,0.009 v 10e-4 c 0,10e-4 10e-4,0.003 10e-4,0.004 v 0.001 c 0,0.002 0,0.003 0,0.004 v 10e-4 c 0,0.003 0.001,0.006 0.001,0.009 v 0.001 c 0,10e-4 0,0.003 0,0.004 v 10e-4 c 10e-4,0.002 10e-4,0.003 10e-4,0.005 0,10e-4 0,0.003 0,0.004 v 10e-4 c 10e-4,0.001 10e-4,0.003 10e-4,0.004 v 10e-4 c 0,10e-4 0,0.003 0,0.004 v 0.001 c 10e-4,0.003 10e-4,0.007 10e-4,0.009 v 10e-4 c 0.001,10e-4 0.001,0.003 0.001,0.004 v 0.001 c 0,0.002 0,0.003 0,0.004 v 10e-4 c 0,0.002 10e-4,0.003 10e-4,0.005 v 0 c 0,0.002 0,0.003 0,0.004 v 0.001 c 0,10e-4 0,0.003 10e-4,0.004 v 10e-4 c 0,0.003 0,0.007 0,0.01 10e-4,0.002 10e-4,0.003 10e-4,0.005 v 0 c 0,0.002 0,0.003 0,0.004 v 0.001 c 0.001,0.003 0.001,0.007 0.001,0.01 0,0 0,10e-4 0,10e-4 v 0.004 10e-4 c 10e-4,10e-4 10e-4,0.002 10e-4,0.004 v 0 c 0,0.002 0,0.004 0,0.005 v 10e-4 0.004 c 0,0 0,10e-4 10e-4,10e-4 v 0.004 0.001 c 0,0.003 0,0.006 0,0.009 0,10e-4 0,10e-4 10e-4,10e-4 v 0.004 10e-4 c 0,0.002 0,0.003 0,0.004 v 10e-4 0.005 c 0,10e-4 0.001,0.003 0.001,0.004 v 0.002 0.003 0.002 c 0,0.001 0,0.002 0,0.004 v 0 c 0,0.002 0,0.003 10e-4,0.005 v 0.001 0.004 10e-4 0.004 c 0,0 0,0 0,10e-4 v 0.009 c 10e-4,0 10e-4,10e-4 10e-4,10e-4 v 0.004 10e-4 0.004 10e-4 c 0,0.002 0,0.003 0,0.005 v 0 0.004 0.002 c 0,10e-4 0,0.002 10e-4,0.003 v 10e-4 0.005 0.005 10e-4 c 0,0.002 0,0.003 0,0.003 v 0.002 0.004 10e-4 0.005 c 0,10e-4 0.001,0.003 0.001,0.004 v 0.002 0.003 10e-4 0.004 10e-4 0.005 0.001 c 0,10e-4 0,0.002 0,0.004 v 10e-4 0.004 10e-4 0.004 0.005 0.002 0.003 0.002 0.003 0.001 c 10e-4,0.002 10e-4,0.003 10e-4,0.005 v 0.001 0.004 10e-4 0.003 0.002 0.004 0 0.005 10e-4 0.004 0.002 0.003 10e-4 0.005 z M 0,-36.457 h -2.969 v -1 H 0 Z m -5.969,0 h -3 v -1 h 3 z m -6,0 h -3 v -1 h 3 z m -8.664,0.113 -0.318,-0.948 c 0.052,-0.017 0.105,-0.033 0.158,-0.048 h 10e-4 c 0,-10e-4 0.002,-10e-4 0.003,-10e-4 v 0 c 0.005,-0.002 0.01,-0.003 0.015,-0.005 h 0.001 c 0.001,0 0.002,0 0.002,-0.001 h 0.002 c 10e-4,0 0.002,0 0.003,-10e-4 v 0 c 0.003,-10e-4 0.005,-10e-4 0.008,-0.002 10e-4,0 0.002,0 0.003,-10e-4 0,0 10e-4,0 10e-4,0 0.001,0 0.002,-10e-4 0.003,-10e-4 0,0 0.001,0 0.001,0 0.001,0 0.002,-0.001 0.003,-0.001 0,0 0,0 0.001,0 0.002,-10e-4 0.004,-10e-4 0.006,-10e-4 0,0 10e-4,0 10e-4,-10e-4 0.001,0 0.002,0 0.003,0 0,0 0.001,-0.001 0.001,-0.001 10e-4,0 0.002,0 0.003,0 10e-4,-10e-4 10e-4,-10e-4 0.002,-10e-4 0.001,0 0.001,0 0.002,0 0,-10e-4 0.001,-10e-4 0.002,-10e-4 10e-4,0 10e-4,0 0.002,-0.001 0.002,0 0.003,0 0.004,-10e-4 10e-4,0 0.002,0 0.002,0 0.001,0 0.002,-10e-4 0.003,-10e-4 0,0 0.001,0 0.002,0 0.001,0 0.001,-0.001 0.002,-0.001 10e-4,0 10e-4,0 0.002,0 0.001,-10e-4 0.001,-10e-4 0.002,-10e-4 h 0.002 c 0.002,-10e-4 0.003,-10e-4 0.004,-0.002 h 0.002 c 0.001,0 0.002,0 0.003,-10e-4 0,0 0.001,0 0.002,0 10e-4,0 10e-4,0 0.002,-10e-4 0.001,0 0.002,0 0.002,0 0.001,0 0.002,-0.001 0.003,-0.001 0,0 0.001,0 0.001,0 0.002,-10e-4 0.003,-10e-4 0.005,-10e-4 0,0 0,0 0.001,-10e-4 0.001,0 0.002,0 0.003,0 0.001,-0.001 0.001,-0.001 0.002,-0.001 0.001,0 0.002,0 0.003,0 0,-10e-4 0.001,-10e-4 0.001,-10e-4 0.002,0 0.002,0 0.004,-10e-4 v 0 c 0.003,-0.001 0.006,-0.001 0.009,-0.002 h 0.002 c 10e-4,0 0.002,0 0.003,-10e-4 h 0.002 c 0.001,0 0.002,0 0.003,-0.001 h 0.001 c 0.003,-10e-4 0.006,-10e-4 0.009,-0.002 h 0.001 c 0.001,-0.001 0.002,-0.001 0.003,-0.001 h 0.002 c 0.001,-10e-4 0.002,-10e-4 0.003,-10e-4 h 0.001 c 0.003,-10e-4 0.006,-0.002 0.009,-0.002 0.001,-10e-4 0.001,-10e-4 0.001,-10e-4 10e-4,0 0.003,0 0.004,0 0,-10e-4 0.001,-10e-4 0.001,-10e-4 0.001,0 0.002,0 0.004,-0.001 h 0.001 c 0.001,0 0.003,0 0.004,-10e-4 0.002,0 0.003,0 0.005,-10e-4 v 0 c 0.002,0 0.003,0 0.004,-0.001 h 10e-4 c 0.002,0 0.003,0 0.004,-10e-4 h 0.001 c 0.003,-10e-4 0.006,-10e-4 0.009,-0.002 h 10e-4 c 0.001,0 0.002,-10e-4 0.004,-10e-4 0,0 0,0 10e-4,0 0.001,0 0.002,-10e-4 0.004,-10e-4 0,0 0,0 0.001,0 10e-4,0 0.003,-0.001 0.004,-0.001 0.003,-10e-4 0.006,-10e-4 0.009,-10e-4 h 0.001 c 0.001,-10e-4 0.003,-10e-4 0.004,-10e-4 h 10e-4 c 0.001,-0.001 0.003,-0.001 0.005,-0.001 0.003,-10e-4 0.006,-0.002 0.009,-0.002 v 0 c 0.002,-0.001 0.003,-0.001 0.005,-0.001 v 0 c 0.002,-10e-4 0.004,-10e-4 0.005,-10e-4 0.003,-10e-4 0.006,-10e-4 0.01,-0.002 10e-4,0 0.003,-10e-4 0.004,-10e-4 h 0.001 c 0.002,0 0.003,-10e-4 0.005,-10e-4 0.003,0 0.006,-10e-4 0.009,-0.002 0.002,0 0.003,0 0.005,0 0,-10e-4 0,-10e-4 0.001,-10e-4 0.001,0 0.003,0 0.004,0 0.005,-10e-4 0.01,-0.002 0.015,-0.003 0,0 0,0 0,0 0.002,0 0.003,-10e-4 0.005,-10e-4 0.005,-0.001 0.009,-0.001 0.014,-0.002 h 10e-4 c 0.001,-10e-4 0.003,-10e-4 0.004,-10e-4 h 0.001 c 0.005,-0.001 0.01,-0.001 0.014,-0.002 0.002,0 0.003,-10e-4 0.005,-10e-4 0.005,-0.001 0.01,-0.001 0.015,-0.002 v 0 c 0.002,0 0.003,-10e-4 0.005,-10e-4 v 0 c 0.007,-0.001 0.013,-0.002 0.02,-0.003 v 0 c 0.002,0 0.003,0 0.005,-0.001 0.003,0 0.007,-10e-4 0.01,-10e-4 0.001,0 0.003,0 0.005,-10e-4 10e-4,0 0.003,0 0.005,0 0.005,-0.001 0.009,-0.002 0.014,-0.002 h 0.001 c 10e-4,-10e-4 0.003,-10e-4 0.004,-10e-4 0.001,0 0.001,0 0.001,0 l 0.014,-0.002 h 0.001 c 10e-4,0 0.003,0 0.004,-10e-4 h 0.001 l 0.014,-0.001 h 0.001 c 0.001,-10e-4 0.003,-10e-4 0.004,-10e-4 h 10e-4 c 0.005,-10e-4 0.01,-10e-4 0.014,-0.002 h 0.001 c 0.001,0 0.003,0 0.004,0 h 10e-4 l 0.014,-10e-4 h 10e-4 c 0.001,-10e-4 0.003,-10e-4 0.004,-10e-4 h 10e-4 c 0.002,0 0.003,0 0.005,0 0.003,-0.001 0.007,-0.001 0.009,-0.001 h 10e-4 c 0.001,-10e-4 0.003,-10e-4 0.004,-10e-4 h 0.001 c 0.002,0 0.003,0 0.005,0 v 0 c 0.003,-10e-4 0.007,-10e-4 0.01,-10e-4 v 0 c 0.002,-0.001 0.003,-0.001 0.004,-0.001 h 0.001 c 0.002,0 0.003,0 0.005,0 v 0 c 0.004,-10e-4 0.007,-10e-4 0.01,-10e-4 0.002,0 0.003,0 0.005,-10e-4 v 0 h 0.005 v 0 c 0.004,0 0.007,-0.001 0.01,-0.001 h 10e-4 c 0.001,0 0.002,0 0.004,0 h 0.001 c 10e-4,0 0.003,0 0.004,-10e-4 h 0.001 c 0.003,0 0.006,0 0.01,0 0.001,0 0.002,-10e-4 0.004,-10e-4 h 0.001 c 10e-4,0 0.003,0 0.004,0 h 0.001 c 0.005,0 0.01,-0.001 0.014,-0.001 h 0.001 0.004 0.001 c 0.002,-10e-4 0.003,-10e-4 0.005,-10e-4 v 0 c 0.004,0 0.007,0 0.01,0 h 0.001 c 10e-4,0 0.002,-10e-4 0.004,-10e-4 h 0.001 0.004 10e-4 c 0.003,0 0.006,0 0.009,0 0,0 0.001,-0.001 0.001,-0.001 h 0.004 0.001 0.004 c 0,0 10e-4,0 10e-4,0 h 0.009 c 0.001,0 0.001,-10e-4 0.002,-10e-4 h 0.003 0.002 0.003 0.002 c 0.003,0 0.006,0 0.009,0 h 0.001 c 10e-4,0 0.003,0 0.004,-10e-4 h 0.001 0.004 10e-4 0.005 c 0.001,0 0.003,0 0.004,0 h 0.001 0.004 0.002 0.003 0.002 c 0.001,0 0.002,0 0.004,-0.001 v 0 h 0.005 0.001 0.004 0.001 0.004 0.001 c 0.001,0 0.003,0 0.004,0 h 10e-4 0.004 0.001 0.004 0.002 0.003 0.002 0.003 0.002 0.004 10e-4 c 0.001,-10e-4 0.002,-10e-4 0.004,-10e-4 h 0.001 0.004 0.001 0.004 10e-4 0.005 v 0 h 0.004 0.002 0.003 0.002 0.003 0.002 0.005 1.968 v 1 h -1.968 c -0.239,0 -0.473,0.039 -0.696,0.113 m -1.49,4.1 h -1 v -2.027 -0.004 -0.002 -0.003 -0.002 -0.004 -10e-4 -0.004 -0.001 -0.004 -10e-4 -0.004 -10e-4 -0.005 -10e-4 -0.004 c 0,0 0,-0.001 0,-0.001 v -0.003 -10e-4 -0.005 -10e-4 -0.004 -0.001 -0.004 -10e-4 -0.004 -10e-4 c 0.001,-0.002 0.001,-0.003 0.001,-0.004 v -0.002 -0.003 -0.002 -0.004 -10e-4 -0.003 -0.002 c 0,-10e-4 0,-0.002 0,-0.003 v -0.002 -0.004 -10e-4 -0.004 -0.002 c 0,0 0.001,-0.002 0.001,-0.003 v -10e-4 -0.004 -10e-4 -0.005 -10e-4 c 0,-10e-4 0,-0.002 0,-0.003 v -0.002 -0.003 -10e-4 c 0,-0.002 0,-0.003 10e-4,-0.005 v -10e-4 -0.003 -0.002 -0.003 c 0,-0.001 0,-0.001 0,-0.002 v -0.004 -0.002 -0.002 c 0,-10e-4 0.001,-0.002 0.001,-0.003 v -0.002 -0.002 -0.005 c 0,0 0,-10e-4 0,-0.002 v -0.002 -0.002 -0.002 c 0.001,-0.001 0.001,-0.002 0.001,-0.002 v -0.005 -0.002 c 0,0 0,-0.002 0,-0.002 v -0.002 -0.003 -0.002 c 10e-4,-0.001 10e-4,-0.002 10e-4,-0.003 v -0.003 -0.003 c 0,0 0,-10e-4 0,-0.002 v -0.002 -0.002 c 0,-10e-4 0.001,-0.002 0.001,-0.003 v -0.003 -0.003 c 0,0 0,-10e-4 0,-0.002 v -0.002 -0.003 c 0.001,0 0.001,-0.001 0.001,-0.002 v -0.004 c 0,-0.001 0,-0.001 0,-0.002 v -0.002 -0.002 c 0,-0.001 10e-4,-0.002 10e-4,-0.003 v -0.002 -0.003 c 0,-10e-4 0,-0.002 0,-0.003 v -0.003 c 0,0 0.001,-10e-4 0.001,-0.002 v -0.002 -0.002 c 0,-10e-4 0,-0.002 0,-0.002 v -0.004 c 0,-10e-4 0.001,-0.002 0.001,-0.003 v -0.002 -0.003 c 0,0 0,-0.001 0,-0.001 v -0.003 c 0,0 0,-10e-4 10e-4,-10e-4 v -0.005 c 0,-10e-4 0,-10e-4 0,-0.002 v -0.003 c 0,0 0,-0.001 0.001,-0.001 v -0.003 -10e-4 c 0,-0.002 0,-0.004 0,-0.005 0,-10e-4 0,-10e-4 10e-4,-0.002 v -0.003 -0.001 c 0,-10e-4 0,-0.002 0,-0.003 v -0.002 c 0,-0.001 0.001,-0.003 0.001,-0.005 v -0.002 c 0,-10e-4 0,-10e-4 0,-0.002 v -0.001 c 0,-10e-4 0.001,-0.002 0.001,-0.003 v -10e-4 c 0,-0.003 0,-0.005 0,-0.007 10e-4,-10e-4 10e-4,-0.003 10e-4,-0.004 V -34.6 c 0,-10e-4 0,-0.002 0,-0.003 v -10e-4 c 0.001,-0.002 0.001,-0.004 0.001,-0.006 v -10e-4 -0.003 c 0,0 0.001,0 0.001,-0.001 v -0.003 -10e-4 l 10e-4,-0.01 v -0.001 c 0,-10e-4 0,-0.002 0,-0.003 v -10e-4 c 0.001,-0.003 0.001,-0.007 0.001,-0.01 0,-0.001 0,-0.001 0.001,-0.001 v -0.003 c 0,0 0,-10e-4 0,-10e-4 0,-0.003 10e-4,-0.007 10e-4,-0.011 v 0 c 0,-0.001 0.001,-0.002 0.001,-0.004 v 0 c 0,-0.005 0.001,-0.01 0.002,-0.015 v 0 c 0,-0.005 0.001,-0.01 0.002,-0.014 v -0.001 c 0,-10e-4 0,-0.002 0,-0.004 10e-4,-0.003 10e-4,-0.007 0.002,-0.01 v -0.001 c 0,-10e-4 0,-0.002 0,-0.004 0.001,-0.003 0.001,-0.007 0.002,-0.011 0,0 0,0 0,0 0,-0.002 0,-0.003 0.001,-0.004 v 0 c 0,-0.003 0.001,-0.007 0.001,-0.011 v 0 c 0,-0.001 10e-4,-0.003 10e-4,-0.004 v 0 c 0,-0.004 0.001,-0.007 0.002,-0.011 0,-0.001 0,-0.002 0,-0.004 10e-4,-0.004 10e-4,-0.007 0.002,-0.011 0,-0.002 0,-0.002 0.001,-0.003 v -0.001 c 0,-0.005 10e-4,-0.01 10e-4,-0.015 0.001,0 0.001,0 0.001,0 0,-0.005 0.001,-0.01 0.002,-0.014 v -10e-4 c 0.001,-0.005 0.002,-0.01 0.003,-0.014 v -10e-4 c 0,-0.001 0,-0.002 0,-0.003 0.002,-0.011 0.004,-0.02 0.006,-0.03 v -10e-4 c 0.001,-0.004 0.002,-0.009 0.003,-0.014 v 0 c 0,-0.004 0.001,-0.008 0.002,-0.011 0,-10e-4 0,-0.002 0,-0.003 0.001,-10e-4 0.001,-10e-4 0.001,-10e-4 0.001,-0.005 0.001,-0.01 0.002,-0.014 0,-10e-4 0,-10e-4 0,-10e-4 0.001,-0.004 0.002,-0.009 0.003,-0.014 0,0 0,0 0,-0.001 0,-10e-4 0.001,-0.002 0.001,-0.003 0.001,-0.003 0.001,-0.007 0.002,-0.01 v -10e-4 c 0,-0.002 0.001,-0.003 0.001,-0.004 v 0 c 0.001,-0.004 0.001,-0.007 0.002,-0.01 v -10e-4 c 0.001,-0.001 0.001,-0.002 0.001,-0.003 v -0.001 c 0.001,-0.003 0.002,-0.007 0.002,-0.01 0,0 0.001,-10e-4 0.001,-10e-4 0,-0.001 0,-0.002 0,-0.003 0,0 0.001,0 0.001,-0.001 0,-10e-4 0,-0.002 0,-0.003 0,0 10e-4,-10e-4 10e-4,-0.002 0,-0.001 0,-0.002 0.001,-0.004 0,0 0,-10e-4 0,-0.002 0,0 0,-10e-4 10e-4,-0.002 0,-10e-4 0,-10e-4 0,-0.002 0,-0.001 0,-0.002 0.001,-0.002 0,-10e-4 0,-0.002 0,-0.003 0,0 0.001,-0.002 0.001,-0.003 0,-10e-4 0,-10e-4 0,-0.002 10e-4,-10e-4 10e-4,-0.002 10e-4,-0.002 0,-0.001 0,-0.002 0,-0.003 0,0 0,-0.001 0,-0.002 0.001,-10e-4 0.001,-0.002 0.001,-0.003 0,0 0,-10e-4 0.001,-0.002 0,-10e-4 0,-0.002 0,-0.003 10e-4,-10e-4 10e-4,-10e-4 10e-4,-10e-4 0,-10e-4 0,-0.002 0,-0.003 0.001,-10e-4 0.001,-10e-4 0.001,-0.002 0,-10e-4 0,-0.002 0.001,-0.003 v -10e-4 c 0,-0.002 10e-4,-0.003 10e-4,-0.005 0,0 0,-10e-4 0,-10e-4 0.001,-10e-4 0.001,-0.002 0.001,-0.003 v -0.002 c 0.001,-10e-4 0.001,-10e-4 0.001,-0.003 v -10e-4 c 10e-4,-10e-4 10e-4,-0.003 0.002,-0.004 v -0.001 c 0,-10e-4 0,-0.002 0.001,-0.004 v -10e-4 c 0,-10e-4 10e-4,-0.002 10e-4,-0.004 0,0 0,0 0,0 0,-0.002 0.001,-0.003 0.001,-0.004 v -10e-4 c 0.001,-10e-4 0.001,-0.003 0.001,-0.004 0,0 0,-0.001 10e-4,-0.001 0,-10e-4 0,-0.003 0.001,-0.004 0.001,-0.004 0.001,-0.007 0.002,-0.01 v 0 c 0.001,-0.001 0.001,-0.003 0.001,-0.004 v -10e-4 c 0.001,-0.003 0.002,-0.006 0.002,-0.009 0.014,-0.051 0.029,-0.102 0.044,-0.153 l 0.955,0.301 c -0.067,0.211 -0.101,0.432 -0.101,0.657 z m 0,6 h -1 v -3 h 1 z m 0,6 h -1 v -3 h 1 z m 0,6 h -1 v -3 h 1 z m 0,6 h -1 v -3 h 1 z m -0.863,5.987 c -0.063,-0.209 -0.106,-0.428 -0.125,-0.653 -10e-4,-0.006 -10e-4,-0.01 -0.002,-0.015 0,-0.006 0,-0.011 -0.001,-0.015 0,-0.004 0,-0.007 0,-0.011 h -10e-4 v -0.005 c 0,-0.003 0,-0.006 -0.001,-0.01 0,-0.005 0,-0.01 -0.001,-0.015 v 0 c 0,-0.003 0,-0.007 0,-0.01 0,-0.002 0,-0.004 -10e-4,-0.005 v -10e-4 c 0,-0.003 0,-0.006 0,-0.009 v -0.001 -0.004 -10e-4 c -0.001,-0.003 -0.001,-0.006 -0.001,-0.009 0,0 0,-10e-4 0,-10e-4 v -0.004 -0.001 c 0,-10e-4 0,-0.003 -0.001,-0.005 v 0 -0.005 -10e-4 -0.004 0 -0.005 0 -0.005 -10e-4 c -10e-4,-0.003 -10e-4,-0.006 -10e-4,-0.009 v -0.001 c 0,-10e-4 0,-0.003 0,-0.004 v -10e-4 -0.009 -10e-4 c 0,-0.002 -0.001,-0.003 -0.001,-0.004 v -0.001 -0.005 0 -0.005 -10e-4 c 0,-0.001 0,-0.002 0,-0.004 v 0 -0.005 -10e-4 -0.004 -10e-4 -0.004 -10e-4 c 0,-0.001 0,-0.003 -0.001,-0.004 V -3.12 -3.123 -3.125 -3.134 -3.135 -3.139 -3.14 -3.144 c 0,-10e-4 0,-10e-4 0,-10e-4 V -3.149 -3.15 -3.154 -3.155 -3.16 -3.161 -3.164 -3.166 -3.17 v 0 -0.005 -0.001 -0.004 -10e-4 -0.005 -2.058 h 1 v 2.058 c 0,0.218 0.032,0.433 0.094,0.638 z M -18,0 h -1.937 -0.005 -0.002 -0.003 -0.002 -0.003 -0.002 -0.003 -10e-4 -0.005 -10e-4 -0.004 -0.002 -0.003 -0.002 c -10e-4,0 -0.002,0 -0.003,0 h -10e-4 -0.004 -0.001 -0.005 v 0 h -0.005 -0.001 -0.004 -0.001 -0.003 -0.002 c -0.001,0 -0.002,-0.001 -0.003,-0.001 h -0.002 -0.005 -10e-4 -0.003 -0.002 -0.003 -0.002 c -0.001,0 -0.002,0 -0.003,0 h -0.002 -0.003 -0.001 -0.005 -0.001 c -0.001,0 -0.002,-0.001 -0.004,-0.001 h -10e-4 -0.003 -0.002 -0.003 -0.002 c -10e-4,0 -0.002,0 -0.004,0 h -0.001 -0.004 -0.002 c -0.001,0 -0.002,0 -0.003,-0.001 h -0.002 -0.003 -0.002 -0.003 c -0.001,0 -0.001,0 -0.002,0 h -0.003 -10e-4 -0.005 c -10e-4,-0.001 -10e-4,-0.001 -0.002,-0.001 h -0.003 -0.002 -0.002 c -10e-4,0 -0.002,0 -0.003,0 h -0.002 -0.002 -0.003 c -0.001,0 -0.001,-0.001 -0.002,-0.001 h -0.004 -0.003 c 0,0 -0.001,0 -0.002,0 h -0.002 -0.002 -0.003 c -0.001,-0.001 -0.001,-0.001 -0.002,-0.001 h -0.003 -0.002 c -10e-4,0 -0.003,0 -0.004,0 h -0.003 -0.002 c -0.001,-0.001 -0.002,-0.001 -0.002,-0.001 h -0.002 -0.003 c -0.001,0 -0.001,0 -0.002,0 h -0.003 -0.002 c -10e-4,0 -0.002,-0.001 -0.003,-0.001 h -0.004 c 0,0 -0.001,0 -0.002,0 h -0.002 -0.002 c -0.001,0 -0.002,-10e-4 -0.003,-10e-4 h -0.002 -0.003 c 0,0 -0.001,0 -0.002,0 h -0.003 -10e-4 c -0.002,-0.001 -0.003,-0.001 -0.005,-0.001 -10e-4,0 -10e-4,0 -0.002,0 h -0.003 -0.002 c -0.001,0 -0.001,-10e-4 -0.002,-10e-4 h -0.002 c -0.001,0 -0.002,0 -0.003,0 h -0.002 -0.002 -0.001 c -0.003,-0.001 -0.005,-0.001 -0.007,-0.001 h -10e-4 -0.003 c -0.001,0 -0.001,-10e-4 -0.002,-10e-4 h -0.003 -10e-4 c -0.001,0 -0.002,0 -0.003,0 h -0.001 c -0.004,-0.001 -0.008,-0.001 -0.011,-0.001 h -0.001 c -10e-4,-10e-4 -0.002,-10e-4 -0.004,-10e-4 h -0.001 c -0.001,0 -0.002,0 -0.003,0 h -0.001 c -10e-4,0 -0.002,-0.001 -0.003,-0.001 h -10e-4 l -0.016,-0.001 v 0 c -0.002,-10e-4 -0.003,-10e-4 -0.004,-10e-4 h -0.001 c -0.001,0 -0.002,0 -0.004,0 -0.005,-0.001 -0.011,-0.002 -0.016,-0.002 v 0 c -0.002,0 -0.003,-0.001 -0.004,-0.001 h -10e-4 c -0.007,0 -0.013,-10e-4 -0.02,-0.002 -0.002,0 -0.003,0 -0.004,0 -0.227,-0.028 -0.446,-0.079 -0.655,-0.152 l 0.327,-0.945 c 0.229,0.08 0.47,0.12 0.716,0.12 H -18 Z m 6,0 h -3 v -1 h 3 z m 6,0 h -3 v -1 h 3 z m 6,0 h -3 v -1 h 3 z" /></g><g
           transform="translate(59.4033,51.5801)"
           id="g24"><path
             id="path26"
             style="fill:none;stroke:#c6c6c5;stroke-width:1;stroke-linecap:butt;stroke-linejoin:miter;stroke-miterlimit:4;stroke-dasharray:3;stroke-dashoffset:0;stroke-opacity:1"
             d="m 0,0 18.736,-6.819 c 1.653,-0.602 2.505,-2.43 1.904,-4.083 l -10.632,-29.21 c -0.602,-1.654 -2.43,-2.506 -4.083,-1.904 l -18.736,6.818 c -1.653,0.602 -2.504,2.43 -1.903,4.084 l 10.632,29.21 C -3.48,-0.251 -1.653,0.602 0,0 Z" /></g><g
           transform="translate(45.8008,54.7471)"
           id="g28"><path
             id="path30"
             style="fill:none;stroke:#c6c6c5;stroke-width:1;stroke-linecap:butt;stroke-linejoin:miter;stroke-miterlimit:4;stroke-dasharray:3.051, 3.051;stroke-dashoffset:0;stroke-opacity:1"
             d="m 0,0 19.635,-3.463 c 1.733,-0.306 2.889,-1.957 2.584,-3.69 l -5.398,-30.612 c -0.305,-1.733 -1.957,-2.891 -3.69,-2.584 l -19.635,3.463 c -1.733,0.304 -2.89,1.957 -2.584,3.689 L -3.69,-2.584 C -3.385,-0.852 -1.733,0.305 0,0 Z" /></g><g
           transform="translate(32.3979,54.3008)"
           id="g32"><path
             id="path34"
             style="fill:#efefef;fill-opacity:1;fill-rule:nonzero;stroke:none"
             d="m 0,0 h 19.937 c 1.76,0 3.186,-1.427 3.186,-3.186 v -31.086 c 0,-1.758 -1.426,-3.186 -3.186,-3.186 H 0 c -1.76,0 -3.186,1.428 -3.186,3.186 V -3.186 C -3.186,-1.427 -1.76,0 0,0" /></g><g
           transform="translate(32.3979,54.3008)"
           id="g36"><path
             id="path38"
             style="fill:none;stroke:#c6c6c5;stroke-width:1;stroke-linecap:butt;stroke-linejoin:miter;stroke-miterlimit:4;stroke-dasharray:none;stroke-opacity:1"
             d="m 0,0 h 19.937 c 1.76,0 3.186,-1.427 3.186,-3.186 v -31.086 c 0,-1.758 -1.426,-3.186 -3.186,-3.186 H 0 c -1.76,0 -3.186,1.428 -3.186,3.186 V -3.186 C -3.186,-1.427 -1.76,0 0,0 Z" /></g><g
           transform="translate(31.3979,55.3008)"
           id="g40"><path
             id="path42"
             style="fill:#efefef;fill-opacity:1;fill-rule:nonzero;stroke:none"
             d="m 0,0 h 19.937 c 1.76,0 3.186,-1.427 3.186,-3.186 v -31.086 c 0,-1.758 -1.426,-3.186 -3.186,-3.186 H 0 c -1.76,0 -3.186,1.428 -3.186,3.186 V -3.186 C -3.186,-1.427 -1.76,0 0,0" /></g></g></g><g
       id="g44"><g
         clip-path="url(#clipPath50)"
         id="g46"><g
           id="g52"><g
             id="g54" /><g
             mask="url(#mask66)"
             id="g78"><g
               id="g80"><path
                 id="path88"
                 style="fill:url(#radialGradient86);stroke:none"
                 d="m 31.398,55.301 c -1.76,0 -3.186,-1.427 -3.186,-3.186 v 0 -31.086 c 0,-1.758 1.426,-3.186 3.186,-3.186 v 0 h 19.937 c 1.76,0 3.185,1.428 3.185,3.186 v 0 31.086 c 0,1.759 -1.425,3.186 -3.185,3.186 v 0 z" /></g></g></g></g></g><g
       id="g90"><g
         clip-path="url(#clipPath96)"
         id="g92"><g
           transform="translate(35.6616,35.3555)"
           id="g98"><path
             id="path100"
             style="fill:none;stroke:#0c0d0d;stroke-width:0.5;stroke-linecap:butt;stroke-linejoin:miter;stroke-miterlimit:4;stroke-dasharray:none;stroke-opacity:1"
             d="m 0,0 c 0,-0.595 0.482,-1.077 1.077,-1.077 0.595,0 1.077,0.482 1.077,1.077 0,0.595 -0.482,1.077 -1.077,1.077 C 0.482,1.077 0,0.595 0,0" /></g><g
           transform="translate(32.8452,35.3555)"
           id="g102"><path
             id="path104"
             style="fill:none;stroke:#0c0d0d;stroke-width:0.5;stroke-linecap:butt;stroke-linejoin:miter;stroke-miterlimit:4;stroke-dasharray:none;stroke-opacity:1"
             d="m 0,0 c 0,-0.595 0.482,-1.077 1.077,-1.077 0.595,0 1.077,0.482 1.077,1.077 0,0.595 -0.482,1.077 -1.077,1.077 C 0.482,1.077 0,0.595 0,0" /></g><g
           transform="translate(34.2534,37.7891)"
           id="g106"><path
             id="path108"
             style="fill:none;stroke:#0c0d0d;stroke-width:0.5;stroke-linecap:butt;stroke-linejoin:miter;stroke-miterlimit:4;stroke-dasharray:none;stroke-opacity:1"
             d="m 0,0 c 0,-0.595 0.482,-1.077 1.077,-1.077 0.595,0 1.077,0.482 1.077,1.077 0,0.595 -0.482,1.077 -1.077,1.077 C 0.482,1.077 0,0.595 0,0" /></g><g
           transform="translate(36.7603,38.9004)"
           id="g110"><path
             id="path112"
             style="fill:none;stroke:#ce3232;stroke-width:0.5;stroke-linecap:butt;stroke-linejoin:miter;stroke-miterlimit:4;stroke-dasharray:none;stroke-opacity:1"
             d="M 0,0 2.672,-4.627 5.342,0 Z" /></g><g
           transform="translate(45.7412,34.2441)"
           id="g114"><path
             id="path116"
             style="fill:none;stroke:#0c0d0d;stroke-width:0.5;stroke-linecap:butt;stroke-linejoin:miter;stroke-miterlimit:4;stroke-dasharray:none;stroke-opacity:1"
             d="M 0,0 -2.672,4.627 -5.342,0 Z" /></g><g
           transform="translate(45.2471,36.5723)"
           id="g118"><path
             id="path120"
             style="fill:none;stroke:#ce3232;stroke-width:0.52200001;stroke-linecap:butt;stroke-linejoin:miter;stroke-miterlimit:4;stroke-dasharray:none;stroke-opacity:1"
             d="M 0,0 2.318,-2.32 4.639,0 2.318,2.32 Z" /></g><g
           transform="translate(19.2979,51.2842)"
           id="g122"><path
             id="path124"
             style="fill:#efefef;fill-opacity:1;fill-rule:nonzero;stroke:none"
             d="m 0,0 19.634,3.462 c 1.732,0.306 3.385,-0.851 3.69,-2.584 l 5.398,-30.612 c 0.305,-1.732 -0.851,-3.385 -2.583,-3.691 L 6.504,-36.886 c -1.733,-0.307 -3.385,0.851 -3.691,2.584 L -2.584,-3.69 C -2.89,-1.957 -1.733,-0.306 0,0" /></g><g
           transform="translate(19.2979,51.2842)"
           id="g126"><path
             id="path128"
             style="fill:none;stroke:#c6c6c5;stroke-width:1;stroke-linecap:butt;stroke-linejoin:miter;stroke-miterlimit:4;stroke-dasharray:none;stroke-opacity:1"
             d="m 0,0 19.634,3.462 c 1.732,0.306 3.385,-0.851 3.69,-2.584 l 5.398,-30.612 c 0.305,-1.732 -0.851,-3.385 -2.583,-3.691 L 6.504,-36.886 c -1.733,-0.307 -3.385,0.851 -3.691,2.584 L -2.584,-3.69 C -2.89,-1.957 -1.733,-0.306 0,0 Z" /></g><g
           transform="translate(18.2979,52.2842)"
           id="g130"><path
             id="path132"
             style="fill:#efefef;fill-opacity:1;fill-rule:nonzero;stroke:none"
             d="m 0,0 19.634,3.462 c 1.732,0.306 3.385,-0.851 3.69,-2.584 l 5.398,-30.612 c 0.305,-1.732 -0.851,-3.385 -2.583,-3.691 L 6.504,-36.886 c -1.733,-0.307 -3.385,0.851 -3.691,2.584 L -2.584,-3.69 C -2.89,-1.957 -1.733,-0.306 0,0" /></g></g></g><g
       id="g134"><g
         clip-path="url(#clipPath140)"
         id="g136"><g
           id="g142"><g
             id="g144" /><g
             mask="url(#mask156)"
             id="g168"><g
               id="g170"><path
                 id="path178"
                 style="fill:url(#radialGradient176);stroke:none"
                 d="M 37.931,55.746 18.298,52.285 c -1.734,-0.306 -2.89,-1.958 -2.584,-3.691 v 0 l 5.397,-30.612 c 0.306,-1.733 1.958,-2.891 3.691,-2.584 v 0 l 19.635,3.461 c 1.732,0.306 2.889,1.959 2.583,3.691 v 0 l -5.398,30.612 c -0.273,1.546 -1.616,2.633 -3.133,2.633 v 0 c -0.184,0 -0.37,-0.016 -0.558,-0.049" /></g></g></g></g></g><g
       id="g180"><g
         clip-path="url(#clipPath186)"
         id="g182"><g
           transform="translate(25.96,33.3823)"
           id="g188"><path
             id="path190"
             style="fill:none;stroke:#0c0d0d;stroke-width:0.5;stroke-linecap:butt;stroke-linejoin:miter;stroke-miterlimit:4;stroke-dasharray:none;stroke-opacity:1"
             d="M 0,0 C 0.104,-0.586 0.662,-0.977 1.248,-0.873 1.834,-0.77 2.225,-0.211 2.121,0.375 2.019,0.96 1.459,1.352 0.873,1.249 0.288,1.145 -0.104,0.586 0,0" /></g><g
           transform="translate(23.1855,32.894)"
           id="g192"><path
             id="path194"
             style="fill:none;stroke:#0c0d0d;stroke-width:0.5;stroke-linecap:butt;stroke-linejoin:miter;stroke-miterlimit:4;stroke-dasharray:none;stroke-opacity:1"
             d="M 0,0 C 0.104,-0.586 0.663,-0.977 1.249,-0.875 1.834,-0.771 2.226,-0.213 2.122,0.373 2.019,0.959 1.46,1.351 0.874,1.248 0.288,1.145 -0.103,0.586 0,0" /></g><g
           transform="translate(24.1504,35.5352)"
           id="g196"><path
             id="path198"
             style="fill:none;stroke:#0c0d0d;stroke-width:0.5;stroke-linecap:butt;stroke-linejoin:miter;stroke-miterlimit:4;stroke-dasharray:none;stroke-opacity:1"
             d="M 0,0 C 0.104,-0.586 0.662,-0.977 1.248,-0.873 1.834,-0.771 2.225,-0.211 2.122,0.374 2.019,0.96 1.46,1.351 0.874,1.248 0.288,1.145 -0.104,0.586 0,0" /></g><g
           transform="translate(26.4268,37.0654)"
           id="g200"><path
             id="path202"
             style="fill:none;stroke:#ce3232;stroke-width:0.5;stroke-linecap:butt;stroke-linejoin:miter;stroke-miterlimit:4;stroke-dasharray:none;stroke-opacity:1"
             d="M 0,0 3.435,-4.093 5.261,0.928 Z" /></g><g
           transform="translate(36.0791,34.0391)"
           id="g204"><path
             id="path206"
             style="fill:none;stroke:#0c0d0d;stroke-width:0.5;stroke-linecap:butt;stroke-linejoin:miter;stroke-miterlimit:4;stroke-dasharray:none;stroke-opacity:1"
             d="m 0,0 -3.435,4.092 -1.827,-5.02 z" /></g><g
           transform="translate(35.1885,36.2461)"
           id="g208"><path
             id="path210"
             style="fill:none;stroke:#ce3232;stroke-width:0.52200001;stroke-linecap:butt;stroke-linejoin:miter;stroke-miterlimit:4;stroke-dasharray:none;stroke-opacity:1"
             d="M 0,0 2.686,-1.883 4.567,0.805 1.881,2.688 Z" /></g><g
           transform="translate(6.5937,44.7617)"
           id="g212"><path
             id="path214"
             style="fill:#efefef;fill-opacity:1;fill-rule:nonzero;stroke:none"
             d="m 0,0 18.735,6.818 c 1.654,0.602 3.481,-0.25 4.082,-1.904 l 10.632,-29.209 c 0.602,-1.655 -0.25,-3.483 -1.903,-4.084 l -18.735,-6.819 c -1.654,-0.601 -3.481,0.252 -4.082,1.905 L -1.903,-4.084 C -2.506,-2.43 -1.653,-0.602 0,0" /></g><g
           transform="translate(6.5937,44.7617)"
           id="g216"><path
             id="path218"
             style="fill:none;stroke:#c6c6c5;stroke-width:1;stroke-linecap:butt;stroke-linejoin:miter;stroke-miterlimit:4;stroke-dasharray:none;stroke-opacity:1"
             d="m 0,0 18.735,6.818 c 1.654,0.602 3.481,-0.25 4.082,-1.904 l 10.632,-29.209 c 0.602,-1.655 -0.25,-3.483 -1.903,-4.084 l -18.735,-6.819 c -1.654,-0.601 -3.481,0.252 -4.082,1.905 L -1.903,-4.084 C -2.506,-2.43 -1.653,-0.602 0,0 Z" /></g><g
           transform="translate(5.5937,45.7617)"
           id="g220"><path
             id="path222"
             style="fill:#efefef;fill-opacity:1;fill-rule:nonzero;stroke:none"
             d="m 0,0 18.735,6.818 c 1.654,0.602 3.481,-0.25 4.082,-1.904 l 10.632,-29.209 c 0.602,-1.655 -0.25,-3.483 -1.903,-4.084 l -18.735,-6.819 c -1.654,-0.601 -3.481,0.252 -4.082,1.905 L -1.903,-4.084 C -2.506,-2.43 -1.653,-0.602 0,0" /></g></g></g><g
       id="g224"><g
         clip-path="url(#clipPath230)"
         id="g226"><g
           id="g232"><g
             id="g234" /><g
             mask="url(#mask246)"
             id="g258"><g
               id="g260"><path
                 id="path268"
                 style="fill:url(#radialGradient266);stroke:none"
                 d="M 24.329,52.58 5.594,45.761 C 3.94,45.16 3.088,43.332 3.69,41.678 v 0 L 14.323,12.469 c 0.601,-1.653 2.428,-2.507 4.081,-1.905 v 0 l 18.735,6.819 c 1.654,0.601 2.505,2.429 1.904,4.083 v 0 L 28.411,50.675 c -0.47,1.295 -1.691,2.098 -2.992,2.098 v 0 c -0.362,0 -0.73,-0.062 -1.09,-0.193" /></g></g></g></g></g><g
       id="g270"><g
         clip-path="url(#clipPath276)"
         id="g272"><g
           transform="translate(16.4219,28.478)"
           id="g278"><path
             id="path280"
             style="fill:none;stroke:#0c0d0d;stroke-width:0.5;stroke-linecap:butt;stroke-linejoin:miter;stroke-miterlimit:4;stroke-dasharray:none;stroke-opacity:1"
             d="M 0,0 C 0.203,-0.559 0.822,-0.848 1.381,-0.645 1.939,-0.441 2.229,0.178 2.024,0.736 1.821,1.295 1.203,1.584 0.645,1.379 0.085,1.176 -0.203,0.559 0,0" /></g><g
           transform="translate(13.7754,27.5132)"
           id="g282"><path
             id="path284"
             style="fill:none;stroke:#0c0d0d;stroke-width:0.5;stroke-linecap:butt;stroke-linejoin:miter;stroke-miterlimit:4;stroke-dasharray:none;stroke-opacity:1"
             d="M 0,0 C 0.203,-0.559 0.822,-0.846 1.381,-0.643 1.939,-0.439 2.229,0.18 2.024,0.738 1.821,1.297 1.203,1.584 0.645,1.381 0.085,1.178 -0.203,0.561 0,0" /></g><g
           transform="translate(14.2666,30.2827)"
           id="g286"><path
             id="path288"
             style="fill:none;stroke:#0c0d0d;stroke-width:0.5;stroke-linecap:butt;stroke-linejoin:miter;stroke-miterlimit:4;stroke-dasharray:none;stroke-opacity:1"
             d="M 0,0 C 0.203,-0.559 0.821,-0.848 1.381,-0.645 1.939,-0.439 2.228,0.178 2.024,0.736 1.821,1.295 1.202,1.584 0.644,1.381 0.085,1.178 -0.203,0.559 0,0" /></g><g
           transform="translate(16.2422,32.1851)"
           id="g290"><path
             id="path292"
             style="fill:none;stroke:#ce3232;stroke-width:0.5;stroke-linecap:butt;stroke-linejoin:miter;stroke-miterlimit:4;stroke-dasharray:none;stroke-opacity:1"
             d="M 0,0 4.093,-3.434 5.02,1.827 Z" /></g><g
           transform="translate(26.2744,30.8804)"
           id="g294"><path
             id="path296"
             style="fill:none;stroke:#0c0d0d;stroke-width:0.5;stroke-linecap:butt;stroke-linejoin:miter;stroke-miterlimit:4;stroke-dasharray:none;stroke-opacity:1"
             d="m 0,0 -4.093,3.434 -0.928,-5.26 z" /></g><g
           transform="translate(25.0127,32.8999)"
           id="g298"><path
             id="path300"
             style="fill:none;stroke:#ce3232;stroke-width:0.52200001;stroke-linecap:butt;stroke-linejoin:miter;stroke-miterlimit:4;stroke-dasharray:none;stroke-opacity:1"
             d="M 0,0 2.974,-1.387 4.358,1.586 1.387,2.973 Z" /></g><g
           transform="translate(151.8076,49.0928)"
           id="g302"><path
             id="path304"
             style="fill:#cccccc;fill-opacity:1;fill-rule:nonzero;stroke:none"
             d="m 0,0 c 0,0 -0.267,0.209 -0.768,0.602 -0.499,0.371 -1.228,0.912 -2.187,1.545 -1.911,1.273 -4.714,2.978 -8.257,4.666 -3.532,1.705 -7.808,3.376 -12.532,4.687 -4.72,1.318 -9.898,2.207 -15.111,2.582 -10.452,0.76 -20.927,-0.927 -28.396,-3.21 -1.891,-0.51 -3.576,-1.124 -5.082,-1.634 -0.328,-0.112 -0.615,-0.21 -0.851,-0.29 -0.12,-0.041 -0.188,-0.065 -0.188,-0.065 l -0.579,1.576 c -1.149,-1.393 -2.258,-2.774 -3.33,-4.139 1.753,-0.252 3.468,-0.518 5.144,-0.8 l -0.578,1.576 c 0,0 0.067,0.023 0.184,0.063 0.231,0.079 0.512,0.174 0.834,0.284 1.475,0.499 3.127,1.102 4.977,1.6 7.314,2.238 17.543,3.88 27.734,3.14 5.084,-0.367 10.132,-1.232 14.735,-2.518 4.605,-1.278 8.775,-2.909 12.216,-4.569 3.451,-1.644 6.178,-3.303 8.022,-4.532 0.927,-0.612 1.624,-1.13 2.096,-1.481 0.452,-0.353 0.692,-0.541 0.692,-0.541 z" /></g></g></g></g></svg>